<?xml version="1.0" encoding="utf-8" standalone="no"?>
<!DOCTYPE svg PUBLIC "-//W3C//DTD SVG 1.1//EN"
  "http://www.w3.org/Graphics/SVG/1.1/DTD/svg11.dtd">
<!-- Created with matplotlib (https://matplotlib.org/) -->
<svg height="231.84pt" version="1.1" viewBox="0 0 349.2 231.84" width="349.2pt" xmlns="http://www.w3.org/2000/svg" xmlns:xlink="http://www.w3.org/1999/xlink">
 <defs>
  <style type="text/css">
*{stroke-linecap:butt;stroke-linejoin:round;}
  </style>
 </defs>
 <g id="figure_1">
  <g id="patch_1">
   <path d="M 0 231.84 
L 349.2 231.84 
L 349.2 0 
L 0 0 
z
" style="fill:#ffffff;"/>
  </g>
  <g id="axes_1">
   <g id="patch_2">
    <path clip-path="url(#p54a72b0b94)" d="M 107.90173 205.77124 
Q 75.644666 183.567463 44.308548 161.997609 
" style="fill:none;stroke:#000000;stroke-linecap:round;"/>
    <path clip-path="url(#p54a72b0b94)" d="M 46.46943 165.913038 
L 44.308548 161.997609 
L 48.737421 162.618161 
L 46.46943 165.913038 
z
" style="stroke:#000000;stroke-linecap:round;"/>
   </g>
   <g id="patch_3">
    <path clip-path="url(#p54a72b0b94)" d="M 107.90173 205.77124 
Q 86.431379 152.489293 65.378898 100.244355 
" style="fill:none;stroke:#000000;stroke-linecap:round;"/>
    <path clip-path="url(#p54a72b0b94)" d="M 65.018859 104.701974 
L 65.378898 100.244355 
L 68.72897 103.206958 
L 65.018859 104.701974 
z
" style="stroke:#000000;stroke-linecap:round;"/>
   </g>
   <g id="patch_4">
    <path clip-path="url(#p54a72b0b94)" d="M 107.90173 205.77124 
Q 188.712982 191.210243 268.42392 176.847507 
" style="fill:none;stroke:#000000;stroke-linecap:round;"/>
    <path clip-path="url(#p54a72b0b94)" d="M 264.132655 175.588522 
L 268.42392 176.847507 
L 264.841973 179.525128 
L 264.132655 175.588522 
z
" style="stroke:#000000;stroke-linecap:round;"/>
   </g>
   <g id="patch_5">
    <path clip-path="url(#p54a72b0b94)" d="M 36.252893 156.452591 
Q 68.509957 178.656368 99.846074 200.226222 
" style="fill:none;stroke:#000000;stroke-linecap:round;"/>
    <path clip-path="url(#p54a72b0b94)" d="M 97.685192 196.310793 
L 99.846074 200.226222 
L 95.417202 199.60567 
L 97.685192 196.310793 
z
" style="stroke:#000000;stroke-linecap:round;"/>
   </g>
   <g id="patch_6">
    <path clip-path="url(#p54a72b0b94)" d="M 36.252893 156.452591 
Q 47.41439 127.847487 58.169481 100.283936 
" style="fill:none;stroke:#000000;stroke-linecap:round;"/>
    <path clip-path="url(#p54a72b0b94)" d="M 54.85229 103.283309 
L 58.169481 100.283936 
L 58.578665 104.737313 
L 54.85229 103.283309 
z
" style="stroke:#000000;stroke-linecap:round;"/>
   </g>
   <g id="patch_7">
    <path clip-path="url(#p54a72b0b94)" d="M 36.252893 156.452591 
Q 99.479378 111.714715 161.793196 67.622624 
" style="fill:none;stroke:#000000;stroke-linecap:round;"/>
    <path clip-path="url(#p54a72b0b94)" d="M 157.372724 68.30043 
L 161.793196 67.622624 
L 159.683157 71.565686 
L 157.372724 68.30043 
z
" style="stroke:#000000;stroke-linecap:round;"/>
   </g>
   <g id="patch_8">
    <path clip-path="url(#p54a72b0b94)" d="M 36.252893 156.452591 
Q 102.181283 145.893369 167.005709 135.51096 
" style="fill:none;stroke:#000000;stroke-linecap:round;"/>
    <path clip-path="url(#p54a72b0b94)" d="M 162.739754 134.168715 
L 167.005709 135.51096 
L 163.37234 138.118378 
L 162.739754 134.168715 
z
" style="stroke:#000000;stroke-linecap:round;"/>
   </g>
   <g id="patch_9">
    <path clip-path="url(#p54a72b0b94)" d="M 61.724022 91.174225 
Q 83.194374 144.456171 104.246855 196.70111 
" style="fill:none;stroke:#000000;stroke-linecap:round;"/>
    <path clip-path="url(#p54a72b0b94)" d="M 104.606894 192.24349 
L 104.246855 196.70111 
L 100.896783 193.738507 
L 104.606894 192.24349 
z
" style="stroke:#000000;stroke-linecap:round;"/>
   </g>
   <g id="patch_10">
    <path clip-path="url(#p54a72b0b94)" d="M 61.724022 91.174225 
Q 111.570276 77.703795 160.337212 64.52504 
" style="fill:none;stroke:#000000;stroke-linecap:round;"/>
    <path clip-path="url(#p54a72b0b94)" d="M 155.953966 63.637823 
L 160.337212 64.52504 
L 156.997492 67.499307 
L 155.953966 63.637823 
z
" style="stroke:#000000;stroke-linecap:round;"/>
   </g>
   <g id="patch_11">
    <path clip-path="url(#p54a72b0b94)" d="M 278.047626 175.113457 
Q 294.5106 104.805278 310.718676 35.585689 
" style="fill:none;stroke:#000000;stroke-linecap:round;"/>
    <path clip-path="url(#p54a72b0b94)" d="M 307.859397 39.02437 
L 310.718676 35.585689 
L 311.754053 39.936321 
L 307.859397 39.02437 
z
" style="stroke:#000000;stroke-linecap:round;"/>
   </g>
   <g id="patch_12">
    <path clip-path="url(#p54a72b0b94)" d="M 169.775624 61.974407 
Q 237.160335 45.075151 303.460595 28.447861 
" style="fill:none;stroke:#000000;stroke-linecap:round;"/>
    <path clip-path="url(#p54a72b0b94)" d="M 299.094235 27.480955 
L 303.460595 28.447861 
L 300.067254 31.360805 
L 299.094235 27.480955 
z
" style="stroke:#000000;stroke-linecap:round;"/>
   </g>
   <g id="patch_13">
    <path clip-path="url(#p54a72b0b94)" d="M 169.775624 61.974407 
Q 172.804888 93.66145 175.727754 124.235533 
" style="fill:none;stroke:#000000;stroke-linecap:round;"/>
    <path clip-path="url(#p54a72b0b94)" d="M 177.338015 120.063356 
L 175.727754 124.235533 
L 173.356169 120.444018 
L 177.338015 120.063356 
z
" style="stroke:#000000;stroke-linecap:round;"/>
   </g>
   <g id="patch_14">
    <path clip-path="url(#p54a72b0b94)" d="M 176.65789 133.965048 
Q 173.628626 102.278005 170.705761 71.703923 
" style="fill:none;stroke:#000000;stroke-linecap:round;"/>
    <path clip-path="url(#p54a72b0b94)" d="M 169.0955 75.876099 
L 170.705761 71.703923 
L 173.077346 75.495437 
L 169.0955 75.876099 
z
" style="stroke:#000000;stroke-linecap:round;"/>
   </g>
   <g id="patch_15">
    <path clip-path="url(#p54a72b0b94)" d="M 176.65789 133.965048 
Q 241.407538 82.704598 305.280598 32.138117 
" style="fill:none;stroke:#000000;stroke-linecap:round;"/>
    <path clip-path="url(#p54a72b0b94)" d="M 300.903012 33.05285 
L 305.280598 32.138117 
L 303.385833 36.189026 
L 300.903012 33.05285 
z
" style="stroke:#000000;stroke-linecap:round;"/>
   </g>
   <g id="PathCollection_1">
    <defs>
     <path d="M 0 8.660254 
C 2.296726 8.660254 4.499694 7.747755 6.123724 6.123724 
C 7.747755 4.499694 8.660254 2.296726 8.660254 0 
C 8.660254 -2.296726 7.747755 -4.499694 6.123724 -6.123724 
C 4.499694 -7.747755 2.296726 -8.660254 0 -8.660254 
C -2.296726 -8.660254 -4.499694 -7.747755 -6.123724 -6.123724 
C -7.747755 -4.499694 -8.660254 -2.296726 -8.660254 0 
C -8.660254 2.296726 -7.747755 4.499694 -6.123724 6.123724 
C -4.499694 7.747755 -2.296726 8.660254 0 8.660254 
z
" id="m122043d4ad" style="stroke:#1f78b4;"/>
    </defs>
    <g clip-path="url(#p54a72b0b94)">
     <use style="fill:#1f78b4;stroke:#1f78b4;" x="107.90173" xlink:href="#m122043d4ad" y="205.77124"/>
     <use style="fill:#1f78b4;stroke:#1f78b4;" x="36.252893" xlink:href="#m122043d4ad" y="156.452591"/>
     <use style="fill:#1f78b4;stroke:#1f78b4;" x="61.724022" xlink:href="#m122043d4ad" y="91.174225"/>
     <use style="fill:#1f78b4;stroke:#1f78b4;" x="278.047626" xlink:href="#m122043d4ad" y="175.113457"/>
     <use style="fill:#1f78b4;stroke:#1f78b4;" x="169.775624" xlink:href="#m122043d4ad" y="61.974407"/>
     <use style="fill:#1f78b4;stroke:#1f78b4;" x="176.65789" xlink:href="#m122043d4ad" y="133.965048"/>
     <use style="fill:#1f78b4;stroke:#1f78b4;" x="312.947107" xlink:href="#m122043d4ad" y="26.06876"/>
    </g>
   </g>
   <g id="text_1">
    <g clip-path="url(#p54a72b0b94)">
     <!-- 1 -->
     <defs>
      <path d="M 11.71875 12.984375 
L 28.328125 12.984375 
L 28.328125 60.109375 
L 11.28125 56.59375 
L 11.28125 69.390625 
L 28.21875 72.90625 
L 46.09375 72.90625 
L 46.09375 12.984375 
L 62.703125 12.984375 
L 62.703125 0 
L 11.71875 0 
z
" id="DejaVuSans-Bold-49"/>
     </defs>
     <g transform="translate(103.727043 209.08249)scale(0.12 -0.12)">
      <use xlink:href="#DejaVuSans-Bold-49"/>
     </g>
    </g>
   </g>
   <g id="text_2">
    <g clip-path="url(#p54a72b0b94)">
     <!-- 2 -->
     <defs>
      <path d="M 28.8125 13.8125 
L 60.890625 13.8125 
L 60.890625 0 
L 7.90625 0 
L 7.90625 13.8125 
L 34.515625 37.3125 
Q 38.09375 40.53125 39.796875 43.609375 
Q 41.5 46.6875 41.5 50 
Q 41.5 55.125 38.0625 58.25 
Q 34.625 61.375 28.90625 61.375 
Q 24.515625 61.375 19.28125 59.5 
Q 14.0625 57.625 8.109375 53.90625 
L 8.109375 69.921875 
Q 14.453125 72.015625 20.65625 73.109375 
Q 26.859375 74.21875 32.8125 74.21875 
Q 45.90625 74.21875 53.15625 68.453125 
Q 60.40625 62.703125 60.40625 52.390625 
Q 60.40625 46.4375 57.328125 41.28125 
Q 54.25 36.140625 44.390625 27.484375 
z
" id="DejaVuSans-Bold-50"/>
     </defs>
     <g transform="translate(32.078205 159.763841)scale(0.12 -0.12)">
      <use xlink:href="#DejaVuSans-Bold-50"/>
     </g>
    </g>
   </g>
   <g id="text_3">
    <g clip-path="url(#p54a72b0b94)">
     <!-- 3 -->
     <defs>
      <path d="M 46.578125 39.3125 
Q 53.953125 37.40625 57.78125 32.6875 
Q 61.625 27.984375 61.625 20.703125 
Q 61.625 9.859375 53.3125 4.21875 
Q 45.015625 -1.421875 29.109375 -1.421875 
Q 23.484375 -1.421875 17.84375 -0.515625 
Q 12.203125 0.390625 6.6875 2.203125 
L 6.6875 16.703125 
Q 11.96875 14.0625 17.15625 12.71875 
Q 22.359375 11.375 27.390625 11.375 
Q 34.859375 11.375 38.84375 13.953125 
Q 42.828125 16.546875 42.828125 21.390625 
Q 42.828125 26.375 38.75 28.9375 
Q 34.671875 31.5 26.703125 31.5 
L 19.1875 31.5 
L 19.1875 43.609375 
L 27.09375 43.609375 
Q 34.1875 43.609375 37.640625 45.828125 
Q 41.109375 48.046875 41.109375 52.59375 
Q 41.109375 56.78125 37.734375 59.078125 
Q 34.375 61.375 28.21875 61.375 
Q 23.6875 61.375 19.046875 60.34375 
Q 14.40625 59.328125 9.8125 57.328125 
L 9.8125 71.09375 
Q 15.375 72.65625 20.84375 73.4375 
Q 26.3125 74.21875 31.59375 74.21875 
Q 45.796875 74.21875 52.84375 69.546875 
Q 59.90625 64.890625 59.90625 55.515625 
Q 59.90625 49.125 56.53125 45.046875 
Q 53.171875 40.96875 46.578125 39.3125 
z
" id="DejaVuSans-Bold-51"/>
     </defs>
     <g transform="translate(57.549335 94.485475)scale(0.12 -0.12)">
      <use xlink:href="#DejaVuSans-Bold-51"/>
     </g>
    </g>
   </g>
   <g id="text_4">
    <g clip-path="url(#p54a72b0b94)">
     <!-- 4 -->
     <defs>
      <path d="M 36.8125 57.421875 
L 16.21875 26.90625 
L 36.8125 26.90625 
z
M 33.6875 72.90625 
L 54.59375 72.90625 
L 54.59375 26.90625 
L 64.984375 26.90625 
L 64.984375 13.28125 
L 54.59375 13.28125 
L 54.59375 0 
L 36.8125 0 
L 36.8125 13.28125 
L 4.5 13.28125 
L 4.5 29.390625 
z
" id="DejaVuSans-Bold-52"/>
     </defs>
     <g transform="translate(273.872939 178.424707)scale(0.12 -0.12)">
      <use xlink:href="#DejaVuSans-Bold-52"/>
     </g>
    </g>
   </g>
   <g id="text_5">
    <g clip-path="url(#p54a72b0b94)">
     <!-- 5 -->
     <defs>
      <path d="M 10.59375 72.90625 
L 57.328125 72.90625 
L 57.328125 59.078125 
L 25.59375 59.078125 
L 25.59375 47.796875 
Q 27.734375 48.390625 29.90625 48.703125 
Q 32.078125 49.03125 34.421875 49.03125 
Q 47.75 49.03125 55.171875 42.359375 
Q 62.59375 35.6875 62.59375 23.78125 
Q 62.59375 11.96875 54.515625 5.265625 
Q 46.4375 -1.421875 32.078125 -1.421875 
Q 25.875 -1.421875 19.796875 -0.21875 
Q 13.71875 0.984375 7.71875 3.421875 
L 7.71875 18.21875 
Q 13.671875 14.796875 19.015625 13.078125 
Q 24.359375 11.375 29.109375 11.375 
Q 35.9375 11.375 39.859375 14.71875 
Q 43.796875 18.0625 43.796875 23.78125 
Q 43.796875 29.546875 39.859375 32.859375 
Q 35.9375 36.1875 29.109375 36.1875 
Q 25.046875 36.1875 20.453125 35.125 
Q 15.875 34.078125 10.59375 31.890625 
z
" id="DejaVuSans-Bold-53"/>
     </defs>
     <g transform="translate(165.600937 65.285657)scale(0.12 -0.12)">
      <use xlink:href="#DejaVuSans-Bold-53"/>
     </g>
    </g>
   </g>
   <g id="text_6">
    <g clip-path="url(#p54a72b0b94)">
     <!-- 6 -->
     <defs>
      <path d="M 36.1875 35.984375 
Q 31.25 35.984375 28.78125 32.78125 
Q 26.3125 29.59375 26.3125 23.1875 
Q 26.3125 16.796875 28.78125 13.59375 
Q 31.25 10.40625 36.1875 10.40625 
Q 41.15625 10.40625 43.625 13.59375 
Q 46.09375 16.796875 46.09375 23.1875 
Q 46.09375 29.59375 43.625 32.78125 
Q 41.15625 35.984375 36.1875 35.984375 
z
M 59.421875 71 
L 59.421875 57.515625 
Q 54.78125 59.71875 50.671875 60.765625 
Q 46.578125 61.8125 42.671875 61.8125 
Q 34.28125 61.8125 29.59375 57.140625 
Q 24.90625 52.484375 24.125 43.3125 
Q 27.34375 45.703125 31.09375 46.890625 
Q 34.859375 48.09375 39.3125 48.09375 
Q 50.484375 48.09375 57.34375 41.546875 
Q 64.203125 35.015625 64.203125 24.421875 
Q 64.203125 12.703125 56.53125 5.640625 
Q 48.875 -1.421875 35.984375 -1.421875 
Q 21.78125 -1.421875 13.984375 8.171875 
Q 6.203125 17.78125 6.203125 35.40625 
Q 6.203125 53.46875 15.3125 63.796875 
Q 24.421875 74.125 40.28125 74.125 
Q 45.3125 74.125 50.046875 73.34375 
Q 54.78125 72.5625 59.421875 71 
z
" id="DejaVuSans-Bold-54"/>
     </defs>
     <g transform="translate(172.483203 137.276298)scale(0.12 -0.12)">
      <use xlink:href="#DejaVuSans-Bold-54"/>
     </g>
    </g>
   </g>
   <g id="text_7">
    <g clip-path="url(#p54a72b0b94)">
     <!-- 7 -->
     <defs>
      <path d="M 6.6875 72.90625 
L 61.625 72.90625 
L 61.625 62.3125 
L 33.203125 0 
L 14.890625 0 
L 41.796875 59.078125 
L 6.6875 59.078125 
z
" id="DejaVuSans-Bold-55"/>
     </defs>
     <g transform="translate(308.77242 29.38001)scale(0.12 -0.12)">
      <use xlink:href="#DejaVuSans-Bold-55"/>
     </g>
    </g>
   </g>
  </g>
 </g>
 <defs>
  <clipPath id="p54a72b0b94">
   <rect height="217.44" width="334.8" x="7.2" y="7.2"/>
  </clipPath>
 </defs>
</svg>
