<svg viewBox="0 0 330 200" xmlns="http://www.w3.org/2000/svg"><g><g><g><g><g><line x1="49.98400115966797" y1="178.5999994277954" x2="44.98400115966797" y2="178.5999994277954" style="visibility: inherit;" fill="rgb(0, 0, 0)" stroke="rgb(204, 204, 204)" stroke-width="1px"></line><line x1="49.98400115966797" y1="163.71666614214578" x2="44.98400115966797" y2="163.71666614214578" style="visibility: inherit;" fill="rgb(0, 0, 0)" stroke="rgb(204, 204, 204)" stroke-width="1px"></line><line x1="49.98400115966797" y1="148.83333285649618" x2="44.98400115966797" y2="148.83333285649618" style="visibility: inherit;" fill="rgb(0, 0, 0)" stroke="rgb(204, 204, 204)" stroke-width="1px"></line><line x1="49.98400115966797" y1="133.94999957084656" x2="44.98400115966797" y2="133.94999957084656" style="visibility: inherit;" fill="rgb(0, 0, 0)" stroke="rgb(204, 204, 204)" stroke-width="1px"></line><line x1="49.98400115966797" y1="119.06666628519694" x2="44.98400115966797" y2="119.06666628519694" style="visibility: inherit;" fill="rgb(0, 0, 0)" stroke="rgb(204, 204, 204)" stroke-width="1px"></line><line x1="49.98400115966797" y1="104.18333299954732" x2="44.98400115966797" y2="104.18333299954732" style="visibility: inherit;" fill="rgb(0, 0, 0)" stroke="rgb(204, 204, 204)" stroke-width="1px"></line><line x1="49.98400115966797" y1="89.2999997138977" x2="44.98400115966797" y2="89.2999997138977" style="visibility: inherit;" fill="rgb(0, 0, 0)" stroke="rgb(204, 204, 204)" stroke-width="1px"></line><line x1="49.98400115966797" y1="74.41666642824808" x2="44.98400115966797" y2="74.41666642824808" style="visibility: inherit;" fill="rgb(0, 0, 0)" stroke="rgb(204, 204, 204)" stroke-width="1px"></line><line x1="49.98400115966797" y1="59.53333314259848" x2="44.98400115966797" y2="59.53333314259848" style="visibility: inherit;" fill="rgb(0, 0, 0)" stroke="rgb(204, 204, 204)" stroke-width="1px"></line><line x1="49.98400115966797" y1="44.64999985694885" x2="44.98400115966797" y2="44.64999985694885" style="visibility: inherit;" fill="rgb(0, 0, 0)" stroke="rgb(204, 204, 204)" stroke-width="1px"></line><line x1="49.98400115966797" y1="29.766666571299226" x2="44.98400115966797" y2="29.766666571299226" style="visibility: inherit;" fill="rgb(0, 0, 0)" stroke="rgb(204, 204, 204)" stroke-width="1px"></line><line x1="49.98400115966797" y1="14.883333285649627" x2="44.98400115966797" y2="14.883333285649627" style="visibility: inherit;" fill="rgb(0, 0, 0)" stroke="rgb(204, 204, 204)" stroke-width="1px"></line><line x1="49.98400115966797" y1="0" x2="44.98400115966797" y2="0" style="visibility: inherit;" fill="rgb(0, 0, 0)" stroke="rgb(204, 204, 204)" stroke-width="1px"></line></g><g transform="translate(39.98400115966797, 0)"><text style="text-anchor: end; visibility: hidden; font-family: &quot;Helvetica Neue&quot;, sans-serif; font-size: 12px; font-weight: 200;" x="0" y="178.5999994277954" dx="0em" dy="0.3em" fill="rgb(50, 49, 63)" stroke="none" stroke-width="1px">-600</text><text style="text-anchor: end; visibility: inherit; font-family: &quot;Helvetica Neue&quot;, sans-serif; font-size: 12px; font-weight: 200;" x="0" y="163.71666614214578" dx="0em" dy="0.3em" fill="rgb(50, 49, 63)" stroke="none" stroke-width="1px">-550</text><text style="text-anchor: end; visibility: hidden; font-family: &quot;Helvetica Neue&quot;, sans-serif; font-size: 12px; font-weight: 200;" x="0" y="148.83333285649618" dx="0em" dy="0.3em" fill="rgb(50, 49, 63)" stroke="none" stroke-width="1px">-500</text><text style="text-anchor: end; visibility: inherit; font-family: &quot;Helvetica Neue&quot;, sans-serif; font-size: 12px; font-weight: 200;" x="0" y="133.94999957084656" dx="0em" dy="0.3em" fill="rgb(50, 49, 63)" stroke="none" stroke-width="1px">-450</text><text style="text-anchor: end; visibility: hidden; font-family: &quot;Helvetica Neue&quot;, sans-serif; font-size: 12px; font-weight: 200;" x="0" y="119.06666628519694" dx="0em" dy="0.3em" fill="rgb(50, 49, 63)" stroke="none" stroke-width="1px">-400</text><text style="text-anchor: end; visibility: inherit; font-family: &quot;Helvetica Neue&quot;, sans-serif; font-size: 12px; font-weight: 200;" x="0" y="104.18333299954732" dx="0em" dy="0.3em" fill="rgb(50, 49, 63)" stroke="none" stroke-width="1px">-350</text><text style="text-anchor: end; visibility: hidden; font-family: &quot;Helvetica Neue&quot;, sans-serif; font-size: 12px; font-weight: 200;" x="0" y="89.2999997138977" dx="0em" dy="0.3em" fill="rgb(50, 49, 63)" stroke="none" stroke-width="1px">-300</text><text style="text-anchor: end; visibility: inherit; font-family: &quot;Helvetica Neue&quot;, sans-serif; font-size: 12px; font-weight: 200;" x="0" y="74.41666642824808" dx="0em" dy="0.3em" fill="rgb(50, 49, 63)" stroke="none" stroke-width="1px">-250</text><text style="text-anchor: end; visibility: hidden; font-family: &quot;Helvetica Neue&quot;, sans-serif; font-size: 12px; font-weight: 200;" x="0" y="59.53333314259848" dx="0em" dy="0.3em" fill="rgb(50, 49, 63)" stroke="none" stroke-width="1px">-200</text><text style="text-anchor: end; visibility: inherit; font-family: &quot;Helvetica Neue&quot;, sans-serif; font-size: 12px; font-weight: 200;" x="0" y="44.64999985694885" dx="0em" dy="0.3em" fill="rgb(50, 49, 63)" stroke="none" stroke-width="1px">-150</text><text style="text-anchor: end; visibility: hidden; font-family: &quot;Helvetica Neue&quot;, sans-serif; font-size: 12px; font-weight: 200;" x="0" y="29.766666571299226" dx="0em" dy="0.3em" fill="rgb(50, 49, 63)" stroke="none" stroke-width="1px">-100</text><text style="text-anchor: end; visibility: inherit; font-family: &quot;Helvetica Neue&quot;, sans-serif; font-size: 12px; font-weight: 200;" x="0" y="14.883333285649627" dx="0em" dy="0.3em" fill="rgb(50, 49, 63)" stroke="none" stroke-width="1px">-50</text><text style="text-anchor: end; visibility: hidden; font-family: &quot;Helvetica Neue&quot;, sans-serif; font-size: 12px; font-weight: 200;" x="0" y="0" dx="0em" dy="0.3em" fill="rgb(50, 49, 63)" stroke="none" stroke-width="1px">0</text></g><line x1="49.98400115966797" y1="0" x2="49.98400115966797" y2="178.5999994277954" fill="rgb(0, 0, 0)" stroke="rgb(204, 204, 204)" stroke-width="1px"></line></g></g><g transform="translate(49, 0)" clip-path="url(#clip_0)"><clipPath id="clip_0"><rect width="280" height="178"></rect></clipPath><g><g><g><line x1="0" y1="0" x2="0" y2="178.5999994277954" fill="rgb(0, 0, 0)" stroke="rgb(60, 60, 60)" stroke-width="1px" opacity="0.25"></line><line x1="23.334666570027668" y1="0" x2="23.334666570027668" y2="178.5999994277954" fill="rgb(0, 0, 0)" stroke="rgb(60, 60, 60)" stroke-width="1px" opacity="0.25"></line><line x1="46.669333140055336" y1="0" x2="46.669333140055336" y2="178.5999994277954" fill="rgb(0, 0, 0)" stroke="rgb(60, 60, 60)" stroke-width="1px" opacity="0.25"></line><line x1="70.00399971008301" y1="0" x2="70.00399971008301" y2="178.5999994277954" fill="rgb(0, 0, 0)" stroke="rgb(60, 60, 60)" stroke-width="1px" opacity="0.25"></line><line x1="93.33866628011067" y1="0" x2="93.33866628011067" y2="178.5999994277954" fill="rgb(0, 0, 0)" stroke="rgb(60, 60, 60)" stroke-width="1px" opacity="0.25"></line><line x1="116.67333285013835" y1="0" x2="116.67333285013835" y2="178.5999994277954" fill="rgb(0, 0, 0)" stroke="rgb(60, 60, 60)" stroke-width="1px" opacity="0.25"></line><line x1="140.00799942016602" y1="0" x2="140.00799942016602" y2="178.5999994277954" fill="rgb(0, 0, 0)" stroke="rgb(60, 60, 60)" stroke-width="1px" opacity="0.25"></line><line x1="163.3426659901937" y1="0" x2="163.3426659901937" y2="178.5999994277954" fill="rgb(0, 0, 0)" stroke="rgb(60, 60, 60)" stroke-width="1px" opacity="0.25"></line><line x1="186.67733256022134" y1="0" x2="186.67733256022134" y2="178.5999994277954" fill="rgb(0, 0, 0)" stroke="rgb(60, 60, 60)" stroke-width="1px" opacity="0.25"></line><line x1="210.01199913024902" y1="0" x2="210.01199913024902" y2="178.5999994277954" fill="rgb(0, 0, 0)" stroke="rgb(60, 60, 60)" stroke-width="1px" opacity="0.25"></line><line x1="233.3466657002767" y1="0" x2="233.3466657002767" y2="178.5999994277954" fill="rgb(0, 0, 0)" stroke="rgb(60, 60, 60)" stroke-width="1px" opacity="0.25"></line><line x1="256.6813322703043" y1="0" x2="256.6813322703043" y2="178.5999994277954" fill="rgb(0, 0, 0)" stroke="rgb(60, 60, 60)" stroke-width="1px" opacity="0.25"></line><line x1="280.01599884033203" y1="0" x2="280.01599884033203" y2="178.5999994277954" fill="rgb(0, 0, 0)" stroke="rgb(60, 60, 60)" stroke-width="1px" opacity="0.25"></line></g><g><line x1="0" y1="178.5999994277954" x2="280.01599884033203" y2="178.5999994277954" fill="rgb(0, 0, 0)" stroke="rgb(60, 60, 60)" stroke-width="1px" opacity="0.25"></line><line x1="0" y1="163.71666614214578" x2="280.01599884033203" y2="163.71666614214578" fill="rgb(0, 0, 0)" stroke="rgb(60, 60, 60)" stroke-width="1px" opacity="0.25"></line><line x1="0" y1="148.83333285649618" x2="280.01599884033203" y2="148.83333285649618" fill="rgb(0, 0, 0)" stroke="rgb(60, 60, 60)" stroke-width="1px" opacity="0.25"></line><line x1="0" y1="133.94999957084656" x2="280.01599884033203" y2="133.94999957084656" fill="rgb(0, 0, 0)" stroke="rgb(60, 60, 60)" stroke-width="1px" opacity="0.25"></line><line x1="0" y1="119.06666628519694" x2="280.01599884033203" y2="119.06666628519694" fill="rgb(0, 0, 0)" stroke="rgb(60, 60, 60)" stroke-width="1px" opacity="0.25"></line><line x1="0" y1="104.18333299954732" x2="280.01599884033203" y2="104.18333299954732" fill="rgb(0, 0, 0)" stroke="rgb(60, 60, 60)" stroke-width="1px" opacity="0.25"></line><line x1="0" y1="89.2999997138977" x2="280.01599884033203" y2="89.2999997138977" fill="rgb(0, 0, 0)" stroke="rgb(60, 60, 60)" stroke-width="1px" opacity="0.25"></line><line x1="0" y1="74.41666642824808" x2="280.01599884033203" y2="74.41666642824808" fill="rgb(0, 0, 0)" stroke="rgb(60, 60, 60)" stroke-width="1px" opacity="0.25"></line><line x1="0" y1="59.53333314259848" x2="280.01599884033203" y2="59.53333314259848" fill="rgb(0, 0, 0)" stroke="rgb(60, 60, 60)" stroke-width="1px" opacity="0.25"></line><line x1="0" y1="44.64999985694885" x2="280.01599884033203" y2="44.64999985694885" fill="rgb(0, 0, 0)" stroke="rgb(60, 60, 60)" stroke-width="1px" opacity="0.25"></line><line x1="0" y1="29.766666571299226" x2="280.01599884033203" y2="29.766666571299226" fill="rgb(0, 0, 0)" stroke="rgb(60, 60, 60)" stroke-width="1px" opacity="0.25"></line><line x1="0" y1="14.883333285649627" x2="280.01599884033203" y2="14.883333285649627" fill="rgb(0, 0, 0)" stroke="rgb(60, 60, 60)" stroke-width="1px" opacity="0.25"></line><line x1="0" y1="0" x2="280.01599884033203" y2="0" fill="rgb(0, 0, 0)" stroke="rgb(60, 60, 60)" stroke-width="1px" opacity="0.25"></line></g></g></g><g><g><line x1="0" y1="0" x2="280.01599884033203" y2="0" fill="rgb(0, 0, 0)" stroke="rgb(153, 153, 153)" stroke-width="1.5px"></line></g></g><g><g><line x1="23.334666570027668" y1="0" x2="23.334666570027668" y2="178.5999994277954" fill="rgb(0, 0, 0)" stroke="rgb(153, 153, 153)" stroke-width="1.5px"></line></g></g><g><g><g><g><g><path style="fill: none;" stroke="rgb(255, 112, 67)" stroke-width="2px" d="M28.510295615259807,207.29433782669614L28.836980947240193,175.92361917298817L29.168333212534588,163.8948019066055L29.509019344456988,190.13994630557806L31.903156134541828,196.25627238340516L32.220507599894205,177.76333169220456L32.56119373181661,182.02720313788376L34.27395825805664,180.54619594504206L34.59130972340902,157.1450496265052L34.88532652219137,136.91289572632854L35.23067958742777,165.25627099010725L35.5900334526062,184.76269585431848L35.9307195845286,198.01441731536562L36.248071049880984,178.46105012549762L36.55142171529134,155.53676320230034L36.86410624732971,147.37832440395383L37.19545851262411,144.38832779401673L37.51280997797648,152.59592980235885L37.84882917658488,166.80769097776326L38.19418224182129,186.52701431312718L38.52553450711568,190.6192750028169L38.82888517252604,149.73436488584372L39.15090357119242,142.22995209671208L39.482255836486814,148.20517105674537L39.79027343521118,134.6447024873802L40.10295796724955,153.41748792655L40.406308632659915,143.84449258994422L40.72366009801229,140.48202871372138L41.03167769673665,120.6045504451832L41.33969529546102,108.43993015151182L41.63837902755737,96.14035799133578L41.93239582633972,116.62221460598167L42.25908115832011,121.64826193136562L42.56709875704447,117.63895701576767L42.87044942245484,134.28404067204232L43.19713475443522,154.03455750119286L43.49115155321757,143.3812676707797L43.79916915194194,131.15502712455725L44.102519817352295,121.08074947226436L44.387202749506635,103.96298291636529L44.68121954828898,116.55312290958382L44.993904080327354,111.12894028042842L45.292587812423704,100.37323072696778L45.59127154452006,102.2544716348552L45.90862300987244,102.07348285045046L46.2119736752828,94.58275627012542L46.50599047406514,87.11165366480047L46.8093411394755,88.93952541472095L47.11269180488587,76.2245151755904L47.43471020355224,85.0267089794692L47.72406006902059,81.49709195669196L48.02741073443095,74.7357217579029L48.33542833315531,76.63223295288932L48.643445931879675,79.67520633044433L48.928128864034015,67.45112373532409L49.21747872950235,78.92920745131308L49.520829394912724,90.81685766488474L49.80084539375306,84.37584783651528L50.09952912584941,75.03417529037453L50.39821285794576,69.42917176269009L50.6875627234141,70.59070296491693L50.96291178894043,56.16615506803299L51.22892698783875,54.893559639584865L51.518276853307086,56.03506904307912L51.81696058540344,57.196241350316484L52.101643517557775,50.74894475754704L52.386326449712115,51.64323345329328L52.66634244855245,56.82340665586369L52.96035924733479,68.38524388365494L53.24504217948914,64.24914625580638L53.54372591158549,67.72082099335708L53.81907497711182,54.44422588509708L54.131759509150186,59.45653544522756L54.42577630793254,63.535521177872624L54.70112537345886,58.957979306633035L54.976474438985186,49.18652087306265L55.25649043782552,45.46684580605398L55.54117336997986,42.2825074355672L55.81652243550619,39.18123775042315L56.105872300974525,40.65434259532228L56.38588829981486,41.895405501117324L56.675238165283204,54.070443207973256L56.95525416412354,46.73026587900759L57.2632717628479,59.11455942784096L57.552621628316246,59.282068913743956L57.83263762715658,51.52417463046277L58.1079866926829,52.108371377042715L58.38333575820923,60.317289399813674L58.66801869036356,55.12197357923452L58.9527016225179,49.50438409489789L59.22805068804423,43.51436374602159L59.51740055351257,52.06515149778588L59.7927496190389,45.05082418775436L60.07276561787923,48.1052944451325L60.37144934997559,74.58477652059511L60.64679841550191,58.56259920143991L60.92214748102823,48.9492928099468L61.21149734649658,49.84904228702197L61.49618027865092,53.72275862925257L61.78086321080525,50.33178845290146L62.060879209645584,46.15400635395727L62.35956294174195,60.912003705944315L62.63491200726828,50.35893551264945L62.91959493942261,48.3134945829396L63.19494400494894,42.79983003884661L63.47029307047526,39.49163131239081L63.745642136001585,37.506712076517346L64.0209912015279,36.315760534993245L64.30100720036825,45.36465624546494L64.58102319920857,44.72159369120291L64.87037306467691,57.07588945116177L65.15038906351725,48.53353362492069L65.4444058622996,73.0557200341901L65.71975492782593,57.64516530959689L66.00443785998026,61.615232432497834L66.2891207921346,60.18713938511209L66.56446985766092,49.92401692015011L66.83981892318725,60.79267671995608L67.12916878865559,63.503739278713354L67.40918478749593,54.05717684944439L67.70320158627828,53.86630604100209L68.02521998494466,87.44765011464743L68.30056905047098,72.11459000584595L68.58058504931132,59.22368728572394L68.86060104815165,58.87127896333298L69.14061704699199,52.82556732192374L69.41596611251832,45.50707368223706L69.68664824473063,44.80704415326622L69.96199731025696,49.38782641986194L70.2513471757253,51.42189578210821L70.53136317456564,52.64233739945597L70.82071304003398,54.92246903157218L71.0960621055603,46.76521470802618L71.37141117108663,41.87086211389854L71.64676023661296,38.93425055742196L71.92677623545329,39.31548361666955L72.20212530097962,37.4010234590846L72.47747436650594,36.25234736453359L72.76215729866028,43.421541682626014L73.04217329750061,45.579858280347906L73.33619009628296,54.37604821494844L73.6255399617513,62.51136216655351L73.90555596059164,53.46175058214847L74.19490582605998,54.22345027833572L74.47492182490032,48.48900344921782L74.75960475705465,86.12633522014004L75.03962075589499,67.63073441430042L75.32430368804933,64.39177390561962L75.59965275357565,69.94959757637857L75.88433568572998,60.067891821177085L76.16435168457032,51.995668374922616L76.43970075009665,45.00913431403643L76.71504981562298,40.81721387750471L76.9903988811493,38.30206161558567L77.26574794667562,36.79297025843425L77.54576394551594,38.03071543727694L77.82111301104227,36.63016255144902L78.0964620765686,35.78983081995227L78.37181114209493,35.28563178105421L78.66582794087728,50.93804563993176L78.9505108730316,51.9948273152945L79.22585993855793,45.00862967825955L79.51054287071227,54.74771105140661L79.79055886955261,48.803559913060354L80.07057486839294,46.78493589176017L80.35059086723327,45.57376147898006L80.64460766601562,62.23079010895073L80.92462366485596,53.29340734758682L81.20463966369628,62.21897764499212L81.47998872922261,51.14311987607813L81.75533779474894,44.4976052147297L82.02601992696125,44.20136307276178L82.3107028591156,50.33415110069646L82.59071885795593,47.70329060434182L82.86606792348226,42.43370765168794L83.14141698900859,39.27195788009561L83.41676605453492,37.3749080171402L83.69678205337524,39.92774475420808L83.97213111890157,37.76838014160768L84.2521471177419,38.615961367181L84.52749618326823,36.981310109391444L84.80284524879455,36.00051935471768L85.07819431432088,35.412044901913475L85.36754417978922,51.37109351130292L85.64289324531555,44.63438939586459L85.91824231084188,40.592366926601585L86.1935913763682,38.167153445043795L86.46894044189453,36.71202535610914L86.74895644073487,45.364281805564076L87.04764017283122,61.986035638615945L87.33232310498556,56.83762132022707L87.6216729704539,69.22723934626933L87.89702203598023,55.34807689684445L88.17237110150656,47.02057942718952L88.44772016703288,42.02408094539655L88.73707003250122,52.12351514769246L89.01241909802755,45.08584237769833L89.28776816355388,40.86323871570181L89.5631172290802,38.32967651850396L89.83846629460653,36.809539200185185L90.11381536013285,35.89745680919398L90.38916442565917,35.35020737459922L90.6645134911855,35.021857713842394L90.94452949002583,36.96804791052182L91.22921242218017,45.99416200335247L91.5045614877065,41.40823049109434L91.79857828648885,67.3517381584719L92.07859428532917,56.36597617729953L92.3539433508555,47.63131899546255L92.62929241638183,42.39052468636038L92.90930841522216,42.93711475574017L93.18465748074848,39.57400214252695L93.46000654627481,37.556134574599014L93.74002254511515,37.77421402926461L94.01537161064148,42.31052835461625L94.29072067616781,63.24951689146238L94.58007054163615,63.31091005362438L94.85541960716247,51.79827932125747L95.1307686726888,44.89070088183732L95.41545160484314,50.7477537861418L95.7094684036255,80.33758544518261L95.9848174691518,62.01428455619242L96.26483346799215,71.49977062385216L96.54018253351848,56.711595663394135L96.8155315990448,47.83869068711934L97.09554759788513,46.20601435619554L97.37089666341146,41.535341902800184L97.64624572893779,38.73293843076297L97.92626172777813,42.766696329230086L98.20161079330444,39.47175108662091L98.48162679214478,39.637983934188924L98.75697585767111,37.5945236495962L99.03699185651143,38.51164747197413L99.31234092203776,36.918721772267304L99.5970238541921,47.03616631696653L99.88170678634644,46.31983306552985L100.16638971850078,48.03323310780141L100.45107265065512,52.63327312172022L100.73108864949545,51.10689714380443L101.00643771502178,44.47587157536549L101.2817867805481,40.49725623430217L101.55713584607443,38.11008702966413L101.83248491160076,36.67778550688132L102.10783397712707,35.81840459321165L102.3831830426534,35.302776045009836L102.65853210817973,34.99339891608875L102.92921424039204,38.49883929357719L103.20456330591837,36.911036865229164L103.4752454381307,39.64942206306142L103.75526143697103,41.292453181760834L104.03061050249735,38.587205198139344L104.30595956802368,36.96405640796647L104.58597556686401,41.70536711555218L104.86132463239034,38.834953558414156L105.13667369791666,37.11270542413132L105.41202276344299,36.07935654356166L105.68737182896932,35.45934721521982L105.96272089449565,35.08734161821474L106.23806996002197,34.864138260011686L106.51808595886232,40.445416226779315L106.79343502438864,38.07898302515045L107.06878408991497,44.04125641385531L107.34413315544128,40.23648713739604L107.61948222096761,46.28829221148425L107.89949821980795,43.72790860910695L108.17484728533427,40.048478454546995L108.4501963508606,37.84082036181104L108.73954621632893,61.16302542720524L109.02889608179728,66.22634849505198L109.3042451473236,53.54754238611403L109.57959421284993,45.940258720751274L109.85494327837625,41.3758885215336L110.13029234390258,38.63726640200301L110.40564140942891,36.994093130284654L110.68565740826924,36.48445583239442L110.96100647379556,35.70240678851948L111.23635553932189,35.23317736219454L111.51170460484822,34.95163970639956L111.80572140363057,49.070717067146234L112.0764035358429,46.94523018421168L112.35175260136923,41.97887139960986L112.62710166689556,38.999056128848764L112.90245073242187,37.21116696639211L113.1777997979482,36.13843346891812L113.45314886347452,35.49479337043371L113.72849792900085,35.10860931134306L114.0085139278412,38.56796553072979L114.28386299336752,36.95251260752073L114.55921205889385,35.98324085359528L114.83456112442018,35.40167780124003L115.1099101899465,35.05273996982686L115.38525925547283,34.84337727097895L115.66060832099913,34.71775965167021L115.93595738652546,34.64238908008497L116.21130645205179,34.59716673713385L116.48665551757811,34.570033331363135L116.77600538304647,61.93908653349604L117.0513544485728,50.97518520918047L117.33137044741312,45.82564441001347L117.61138644625345,47.02231991678039L117.88673551177978,42.025125239151095L118.1620845773061,39.02680843257352L118.43743364283243,37.227818348626954L118.71744964167277,39.839490953100125L118.9927987071991,37.715427860942924L119.26814777272543,36.44099000564859L119.54349683825176,35.676327292471996L119.82817977040608,45.219129632522595L120.10352883593241,40.94321106859641L120.37887790145874,38.377659930240696L120.65422696698506,36.83832924722725L120.92957603251139,35.9147308374192L121.20959203135173,41.075771773223806L121.48960803019206,42.14826300785825L121.76495709571839,39.10069109379779L122.04030616124471,37.272147945361525L122.33432296002707,67.48955528930654L122.6096720255534,54.305466462666786L122.88502109107972,46.3950131666829L123.16037015660605,41.64874118909259L123.43571922213238,38.800978002538415L123.7110682876587,37.09232009060588L123.986417353185,44.40179198341016L124.26176641871133,40.45280847912892L124.53711548423766,38.08341837656022L124.81246454976399,36.66178431501899L125.08781361529032,35.80880387809421L125.36316268081664,35.29701561593936L125.63851174634297,34.98994265864647L125.9138608118693,34.805698884270726L126.18920987739563,34.695152619645285L126.46455894292195,34.628824860870026L126.73990800844828,34.589028205604876L127.01525707397461,34.56515021244576L127.29060613950094,34.55082341655029L127.57528907165528,44.54382730696955L127.8506381371816,40.53802967326459L128.12598720270793,38.13455109304161L128.40133626823425,36.692463944907814L128.6766853337606,35.82721165602754L128.9660351992289,57.097260212890404L129.24138426475525,48.07008941681707L129.51673333028157,42.6537869391731L129.7920823958079,39.404005452586716L130.06743146133422,37.45413656063488L130.35678132680258,41.165948543156844L130.64146425895692,44.3455690629516L130.91681332448323,40.41907472685381L131.19216239000957,38.06317812519512L131.46751145553588,36.64964016419992L131.7428605210622,35.801517387602814L132.03221038653055,55.414910323842804L132.30755945205686,47.060679483388526L132.5829085175832,42.04814097911597L132.85825758310952,39.0406178765524L133.13360664863586,37.23610401501429L133.40895571416218,36.15339569809143L133.68430477968852,35.50377070793769L133.96432077852884,40.829195695534935L134.2396698440552,38.30925070640379L134.5150189095815,36.79728371292512L134.79036797510784,35.89010351683791L135.06105010732014,39.0368620540267L135.3410661061605,37.71011718663965L135.62108210500082,40.12887025590774L135.89643117052714,37.889055442627495L136.17178023605348,36.545166554659346L136.4471293015798,35.73883322187845L136.72247836710613,35.2550332222099L136.99782743263245,34.9647532224088L137.2731764981588,34.79058522252814L137.5485255636851,34.68608442259975L137.82387462921145,34.623383942642675L138.10389062805177,38.27683030950956L138.38390662689207,40.46889812962968L138.6592556924184,38.09307216686065L138.93460475794473,36.66757658919926L139.20995382347107,35.812279242602386L139.4899698223114,37.44230082777784L139.76998582115172,39.96818044059063L140.04533488667806,37.79264155343722L140.32068395220438,36.48731822114519L140.59603301773072,45.348524190870904L140.87138208325703,41.02084780360536L141.14673114878337,38.42424197124609L141.4220802143097,36.8662784718305L141.69742927983603,35.93150037218115L141.97277834536234,35.37063351239152L142.25746127751668,45.035713364474304L142.53281034304302,40.833161307767426L142.81749327519734,59.02923000736757L143.09284234072368,49.22927129350339L143.38219220619203,63.47156266738317L143.65754127171834,51.89467088951275L143.9328903372447,44.94853582279049L144.208239402771,40.78085478275713L144.4835884682973,38.28024615873713L144.75893753382366,36.77988098432513L145.03428659934997,35.87966187967794L145.3096356648763,35.3395304168896L145.59431859703065,47.99371816430306L145.88366846249897,69.87423076697479L146.15901752802532,55.736271749267715L146.44836739349367,69.63802960026048L146.733050325648,72.02575099659633L147.00839939117432,57.027183887040636L147.28374845670066,48.02804362130723L147.55909752222698,42.628559461867184L147.86244818763734,104.75646875677627L148.13779725316365,76.66561454314859L148.41314631869,59.81110201497201L148.6884953842163,49.69839449806605L148.96384444974265,43.63076998792249L149.23919351526897,39.99019528183632L149.5145425807953,37.805850458184636L149.78989164632162,36.495243563993625L150.06524071184796,35.70887942747902L150.34058977737428,35.23706094557025L150.61593884290062,34.953969856425005L150.90528870836894,51.810648481721L151.18530470720927,59.305188998624274L151.4606537727356,49.39484668825742L151.73600283826192,51.78330794200107L152.01135190378827,44.88171805428351L152.2913679026286,44.43183077649405L152.56671696815488,40.47083175497929L152.84673296699523,40.23743233520395L153.13141589914957,39.1448593530572L153.41609883130394,53.13451551684835L153.70078176345828,64.26684253968259L153.97613082898457,52.371838812892406L154.2561468278249,48.92590323165939L154.53149589335123,43.167275228078466L154.80684495887755,39.71209842592995L155.0915278910319,48.11685897773813L155.37621082318623,59.11304862308292L155.65622682202655,54.994762444622026L155.93624282086688,52.523790737545525L156.21159188639322,45.32600773161016L156.48694095191954,41.00733792804894L156.76695695075986,40.559336039045775L157.0423060162862,38.1473349125103L157.32232201512653,40.391200891430145L157.60233801396686,43.761653805630374L157.8870209461212,53.04699219754754L158.16237001164754,45.63992860761138L158.43771907717385,41.19569045364969L158.71773507601418,42.22021421611376L158.99308414154052,39.143861818751105L159.26843320706683,37.29805038033351L159.55311613922117,46.19216348523949L159.82846520474752,41.52703138022653L160.11781507021584,52.42061874001642L160.40249800237018,61.69530448044988L160.67784706789652,59.163582617316564L160.95319613342284,49.30988285947279L161.22854519894918,43.397663004766514L161.5038942644755,39.85033109194276L161.77924333000183,37.721931944248496L162.05459239552815,36.44489245563193L162.3299414610545,35.678668762461996L162.6052905265808,35.218934546560035L162.89464039204915,62.20936059632898L163.16998945757547,51.137349646880224L163.4453385231018,44.494143077210964L163.73468838857013,72.65621903241261L164.01937132072447,78.71839797358066L164.29472038625082,61.042772073231234L164.58407025171917,82.58539643002477L164.85941931724548,63.362971147097696L165.1347683827718,51.82951597734147L165.41478438161215,50.62464285717719L165.69013344713846,44.18651900338915L165.9654825126648,40.32364469111633L166.26416624476116,58.48538670480653L166.53951531028747,48.90296531196674L166.8148643758138,43.153512476262904L167.11354810791016,68.99424068099904L167.38889717343648,55.20827769768228L167.66424623896282,46.9366999076922L167.93959530448913,41.973753233698176L168.21494437001547,38.99598522930174L168.4902934355418,37.2093244266639L168.76564250106813,36.13732794508118L169.04099156659444,35.49413005613158L169.31634063212078,35.108211322761775L169.5916896976471,34.8766600827399L169.87637262980144,42.119862648409L170.15172169532775,39.08365087812825L170.4270707608541,37.26192381595979L170.7024198263804,36.16888757865871L170.97776889190675,35.51306583627809L171.25311795743306,35.1195727908497L171.5284670229594,34.88347696359267L171.81314995511374,51.173019414595615L172.08849902064006,44.51554493784022L172.3638480861664,40.52106025178696L172.65319795163472,65.39063601946512L172.92854701716107,53.046114900761935L173.2085630160014,47.78260222267352L173.48391208152773,42.48129462268699L173.75926114705405,39.300510062695025L174.0346102125804,37.39203932669986L174.3099592781067,36.246956885102776L174.58997527694703,39.250974074985606L174.86532434247334,45.69698437403801L175.14067340799966,41.22992391350567L175.42068940683998,42.24075429202733L175.69603847236633,39.15618586429926L175.97138753789264,37.30544480766238L176.24673660341898,36.19500017368031L176.5220856689453,35.52873339329102L176.79743473447164,35.12897332505747L177.07278379999795,34.88911728411733L177.3481328655243,34.745203659553226L177.6234819310506,34.65885548481478L177.90349792989093,38.2981132348128L178.17884699541727,36.79060122997055L178.4541960609436,35.886094027065184L178.72954512646993,35.343389705321954L179.00489419199624,35.01776711227603L179.2849101908366,38.513460211289555L179.5602592563629,36.91980941585658L179.83560832188923,35.963618938596795L180.12495818735758,49.08257127503856L180.4049741861979,48.97647603579543L180.68032325172425,43.197618910560095L180.95567231725056,39.73030463541892L181.2543560493469,71.94111596047091L181.53437204818727,62.69160284705485L181.80972111371358,51.426694997315764L182.08507017923992,44.6677502874723L182.36975311139423,56.924516742638204L182.64510217692057,47.96644333466577L182.9204512424469,42.59159928988228L183.20046724128724,43.05775951785333L183.47581630681356,39.64638899979485L183.7511653723399,37.599566688959754L184.0265144378662,36.371473302458696L184.30186350339255,35.63461727055807L184.58187950223288,38.883570306258775L184.8572285677592,37.14187547283814L185.13257763328554,36.09685857278569L185.41259363212586,39.160915087595384L185.68794269765218,37.30828234164008L185.96329176317852,36.196702694066886L186.23864082870483,35.52975490552299L186.51398989423117,35.12958623239663L186.7893389597575,34.889485028520824L187.06468802528383,34.74542430619536L187.34003709081014,34.658987872800054L187.61538615633648,34.607126012762876L187.8907352218628,34.576008896740575L188.17075122070312,38.2484052819683L188.44610028622947,36.76077645826382L188.72144935175578,35.86819916404116L188.99679841728212,35.33265278750753L189.27681441612245,38.702391616428486L189.5521634816488,37.033168258939924L189.82751254717508,36.03163424444679L190.1028616127014,35.43071383575091L190.38287761154174,50.1916282087534L190.66289361038207,47.617776869176L190.9522434758504,69.64866598989853L191.22759254137674,55.60093288302198L191.50760854021706,50.863359673737136L191.7829576057434,44.32974909332512L192.05830667126972,40.4095827450779L192.33365573679606,38.05748293612959L192.60900480232237,36.6462230507606L192.88435386784872,35.7994671195392L193.15970293337503,35.291413560806376L193.43505199890137,34.98658142556667L193.71040106442769,34.80368214442285L193.985750129954,34.69394257573657L194.26109919548034,34.62809883452479L194.54111519432067,40.30379257148718L194.816464259847,37.99400883197515L195.09181332537332,36.608138588267934L195.36716239089967,35.776616442043604L195.64251145642598,35.277703154308995L195.93186132189433,59.26795510384842L196.20721038742064,49.372506351391905L196.48722638626097,49.150437081607436L196.7625754517873,43.30199553804732L197.04259145062764,43.48399726675234L197.32260744946797,45.617331630823685L197.5979565149943,41.18213226757706L197.87797251383464,42.212079304470166L198.15332157936095,39.13898087176494L198.4333375782013,40.986188466982924L198.70868664372762,38.40344636927259L198.98403570925396,36.8538011106464L199.25938477478027,35.924013955470684L199.5440677069346,45.3677416303218L199.81941677246095,41.03237826727593L200.10409970461527,51.40942687453486L200.3794487701416,44.65738941380377L200.65479783566792,40.60616693736512L200.94414770113627,53.89223340114792L201.21949676666262,46.14707332977159L201.49951276550294,45.191043941786916L201.77486183102926,40.92635965415499L202.0502108965556,38.367549081575845L202.3255599620819,36.832262738028334L202.60090902760825,35.91109093189985L202.87625809313457,35.358387848222776L203.1516071586609,35.026765998016515L203.42695622418722,43.16245952785653L203.70230528971356,39.709209005796765L203.97765435523988,37.63725869256089L204.25300342076622,36.39408850461939L204.52835248629253,35.648186391854466L204.80370155181888,35.200645124195546L205.1070522172292,52.196786974953724L205.38240128275555,45.129805474055075L205.65775034828187,40.889616573515895L205.9330994138082,38.345503233192375L206.20844847933452,36.819035228998274L206.48379754486086,35.90315442648182L206.75914661038715,35.35362594497195L207.0344956759135,35.023908856066015L207.3098447414398,34.82607860272245L207.58519380696615,34.7073804507163L207.87454367243447,50.35296150915863L208.1498927379608,44.02351019457802L208.43457567011515,46.06010605380433L208.71459166895548,42.876596916787776L208.9899407344818,39.53769143915551L209.26528980000813,37.53434815257617L209.54530579884846,40.02340883546964L209.82065486437477,37.82577859036465L210.09600392990112,36.50720044330163L210.37135299542743,35.71605355506381L210.64670206095377,35.241365422121135L210.92205112648008,34.956552542355524L211.19740019200643,34.78566481449616L211.47274925753274,34.68313217778055L211.74809832305908,34.621612595751174L212.0234473885854,34.584700846533536L212.29879645411174,34.56255379700298L212.57414551963805,34.549265567284635L212.8588284517924,62.40289254018971L213.13417751731873,51.25346881319669L213.40952658284505,44.56381457700087L213.6848756483714,40.55002203528335L213.9602247138977,38.14174651025286L214.25890844599405,115.28078094346455L214.5342575115204,82.98020185516155L214.8096065770467,63.59985440217979L215.08495564257305,51.97164593039071L215.36030470809936,44.99472084731727L215.6356537736257,40.80856579747322L215.91100283915202,38.29687276756678L216.18635190467836,36.7898569496229L216.46170097020467,35.885647458856596L216.73705003573102,35.343121764396784L217.01239910125733,35.017606347720914L217.29708203341167,42.20443040739764L217.57243109893798,39.13439153352141L217.84778016446433,37.2923682091957L218.12312922999064,36.18715421460027L218.39847829551698,35.52402581784301L218.6738273610433,35.12614877978865L218.94917642656964,34.88742255695604L219.22452549209595,34.744186823256456L219.4998745576223,34.65824538303673L219.7752236231486,34.60668051890488L220.05057268867495,34.57574160042577L220.33058868751527,38.248244904179415L220.6059377530416,36.7606802315905L220.88128681856793,35.86814142803715L221.15663588409421,35.332618145905144L221.44131881624855,44.41757081315649L221.7166678817749,40.462275776976725L221.9920169473012,38.08909875526888L222.26736601282755,36.66519254224417L222.54271507835387,35.810848814429335L222.8180641438802,35.29824257774047L223.09341320940652,34.990678835727124L223.38276307487487,54.9284071927174L223.6581121404012,46.76877760471328L223.93346120592753,41.87299985191083L224.20881027145384,38.935533200229344L224.48415933698018,37.173053209220456L224.7595084025065,36.11556521461512L225.03952440134682,39.17213907269303L225.31487346687317,37.315016732698666L225.59022253239948,36.20074332870203L225.86557159792582,35.532179286304086L226.14092066345214,43.46570750082907L226.4209366622925,45.60635777126976L226.6962857278188,41.17554795184469L226.97163479334512,38.51706206018969L227.24698385887146,36.92197052519663L227.5316667910258,52.39611555155801L227.8070158565521,45.24940262001766L228.08236492207845,40.96137486109345L228.35771398760477,38.38855820573892L228.64706385307312,61.848868132417536L228.92241291859943,50.92105416853336L229.2117627840678,71.63063236951297L229.48711184959413,65.12477935075441L229.76246091512044,52.886600899535495L230.03780998064678,45.54369382880415L230.3131590461731,41.13794958636532L230.5885081116994,38.49450304090206L230.87319104385375,53.33963506098124L231.1485401093801,45.815514325671586L231.4238891749064,41.30104188448581L231.69923824043275,38.592358419774314L231.97458730595906,36.96714834094743L232.2499363714854,35.9920222936513L232.52528543701172,35.40694666527364L232.80996836916606,48.03416791333348L233.08998436800638,48.34743401877239L233.36533343353273,42.820193700346294L233.64068249905904,39.50384950929063L233.91603156458538,37.51404299465722L234.20071449673972,52.751359033234365L234.47606356226603,45.46254870902345L234.75141262779238,41.08926251449694L235.0267616933187,38.465290797780995L235.30677769215902,42.606107749440895L235.58212675768536,39.3753979387474L235.85747582321167,45.771638692295056L236.132824888738,41.27471650445986L236.40817395426433,38.576563191758765L236.68818995310468,39.10087119727163L236.96353901863097,37.27225600744583L237.23888808415728,36.17508689355034L237.51423714968362,35.516785425213044L237.78958621520994,35.121804544210676L238.06493528073628,34.88481601560923L238.3402843462626,34.74262289844839L238.61563341178893,34.65730702815188L238.89564941062926,38.29718416081508L239.1709984761556,36.790043785571896L239.44634754168192,35.88575956042598L239.72169660720823,35.34318902533843L240.00637953936257,45.019246672242446L240.2817286048889,40.823281292428334L240.55707767041523,38.305702064539844L240.83242673594157,36.795154527806744L241.10777580146788,35.8888260057669L241.38312486699422,35.345028892542985L241.65847393252054,35.01875062460863L241.93382299804688,34.82298366384802L242.2091720635732,34.705523487391645L242.48452112909953,34.635047381517836L242.75987019462585,34.59276171799354L243.0352192601522,34.567390319878996L243.3105683256785,34.55216748101023L243.59058432451883,38.234100432530084L243.86593339004517,36.7521935486009L244.14128245557148,35.863049418243406L244.41663152109783,35.32956294002889L244.69198058662414,35.00947105310016L244.96732965215048,34.81741592094295L245.2426787176768,34.702182841648636L245.51802778320314,42.9677096340358L245.79337684872945,39.59235906950431L246.0687259142558,37.56714873078545L246.3440749797821,36.35202252755411L246.61942404530845,35.6229468056153L246.89477311083476,35.18550137245202L247.1701221763611,34.92303411255406L247.44547124188742,34.765553756615276L247.72082030741376,34.67106554305201L247.99616937294007,34.61437261491403L248.27151843846642,34.58035685803128L248.55620137062076,47.53821402898808L248.83621736946108,48.04986168816515L249.12090030161542,52.64325026993848L249.40558323376976,67.30595004752216L249.68093229929607,54.19530331759614L249.95628136482242,46.32891527964054L250.2316304303487,41.609082456867185L250.50697949587502,38.77718276320314L250.78232856140136,37.07804294700475L251.0763453601837,82.6136255747977L251.35169442571004,63.37990863396146L251.62704349123635,51.83967846945973L251.9023925567627,44.91554037075866L252.177741622289,40.76105751153804L252.45309068781535,38.26836779600569L252.72843975334166,36.77275396668625L253.003788818868,35.875385669094584L253.27913788439432,35.33696469053959L253.55448694992066,35.0139121034066L253.83450294876098,36.96328054426036L254.1098520142873,35.98970161563906L254.38520107981364,35.40555425846628L254.66521707865397,38.74613249900372L254.94056614418028,37.059412788485076L255.21591520970662,36.04738096217389L255.49126427523294,35.44016186638717L255.77594720738728,48.054097034001614L256.0512962729136,42.64419150948382L256.3313122717539,43.089314849614254L256.6066613372803,39.665322198851385L256.8820104028066,37.6109266083937L257.1620264016469,40.069355908960176L257.43737546717324,37.85334683445893" fill="none"></path></g></g></g></g><g opacity="0.2"><g><g><g><path style="fill: none;" stroke="rgb(255, 112, 67)" stroke-width="2px" d="M26.158161225001017,357.7953321870168L26.480179623667397,176.51633276780447L26.81153188896179,180.68366608778635L27.833590284729006,344.6979988956451L28.164942550023397,165.50266613642376L28.510295615259807,165.50266613642376L28.836980947240193,128.8896662537257L29.168333212534588,145.85666619936626L29.509019344456988,229.5009992647171L30.535744673538208,215.21299931049347L30.89976547203064,154.19133283933004L31.231117737325032,161.63299948215484L31.571803869247436,210.4503326590856L31.903156134541828,195.26933270772298L32.220507599894205,150.02399951934814L32.56119373181661,188.42299939632414L33.28456839548747,231.28699925899505L33.620587594095866,173.53966611067455L33.96127372601827,262.83966582457225L34.27395825805664,111.62499964237213L34.59130972340902,122.04333294232686L34.88532652219137,106.56466632525127L35.23067958742777,207.77133266766867L35.9307195845286,217.8919993019104L36.248071049880984,149.13099952220915L36.55142171529134,121.1503329451879L36.86410624732971,135.14066623369854L37.19545851262411,139.9033328851064L37.51280997797648,164.90733280499776L37.84882917658488,188.12533273061118L38.52553450711568,196.75766603628796L38.82888517252604,88.40699971675873L39.15090357119242,130.97333291371663L39.482255836486814,157.16799949645997L39.79027343521118,114.30399963378906L40.10295796724955,181.57666608492534L40.406308632659915,129.48499958515168L40.72366009801229,135.43833289941153L41.03167769673665,90.78833304246267L41.33969529546102,90.19299971103668L41.63837902755737,77.69099975109101L41.93239582633972,147.3449995279312L42.25908115832011,129.1873329194387L42.56709875704447,111.62499964237213L42.87044942245484,159.2516661564509L43.19713475443522,183.66033274491627L43.49115155321757,127.40133292516072L43.79916915194194,112.8156663052241L44.102519817352295,105.96933299382528L44.387202749506635,78.28633308251699L44.68121954828898,135.43833289941153L44.993904080327354,102.99266633669535L45.292587812423704,84.23966639677684L45.59127154452006,105.0763329966863L45.90862300987244,101.80199967384338L46.2119736752828,83.34666639963785L46.50599047406514,75.90499975681306L46.8093411394755,91.68133303960164L47.11269180488587,57.15199981689452L47.43471020355224,98.22999968528747L47.72406006902059,76.20266642252604L48.02741073443095,64.59366645971934L48.33542833315531,79.47699974536894L48.643445931879675,84.23966639677684L48.928128864034015,49.114999842643755L49.21747872950235,96.14633302529653L49.520829394912724,108.6483329852422L49.80084539375306,74.71433309396107L50.09952912584941,61.02166647116343L50.39821285794576,61.02166647116343L50.6875627234141,72.33299976825714L50.96291178894043,34.52933322270712L51.22892698783875,52.98466649691264L51.518276853307086,57.74733314832052L51.81696058540344,58.937999811172475L52.101643517557775,41.077999868392936L52.386326449712115,52.98466649691264L52.66634244855245,64.59366645971934L52.96035924733479,85.72799972534179L53.24504217948914,58.0449998140335L53.54372591158549,72.92833309968313L53.81907497711182,34.52933322270712L54.131759509150186,66.97499978542328L54.42577630793254,69.65399977684021L54.70112537345886,52.09166649977365L54.976474438985186,34.52933322270712L55.25649043782552,39.88733320554098L55.54117336997986,37.50599987983702L55.81652243550619,34.52933322270712L56.105872300974525,42.86399986267091L56.38588829981486,43.756999859809866L56.675238165283204,72.33299976825714L56.95525416412354,35.719999885559076L57.2632717628479,77.69099975109101L57.552621628316246,59.53333314259848L57.83263762715658,39.88733320554098L58.1079866926829,52.98466649691264L58.38333575820923,72.63066643397012L58.66801869036356,47.32899984836578L58.9527016225179,41.077999868392936L59.22805068804423,34.52933322270712L59.51740055351257,64.89133312543233L59.7927496190389,34.52933322270712L60.07276561787923,52.68699983119966L60.37144934997559,114.30399963378906L60.64679841550191,34.52933322270712L60.92214748102823,34.52933322270712L61.21149734649658,51.19866650263468L61.49618027865092,59.53333314259848L61.78086321080525,45.24533318837484L62.060879209645584,39.88733320554098L62.35956294174195,83.04899973392486L62.63491200726828,34.52933322270712L62.91959493942261,45.24533318837484L63.19494400494894,34.52933322270712L63.47029307047526,34.52933322270712L63.745642136001585,34.52933322270712L64.0209912015279,34.52933322270712L64.30100720036825,58.937999811172475L64.58102319920857,43.756999859809866L64.87037306467691,75.60733309110006L65.15038906351725,35.719999885559076L65.4444058622996,109.83899964809417L65.71975492782593,34.52933322270712L66.00443785998026,67.57033311684926L66.2891207921346,58.0449998140335L66.56446985766092,34.52933322270712L66.83981892318725,77.09566641966501L67.12916878865559,67.57033311684926L67.40918478749593,39.88733320554098L67.70320158627828,53.57999982833863L68.02521998494466,137.81966622511544L68.30056905047098,49.114999842643755L68.58058504931132,39.88733320554098L68.86060104815165,58.3426664797465L69.14061704699199,43.756999859809866L69.41596611251832,34.52933322270712L69.68664824473063,43.756999859809866L69.96199731025696,56.258999819755545L70.2513471757253,54.472999825477615L70.53136317456564,54.472999825477615L70.82071304003398,58.3426664797465L71.0960621055603,34.52933322270712L71.37141117108663,34.52933322270712L71.64676023661296,34.52933322270712L71.92677623545329,39.88733320554098L72.20212530097962,34.52933322270712L72.47747436650594,34.52933322270712L72.76215729866028,54.175333159764605L73.04217329750061,48.81733317693073L73.33619009628296,67.57033311684926L73.6255399617513,74.71433309396107L73.90555596059164,39.88733320554098L74.19490582605998,55.36599982261659L74.47492182490032,39.88733320554098L74.75960475705465,142.58233287652334L75.03962075589499,39.88733320554098L75.32430368804933,59.53333314259848L75.59965275357565,78.28633308251699L75.88433568572998,45.24533318837484L76.16435168457032,39.88733320554098L76.43970075009665,34.52933322270712L76.71504981562298,34.52933322270712L76.9903988811493,34.52933322270712L77.26574794667562,34.52933322270712L77.54576394551594,39.88733320554098L77.82111301104227,34.52933322270712L78.0964620765686,34.52933322270712L78.37181114209493,34.52933322270712L78.66582794087728,74.41666642824808L78.9505108730316,53.57999982833863L79.22585993855793,34.52933322270712L79.51054287071227,69.35633311112721L79.79055886955261,39.88733320554098L80.07057486839294,43.756999859809866L80.35059086723327,43.756999859809866L80.64460766601562,87.21633305390675L80.92462366485596,39.88733320554098L81.20463966369628,75.60733309110006L81.47998872922261,34.52933322270712L81.75533779474894,34.52933322270712L82.02601992696125,43.756999859809866L82.3107028591156,59.53333314259848L82.59071885795593,43.756999859809866L82.86606792348226,34.52933322270712L83.14141698900859,34.52933322270712L83.41676605453492,34.52933322270712L83.69678205337524,43.756999859809866L83.97213111890157,34.52933322270712L84.2521471177419,39.88733320554098L84.52749618326823,34.52933322270712L84.80284524879455,34.52933322270712L85.07819431432088,34.52933322270712L85.36754417978922,75.30966642538706L85.64289324531555,34.52933322270712L85.91824231084188,34.52933322270712L86.1935913763682,34.52933322270712L86.46894044189453,34.52933322270712L86.74895644073487,58.3426664797465L87.04764017283122,86.91866638819377L87.33232310498556,49.114999842643755L87.6216729704539,87.81166638533274L87.89702203598023,34.52933322270712L88.17237110150656,34.52933322270712L88.44772016703288,34.52933322270712L88.73707003250122,67.27266645113627L89.01241909802755,34.52933322270712L89.28776816355388,34.52933322270712L89.5631172290802,34.52933322270712L89.83846629460653,34.52933322270712L90.11381536013285,34.52933322270712L90.38916442565917,34.52933322270712L90.6645134911855,34.52933322270712L90.94452949002583,39.88733320554098L91.22921242218017,59.53333314259848L91.5045614877065,34.52933322270712L91.79857828648885,106.26699965953827L92.07859428532917,39.88733320554098L92.3539433508555,34.52933322270712L92.62929241638183,34.52933322270712L92.90930841522216,43.756999859809866L93.18465748074848,34.52933322270712L93.46000654627481,34.52933322270712L93.74002254511515,38.10133321126304L94.01537161064148,49.114999842643755L94.29072067616781,94.65799969673157L94.58007054163615,63.40299979686736L94.85541960716247,34.52933322270712L95.1307686726888,34.52933322270712L95.41545160484314,59.53333314259848L95.7094684036255,124.72233293374379L95.9848174691518,34.52933322270712L96.26483346799215,85.72799972534179L96.54018253351848,34.52933322270712L96.8155315990448,34.52933322270712L97.09554759788513,43.756999859809866L97.37089666341146,34.52933322270712L97.64624572893779,34.52933322270712L97.92626172777813,48.81733317693073L98.20161079330444,34.52933322270712L98.48162679214478,39.88733320554098L98.75697585767111,34.52933322270712L99.03699185651143,39.88733320554098L99.31234092203776,34.52933322270712L99.5970238541921,62.21233313401541L99.88170678634644,45.24533318837484L100.16638971850078,50.6033331712087L100.45107265065512,59.53333314259848L100.73108864949545,48.81733317693073L101.00643771502178,34.52933322270712L101.2817867805481,34.52933322270712L101.55713584607443,34.52933322270712L101.83248491160076,34.52933322270712L102.10783397712707,34.52933322270712L102.3831830426534,34.52933322270712L102.65853210817973,34.52933322270712L102.92921424039204,43.756999859809866L103.20456330591837,34.52933322270712L103.4752454381307,43.756999859809866L103.75526143697103,43.756999859809866L104.03061050249735,34.52933322270712L104.30595956802368,34.52933322270712L104.58597556686401,48.81733317693073L104.86132463239034,34.52933322270712L105.13667369791666,34.52933322270712L105.41202276344299,34.52933322270712L105.68737182896932,34.52933322270712L105.96272089449565,34.52933322270712L106.23806996002197,34.52933322270712L106.51808595886232,48.81733317693073L106.79343502438864,34.52933322270712L107.06878408991497,52.98466649691264L107.34413315544128,34.52933322270712L107.61948222096761,55.36599982261659L107.89949821980795,39.88733320554098L108.17484728533427,34.52933322270712L108.4501963508606,34.52933322270712L108.73954621632893,96.14633302529653L109.02889608179728,73.8213330968221L109.3042451473236,34.52933322270712L109.57959421284993,34.52933322270712L109.85494327837625,34.52933322270712L110.13029234390258,34.52933322270712L110.40564140942891,34.52933322270712L110.68565740826924,35.719999885559076L110.96100647379556,34.52933322270712L111.23635553932189,34.52933322270712L111.51170460484822,34.52933322270712L111.80572140363057,70.24933310826619L112.0764035358429,43.756999859809866L112.35175260136923,34.52933322270712L112.62710166689556,34.52933322270712L112.90245073242187,34.52933322270712L113.1777997979482,34.52933322270712L113.45314886347452,34.52933322270712L113.72849792900085,34.52933322270712L114.0085139278412,43.756999859809866L114.28386299336752,34.52933322270712L114.55921205889385,34.52933322270712L114.83456112442018,34.52933322270712L115.1099101899465,34.52933322270712L115.38525925547283,34.52933322270712L115.66060832099913,34.52933322270712L115.93595738652546,34.52933322270712L116.21130645205179,34.52933322270712L116.48665551757811,34.52933322270712L116.77600538304647,102.99266633669535L117.0513544485728,34.52933322270712L117.33137044741312,38.10133321126304L117.61138644625345,48.81733317693073L117.88673551177978,34.52933322270712L118.1620845773061,34.52933322270712L118.43743364283243,34.52933322270712L118.71744964167277,43.756999859809866L118.9927987071991,34.52933322270712L119.26814777272543,34.52933322270712L119.54349683825176,34.52933322270712L119.82817977040608,59.53333314259848L120.10352883593241,34.52933322270712L120.37887790145874,34.52933322270712L120.65422696698506,34.52933322270712L120.92957603251139,34.52933322270712L121.20959203135173,48.81733317693073L121.48960803019206,43.756999859809866L121.76495709571839,34.52933322270712L122.04030616124471,34.52933322270712L122.33432296002707,112.8156663052241L122.6096720255534,34.52933322270712L122.88502109107972,34.52933322270712L123.16037015660605,34.52933322270712L123.43571922213238,34.52933322270712L123.7110682876587,34.52933322270712L123.986417353185,55.36599982261659L124.26176641871133,34.52933322270712L124.53711548423766,34.52933322270712L124.81246454976399,34.52933322270712L125.08781361529032,34.52933322270712L125.36316268081664,34.52933322270712L125.63851174634297,34.52933322270712L125.9138608118693,34.52933322270712L126.18920987739563,34.52933322270712L126.46455894292195,34.52933322270712L126.73990800844828,34.52933322270712L127.01525707397461,34.52933322270712L127.29060613950094,34.52933322270712L127.57528907165528,59.53333314259848L127.8506381371816,34.52933322270712L128.12598720270793,34.52933322270712L128.40133626823425,34.52933322270712L128.6766853337606,34.52933322270712L128.9660351992289,89.00233304818471L129.24138426475525,34.52933322270712L129.51673333028157,34.52933322270712L129.7920823958079,34.52933322270712L130.06743146133422,34.52933322270712L130.35678132680258,46.73366651693982L130.64146425895692,49.114999842643755L130.91681332448323,34.52933322270712L131.19216239000957,34.52933322270712L131.46751145553588,34.52933322270712L131.7428605210622,34.52933322270712L132.03221038653055,84.83499972820282L132.30755945205686,34.52933322270712L132.5829085175832,34.52933322270712L132.85825758310952,34.52933322270712L133.13360664863586,34.52933322270712L133.40895571416218,34.52933322270712L133.68430477968852,34.52933322270712L133.96432077852884,48.81733317693073L134.2396698440552,34.52933322270712L134.5150189095815,34.52933322270712L134.79036797510784,34.52933322270712L135.06105010732014,43.756999859809866L135.3410661061605,35.719999885559076L135.62108210500082,43.756999859809866L135.89643117052714,34.52933322270712L136.17178023605348,34.52933322270712L136.4471293015798,34.52933322270712L136.72247836710613,34.52933322270712L136.99782743263245,34.52933322270712L137.2731764981588,34.52933322270712L137.5485255636851,34.52933322270712L137.82387462921145,34.52933322270712L138.10389062805177,43.756999859809866L138.38390662689207,43.756999859809866L138.6592556924184,34.52933322270712L138.93460475794473,34.52933322270712L139.20995382347107,34.52933322270712L139.4899698223114,39.88733320554098L139.76998582115172,43.756999859809866L140.04533488667806,34.52933322270712L140.32068395220438,34.52933322270712L140.59603301773072,58.64033314545949L140.87138208325703,34.52933322270712L141.14673114878337,34.52933322270712L141.4220802143097,34.52933322270712L141.69742927983603,34.52933322270712L141.97277834536234,34.52933322270712L142.25746127751668,59.53333314259848L142.53281034304302,34.52933322270712L142.81749327519734,86.32333305676777L143.09284234072368,34.52933322270712L143.38219220619203,84.83499972820282L143.65754127171834,34.52933322270712L143.9328903372447,34.52933322270712L144.208239402771,34.52933322270712L144.4835884682973,34.52933322270712L144.75893753382366,34.52933322270712L145.03428659934997,34.52933322270712L145.3096356648763,34.52933322270712L145.59431859703065,66.97499978542328L145.88366846249897,102.69499967098237L146.15901752802532,34.52933322270712L146.44836739349367,90.49066637674967L146.733050325648,75.60733309110006L147.00839939117432,34.52933322270712L147.28374845670066,34.52933322270712L147.55909752222698,34.52933322270712L147.86244818763734,197.9483326991399L148.13779725316365,34.52933322270712L148.41314631869,34.52933322270712L148.6884953842163,34.52933322270712L148.96384444974265,34.52933322270712L149.23919351526897,34.52933322270712L149.5145425807953,34.52933322270712L149.78989164632162,34.52933322270712L150.06524071184796,34.52933322270712L150.34058977737428,34.52933322270712L150.61593884290062,34.52933322270712L150.90528870836894,77.09566641966501L151.18530470720927,70.5469997739792L151.4606537727356,34.52933322270712L151.73600283826192,55.36599982261659L152.01135190378827,34.52933322270712L152.2913679026286,43.756999859809866L152.56671696815488,34.52933322270712L152.84673296699523,39.88733320554098L153.13141589914957,37.50599987983702L153.41609883130394,74.1189997625351L153.70078176345828,80.96533307393392L153.97613082898457,34.52933322270712L154.2561468278249,43.756999859809866L154.53149589335123,34.52933322270712L154.80684495887755,34.52933322270712L155.0915278910319,60.72399980545043L155.37621082318623,75.60733309110006L155.65622682202655,48.81733317693073L155.93624282086688,48.81733317693073L156.21159188639322,34.52933322270712L156.48694095191954,34.52933322270712L156.76695695075986,39.88733320554098L157.0423060162862,34.52933322270712L157.32232201512653,43.756999859809866L157.60233801396686,48.81733317693073L157.8870209461212,66.97499978542328L158.16237001164754,34.52933322270712L158.43771907717385,34.52933322270712L158.71773507601418,43.756999859809866L158.99308414154052,34.52933322270712L159.26843320706683,34.52933322270712L159.55311613922117,59.53333314259848L159.82846520474752,34.52933322270712L160.11781507021584,68.76099977970124L160.40249800237018,75.60733309110006L160.67784706789652,55.36599982261659L160.95319613342284,34.52933322270712L161.22854519894918,34.52933322270712L161.5038942644755,34.52933322270712L161.77924333000183,34.52933322270712L162.05459239552815,34.52933322270712L162.3299414610545,34.52933322270712L162.6052905265808,34.52933322270712L162.89464039204915,102.69499967098237L163.16998945757547,34.52933322270712L163.4453385231018,34.52933322270712L163.73468838857013,114.89933296521505L164.01937132072447,87.81166638533274L164.29472038625082,34.52933322270712L164.58407025171917,114.89933296521505L164.85941931724548,34.52933322270712L165.1347683827718,34.52933322270712L165.41478438161215,48.81733317693073L165.69013344713846,34.52933322270712L165.9654825126648,34.52933322270712L166.26416624476116,85.72799972534179L166.53951531028747,34.52933322270712L166.8148643758138,34.52933322270712L167.11354810791016,107.75533298810323L167.38889717343648,34.52933322270712L167.66424623896282,34.52933322270712L167.93959530448913,34.52933322270712L168.21494437001547,34.52933322270712L168.4902934355418,34.52933322270712L168.76564250106813,34.52933322270712L169.04099156659444,34.52933322270712L169.31634063212078,34.52933322270712L169.5916896976471,34.52933322270712L169.87637262980144,52.98466649691264L170.15172169532775,34.52933322270712L170.4270707608541,34.52933322270712L170.7024198263804,34.52933322270712L170.97776889190675,34.52933322270712L171.25311795743306,34.52933322270712L171.5284670229594,34.52933322270712L171.81314995511374,75.60733309110006L172.08849902064006,34.52933322270712L172.3638480861664,34.52933322270712L172.65319795163472,102.69499967098237L172.92854701716107,34.52933322270712L173.2085630160014,39.88733320554098L173.48391208152773,34.52933322270712L173.75926114705405,34.52933322270712L174.0346102125804,34.52933322270712L174.3099592781067,34.52933322270712L174.58997527694703,43.756999859809866L174.86532434247334,55.36599982261659L175.14067340799966,34.52933322270712L175.42068940683998,43.756999859809866L175.69603847236633,34.52933322270712L175.97138753789264,34.52933322270712L176.24673660341898,34.52933322270712L176.5220856689453,34.52933322270712L176.79743473447164,34.52933322270712L177.07278379999795,34.52933322270712L177.3481328655243,34.52933322270712L177.6234819310506,34.52933322270712L177.90349792989093,43.756999859809866L178.17884699541727,34.52933322270712L178.4541960609436,34.52933322270712L178.72954512646993,34.52933322270712L179.00489419199624,34.52933322270712L179.2849101908366,43.756999859809866L179.5602592563629,34.52933322270712L179.83560832188923,34.52933322270712L180.12495818735758,68.76099977970124L180.4049741861979,48.81733317693073L180.68032325172425,34.52933322270712L180.95567231725056,34.52933322270712L181.2543560493469,120.25733294804891L181.53437204818727,48.81733317693073L181.80972111371358,34.52933322270712L182.08507017923992,34.52933322270712L182.36975311139423,75.30966642538706L182.64510217692057,34.52933322270712L182.9204512424469,34.52933322270712L183.20046724128724,43.756999859809866L183.47581630681356,34.52933322270712L183.7511653723399,34.52933322270712L184.0265144378662,34.52933322270712L184.30186350339255,34.52933322270712L184.58187950223288,43.756999859809866L184.8572285677592,34.52933322270712L185.13257763328554,34.52933322270712L185.41259363212586,43.756999859809866L185.68794269765218,34.52933322270712L185.96329176317852,34.52933322270712L186.23864082870483,34.52933322270712L186.51398989423117,34.52933322270712L186.7893389597575,34.52933322270712L187.06468802528383,34.52933322270712L187.34003709081014,34.52933322270712L187.61538615633648,34.52933322270712L187.8907352218628,34.52933322270712L188.17075122070312,43.756999859809866L188.44610028622947,34.52933322270712L188.72144935175578,34.52933322270712L188.99679841728212,34.52933322270712L189.27681441612245,43.756999859809866L189.5521634816488,34.52933322270712L189.82751254717508,34.52933322270712L190.1028616127014,34.52933322270712L190.38287761154174,72.33299976825714L190.66289361038207,43.756999859809866L190.9522434758504,102.69499967098237L191.22759254137674,34.52933322270712L191.50760854021706,43.756999859809866L191.7829576057434,34.52933322270712L192.05830667126972,34.52933322270712L192.33365573679606,34.52933322270712L192.60900480232237,34.52933322270712L192.88435386784872,34.52933322270712L193.15970293337503,34.52933322270712L193.43505199890137,34.52933322270712L193.71040106442769,34.52933322270712L193.985750129954,34.52933322270712L194.26109919548034,34.52933322270712L194.54111519432067,48.81733317693073L194.816464259847,34.52933322270712L195.09181332537332,34.52933322270712L195.36716239089967,34.52933322270712L195.64251145642598,34.52933322270712L195.93186132189433,95.25333302815756L196.20721038742064,34.52933322270712L196.48722638626097,48.81733317693073L196.7625754517873,34.52933322270712L197.04259145062764,43.756999859809866L197.32260744946797,48.81733317693073L197.5979565149943,34.52933322270712L197.87797251383464,43.756999859809866L198.15332157936095,34.52933322270712L198.4333375782013,43.756999859809866L198.70868664372762,34.52933322270712L198.98403570925396,34.52933322270712L199.25938477478027,34.52933322270712L199.5440677069346,59.53333314259848L199.81941677246095,34.52933322270712L200.10409970461527,66.97499978542328L200.3794487701416,34.52933322270712L200.65479783566792,34.52933322270712L200.94414770113627,73.8213330968221L201.21949676666262,34.52933322270712L201.49951276550294,43.756999859809866L201.77486183102926,34.52933322270712L202.0502108965556,34.52933322270712L202.3255599620819,34.52933322270712L202.60090902760825,34.52933322270712L202.87625809313457,34.52933322270712L203.1516071586609,34.52933322270712L203.42695622418722,55.36599982261659L203.70230528971356,34.52933322270712L203.97765435523988,34.52933322270712L204.25300342076622,34.52933322270712L204.52835248629253,34.52933322270712L204.80370155181888,34.52933322270712L205.1070522172292,77.69099975109101L205.38240128275555,34.52933322270712L205.65775034828187,34.52933322270712L205.9330994138082,34.52933322270712L206.20844847933452,34.52933322270712L206.48379754486086,34.52933322270712L206.75914661038715,34.52933322270712L207.0344956759135,34.52933322270712L207.3098447414398,34.52933322270712L207.58519380696615,34.52933322270712L207.87454367243447,73.8213330968221L208.1498927379608,34.52933322270712L208.43457567011515,49.114999842643755L208.71459166895548,38.10133321126304L208.9899407344818,34.52933322270712L209.26528980000813,34.52933322270712L209.54530579884846,43.756999859809866L209.82065486437477,34.52933322270712L210.09600392990112,34.52933322270712L210.37135299542743,34.52933322270712L210.64670206095377,34.52933322270712L210.92205112648008,34.52933322270712L211.19740019200643,34.52933322270712L211.47274925753274,34.52933322270712L211.74809832305908,34.52933322270712L212.0234473885854,34.52933322270712L212.29879645411174,34.52933322270712L212.57414551963805,34.52933322270712L212.8588284517924,104.18333299954732L213.13417751731873,34.52933322270712L213.40952658284505,34.52933322270712L213.6848756483714,34.52933322270712L213.9602247138977,34.52933322270712L214.25890844599405,230.98933259328206L214.5342575115204,34.52933322270712L214.8096065770467,34.52933322270712L215.08495564257305,34.52933322270712L215.36030470809936,34.52933322270712L215.6356537736257,34.52933322270712L215.91100283915202,34.52933322270712L216.18635190467836,34.52933322270712L216.46170097020467,34.52933322270712L216.73705003573102,34.52933322270712L217.01239910125733,34.52933322270712L217.29708203341167,52.98466649691264L217.57243109893798,34.52933322270712L217.84778016446433,34.52933322270712L218.12312922999064,34.52933322270712L218.39847829551698,34.52933322270712L218.6738273610433,34.52933322270712L218.94917642656964,34.52933322270712L219.22452549209595,34.52933322270712L219.4998745576223,34.52933322270712L219.7752236231486,34.52933322270712L220.05057268867495,34.52933322270712L220.33058868751527,43.756999859809866L220.6059377530416,34.52933322270712L220.88128681856793,34.52933322270712L221.15663588409421,34.52933322270712L221.44131881624855,58.0449998140335L221.7166678817749,34.52933322270712L221.9920169473012,34.52933322270712L222.26736601282755,34.52933322270712L222.54271507835387,34.52933322270712L222.8180641438802,34.52933322270712L223.09341320940652,34.52933322270712L223.38276307487487,84.83499972820282L223.6581121404012,34.52933322270712L223.93346120592753,34.52933322270712L224.20881027145384,34.52933322270712L224.48415933698018,34.52933322270712L224.7595084025065,34.52933322270712L225.03952440134682,43.756999859809866L225.31487346687317,34.52933322270712L225.59022253239948,34.52933322270712L225.86557159792582,34.52933322270712L226.14092066345214,55.36599982261659L226.4209366622925,48.81733317693073L226.6962857278188,34.52933322270712L226.97163479334512,34.52933322270712L227.24698385887146,34.52933322270712L227.5316667910258,75.60733309110006L227.8070158565521,34.52933322270712L228.08236492207845,34.52933322270712L228.35771398760477,34.52933322270712L228.64706385307312,97.0393330224355L228.92241291859943,34.52933322270712L229.2117627840678,102.69499967098237L229.48711184959413,55.36599982261659L229.76246091512044,34.52933322270712L230.03780998064678,34.52933322270712L230.3131590461731,34.52933322270712L230.5885081116994,34.52933322270712L230.87319104385375,75.60733309110006L231.1485401093801,34.52933322270712L231.4238891749064,34.52933322270712L231.69923824043275,34.52933322270712L231.97458730595906,34.52933322270712L232.2499363714854,34.52933322270712L232.52528543701172,34.52933322270712L232.80996836916606,66.97499978542328L233.08998436800638,48.81733317693073L233.36533343353273,34.52933322270712L233.64068249905904,34.52933322270712L233.91603156458538,34.52933322270712L234.20071449673972,75.60733309110006L234.47606356226603,34.52933322270712L234.75141262779238,34.52933322270712L235.0267616933187,34.52933322270712L235.30677769215902,48.81733317693073L235.58212675768536,34.52933322270712L235.85747582321167,55.36599982261659L236.132824888738,34.52933322270712L236.40817395426433,34.52933322270712L236.68818995310468,39.88733320554098L236.96353901863097,34.52933322270712L237.23888808415728,34.52933322270712L237.51423714968362,34.52933322270712L237.78958621520994,34.52933322270712L238.06493528073628,34.52933322270712L238.3402843462626,34.52933322270712L238.61563341178893,34.52933322270712L238.89564941062926,43.756999859809866L239.1709984761556,34.52933322270712L239.44634754168192,34.52933322270712L239.72169660720823,34.52933322270712L240.00637953936257,59.53333314259848L240.2817286048889,34.52933322270712L240.55707767041523,34.52933322270712L240.83242673594157,34.52933322270712L241.10777580146788,34.52933322270712L241.38312486699422,34.52933322270712L241.65847393252054,34.52933322270712L241.93382299804688,34.52933322270712L242.2091720635732,34.52933322270712L242.48452112909953,34.52933322270712L242.75987019462585,34.52933322270712L243.0352192601522,34.52933322270712L243.3105683256785,34.52933322270712L243.59058432451883,43.756999859809866L243.86593339004517,34.52933322270712L244.14128245557148,34.52933322270712L244.41663152109783,34.52933322270712L244.69198058662414,34.52933322270712L244.96732965215048,34.52933322270712L245.2426787176768,34.52933322270712L245.51802778320314,55.36599982261659L245.79337684872945,34.52933322270712L246.0687259142558,34.52933322270712L246.3440749797821,34.52933322270712L246.61942404530845,34.52933322270712L246.89477311083476,34.52933322270712L247.1701221763611,34.52933322270712L247.44547124188742,34.52933322270712L247.72082030741376,34.52933322270712L247.99616937294007,34.52933322270712L248.27151843846642,34.52933322270712L248.55620137062076,66.97499978542328L248.83621736946108,48.81733317693073L249.12090030161542,59.53333314259848L249.40558323376976,89.2999997138977L249.68093229929607,34.52933322270712L249.95628136482242,34.52933322270712L250.2316304303487,34.52933322270712L250.50697949587502,34.52933322270712L250.78232856140136,34.52933322270712L251.0763453601837,150.91699951648712L251.35169442571004,34.52933322270712L251.62704349123635,34.52933322270712L251.9023925567627,34.52933322270712L252.177741622289,34.52933322270712L252.45309068781535,34.52933322270712L252.72843975334166,34.52933322270712L253.003788818868,34.52933322270712L253.27913788439432,34.52933322270712L253.55448694992066,34.52933322270712L253.83450294876098,39.88733320554098L254.1098520142873,34.52933322270712L254.38520107981364,34.52933322270712L254.66521707865397,43.756999859809866L254.94056614418028,34.52933322270712L255.21591520970662,34.52933322270712L255.49126427523294,34.52933322270712L255.77594720738728,66.97499978542328L256.0512962729136,34.52933322270712L256.3313122717539,43.756999859809866L256.6066613372803,34.52933322270712L256.8820104028066,34.52933322270712L257.1620264016469,43.756999859809866L257.43737546717324,34.52933322270712" fill="none"></path></g></g></g></g></g></g><g transform="translate(49, 178)" clip-path="url(#clip_1)"><clipPath id="clip_1"><rect width="280" height="21"></rect></clipPath><g><g><line x1="0" y1="0" x2="0" y2="5" style="visibility: inherit;" fill="rgb(0, 0, 0)" stroke="rgb(204, 204, 204)" stroke-width="1px"></line><line x1="23.334666570027668" y1="0" x2="23.334666570027668" y2="5" style="visibility: inherit;" fill="rgb(0, 0, 0)" stroke="rgb(204, 204, 204)" stroke-width="1px"></line><line x1="46.669333140055336" y1="0" x2="46.669333140055336" y2="5" style="visibility: inherit;" fill="rgb(0, 0, 0)" stroke="rgb(204, 204, 204)" stroke-width="1px"></line><line x1="70.00399971008301" y1="0" x2="70.00399971008301" y2="5" style="visibility: inherit;" fill="rgb(0, 0, 0)" stroke="rgb(204, 204, 204)" stroke-width="1px"></line><line x1="93.33866628011067" y1="0" x2="93.33866628011067" y2="5" style="visibility: inherit;" fill="rgb(0, 0, 0)" stroke="rgb(204, 204, 204)" stroke-width="1px"></line><line x1="116.67333285013835" y1="0" x2="116.67333285013835" y2="5" style="visibility: inherit;" fill="rgb(0, 0, 0)" stroke="rgb(204, 204, 204)" stroke-width="1px"></line><line x1="140.00799942016602" y1="0" x2="140.00799942016602" y2="5" style="visibility: inherit;" fill="rgb(0, 0, 0)" stroke="rgb(204, 204, 204)" stroke-width="1px"></line><line x1="163.3426659901937" y1="0" x2="163.3426659901937" y2="5" style="visibility: inherit;" fill="rgb(0, 0, 0)" stroke="rgb(204, 204, 204)" stroke-width="1px"></line><line x1="186.67733256022134" y1="0" x2="186.67733256022134" y2="5" style="visibility: inherit;" fill="rgb(0, 0, 0)" stroke="rgb(204, 204, 204)" stroke-width="1px"></line><line x1="210.01199913024902" y1="0" x2="210.01199913024902" y2="5" style="visibility: inherit;" fill="rgb(0, 0, 0)" stroke="rgb(204, 204, 204)" stroke-width="1px"></line><line x1="233.3466657002767" y1="0" x2="233.3466657002767" y2="5" style="visibility: inherit;" fill="rgb(0, 0, 0)" stroke="rgb(204, 204, 204)" stroke-width="1px"></line><line x1="256.6813322703043" y1="0" x2="256.6813322703043" y2="5" style="visibility: inherit;" fill="rgb(0, 0, 0)" stroke="rgb(204, 204, 204)" stroke-width="1px"></line><line x1="280.01599884033203" y1="0" x2="280.01599884033203" y2="5" style="visibility: inherit;" fill="rgb(0, 0, 0)" stroke="rgb(204, 204, 204)" stroke-width="1px"></line></g><g transform="translate(0, 8)"><text style="text-anchor: middle; visibility: hidden; font-family: &quot;Helvetica Neue&quot;, sans-serif; font-size: 12px; font-weight: 200;" x="0" y="0" dx="0em" dy="0.95em" fill="rgb(50, 49, 63)" stroke="none" stroke-width="1px">-5k</text><text style="text-anchor: middle; visibility: hidden; font-family: &quot;Helvetica Neue&quot;, sans-serif; font-size: 12px; font-weight: 200;" x="23.334666570027668" y="0" dx="0em" dy="0.95em" fill="rgb(50, 49, 63)" stroke="none" stroke-width="1px">0</text><text style="text-anchor: middle; visibility: hidden; font-family: &quot;Helvetica Neue&quot;, sans-serif; font-size: 12px; font-weight: 200;" x="46.669333140055336" y="0" dx="0em" dy="0.95em" fill="rgb(50, 49, 63)" stroke="none" stroke-width="1px">5k</text><text style="text-anchor: middle; visibility: hidden; font-family: &quot;Helvetica Neue&quot;, sans-serif; font-size: 12px; font-weight: 200;" x="70.00399971008301" y="0" dx="0em" dy="0.95em" fill="rgb(50, 49, 63)" stroke="none" stroke-width="1px">10k</text><text style="text-anchor: middle; visibility: hidden; font-family: &quot;Helvetica Neue&quot;, sans-serif; font-size: 12px; font-weight: 200;" x="93.33866628011067" y="0" dx="0em" dy="0.95em" fill="rgb(50, 49, 63)" stroke="none" stroke-width="1px">15k</text><text style="text-anchor: middle; visibility: hidden; font-family: &quot;Helvetica Neue&quot;, sans-serif; font-size: 12px; font-weight: 200;" x="116.67333285013835" y="0" dx="0em" dy="0.95em" fill="rgb(50, 49, 63)" stroke="none" stroke-width="1px">20k</text><text style="text-anchor: middle; visibility: hidden; font-family: &quot;Helvetica Neue&quot;, sans-serif; font-size: 12px; font-weight: 200;" x="140.00799942016602" y="0" dx="0em" dy="0.95em" fill="rgb(50, 49, 63)" stroke="none" stroke-width="1px">25k</text><text style="text-anchor: middle; visibility: hidden; font-family: &quot;Helvetica Neue&quot;, sans-serif; font-size: 12px; font-weight: 200;" x="163.3426659901937" y="0" dx="0em" dy="0.95em" fill="rgb(50, 49, 63)" stroke="none" stroke-width="1px">30k</text><text style="text-anchor: middle; visibility: hidden; font-family: &quot;Helvetica Neue&quot;, sans-serif; font-size: 12px; font-weight: 200;" x="186.67733256022134" y="0" dx="0em" dy="0.95em" fill="rgb(50, 49, 63)" stroke="none" stroke-width="1px">35k</text><text style="text-anchor: middle; visibility: hidden; font-family: &quot;Helvetica Neue&quot;, sans-serif; font-size: 12px; font-weight: 200;" x="210.01199913024902" y="0" dx="0em" dy="0.95em" fill="rgb(50, 49, 63)" stroke="none" stroke-width="1px">40k</text><text style="text-anchor: middle; visibility: hidden; font-family: &quot;Helvetica Neue&quot;, sans-serif; font-size: 12px; font-weight: 200;" x="233.3466657002767" y="0" dx="0em" dy="0.95em" fill="rgb(50, 49, 63)" stroke="none" stroke-width="1px">45k</text><text style="text-anchor: middle; visibility: hidden; font-family: &quot;Helvetica Neue&quot;, sans-serif; font-size: 12px; font-weight: 200;" x="256.6813322703043" y="0" dx="0em" dy="0.95em" fill="rgb(50, 49, 63)" stroke="none" stroke-width="1px">50k</text><text style="text-anchor: middle; visibility: hidden; font-family: &quot;Helvetica Neue&quot;, sans-serif; font-size: 12px; font-weight: 200;" x="280.01599884033203" y="0" dx="0em" dy="0.95em" fill="rgb(50, 49, 63)" stroke="none" stroke-width="1px">55k</text></g><line x1="0" y1="0" x2="280.01599884033203" y2="0" fill="rgb(0, 0, 0)" stroke="rgb(204, 204, 204)" stroke-width="1px"></line></g></g></g></g></svg>