<svg viewBox="0 0 330 200" xmlns="http://www.w3.org/2000/svg"><g><g><g><g><g><line x1="49.98400115966797" y1="178.5999994277954" x2="44.98400115966797" y2="178.5999994277954" style="visibility: inherit;" fill="rgb(0, 0, 0)" stroke="rgb(204, 204, 204)" stroke-width="1px"></line><line x1="49.98400115966797" y1="163.71666614214578" x2="44.98400115966797" y2="163.71666614214578" style="visibility: inherit;" fill="rgb(0, 0, 0)" stroke="rgb(204, 204, 204)" stroke-width="1px"></line><line x1="49.98400115966797" y1="148.83333285649618" x2="44.98400115966797" y2="148.83333285649618" style="visibility: inherit;" fill="rgb(0, 0, 0)" stroke="rgb(204, 204, 204)" stroke-width="1px"></line><line x1="49.98400115966797" y1="133.94999957084656" x2="44.98400115966797" y2="133.94999957084656" style="visibility: inherit;" fill="rgb(0, 0, 0)" stroke="rgb(204, 204, 204)" stroke-width="1px"></line><line x1="49.98400115966797" y1="119.06666628519694" x2="44.98400115966797" y2="119.06666628519694" style="visibility: inherit;" fill="rgb(0, 0, 0)" stroke="rgb(204, 204, 204)" stroke-width="1px"></line><line x1="49.98400115966797" y1="104.18333299954732" x2="44.98400115966797" y2="104.18333299954732" style="visibility: inherit;" fill="rgb(0, 0, 0)" stroke="rgb(204, 204, 204)" stroke-width="1px"></line><line x1="49.98400115966797" y1="89.2999997138977" x2="44.98400115966797" y2="89.2999997138977" style="visibility: inherit;" fill="rgb(0, 0, 0)" stroke="rgb(204, 204, 204)" stroke-width="1px"></line><line x1="49.98400115966797" y1="74.41666642824808" x2="44.98400115966797" y2="74.41666642824808" style="visibility: inherit;" fill="rgb(0, 0, 0)" stroke="rgb(204, 204, 204)" stroke-width="1px"></line><line x1="49.98400115966797" y1="59.53333314259848" x2="44.98400115966797" y2="59.53333314259848" style="visibility: inherit;" fill="rgb(0, 0, 0)" stroke="rgb(204, 204, 204)" stroke-width="1px"></line><line x1="49.98400115966797" y1="44.64999985694885" x2="44.98400115966797" y2="44.64999985694885" style="visibility: inherit;" fill="rgb(0, 0, 0)" stroke="rgb(204, 204, 204)" stroke-width="1px"></line><line x1="49.98400115966797" y1="29.766666571299226" x2="44.98400115966797" y2="29.766666571299226" style="visibility: inherit;" fill="rgb(0, 0, 0)" stroke="rgb(204, 204, 204)" stroke-width="1px"></line><line x1="49.98400115966797" y1="14.883333285649627" x2="44.98400115966797" y2="14.883333285649627" style="visibility: inherit;" fill="rgb(0, 0, 0)" stroke="rgb(204, 204, 204)" stroke-width="1px"></line><line x1="49.98400115966797" y1="0" x2="44.98400115966797" y2="0" style="visibility: inherit;" fill="rgb(0, 0, 0)" stroke="rgb(204, 204, 204)" stroke-width="1px"></line></g><g transform="translate(39.98400115966797, 0)"><text style="text-anchor: end; visibility: hidden; font-family: &quot;Helvetica Neue&quot;, sans-serif; font-size: 12px; font-weight: 200;" x="0" y="178.5999994277954" dx="0em" dy="0.3em" fill="rgb(50, 49, 63)" stroke="none" stroke-width="1px">-600</text><text style="text-anchor: end; visibility: inherit; font-family: &quot;Helvetica Neue&quot;, sans-serif; font-size: 12px; font-weight: 200;" x="0" y="163.71666614214578" dx="0em" dy="0.3em" fill="rgb(50, 49, 63)" stroke="none" stroke-width="1px">-550</text><text style="text-anchor: end; visibility: hidden; font-family: &quot;Helvetica Neue&quot;, sans-serif; font-size: 12px; font-weight: 200;" x="0" y="148.83333285649618" dx="0em" dy="0.3em" fill="rgb(50, 49, 63)" stroke="none" stroke-width="1px">-500</text><text style="text-anchor: end; visibility: inherit; font-family: &quot;Helvetica Neue&quot;, sans-serif; font-size: 12px; font-weight: 200;" x="0" y="133.94999957084656" dx="0em" dy="0.3em" fill="rgb(50, 49, 63)" stroke="none" stroke-width="1px">-450</text><text style="text-anchor: end; visibility: hidden; font-family: &quot;Helvetica Neue&quot;, sans-serif; font-size: 12px; font-weight: 200;" x="0" y="119.06666628519694" dx="0em" dy="0.3em" fill="rgb(50, 49, 63)" stroke="none" stroke-width="1px">-400</text><text style="text-anchor: end; visibility: inherit; font-family: &quot;Helvetica Neue&quot;, sans-serif; font-size: 12px; font-weight: 200;" x="0" y="104.18333299954732" dx="0em" dy="0.3em" fill="rgb(50, 49, 63)" stroke="none" stroke-width="1px">-350</text><text style="text-anchor: end; visibility: hidden; font-family: &quot;Helvetica Neue&quot;, sans-serif; font-size: 12px; font-weight: 200;" x="0" y="89.2999997138977" dx="0em" dy="0.3em" fill="rgb(50, 49, 63)" stroke="none" stroke-width="1px">-300</text><text style="text-anchor: end; visibility: inherit; font-family: &quot;Helvetica Neue&quot;, sans-serif; font-size: 12px; font-weight: 200;" x="0" y="74.41666642824808" dx="0em" dy="0.3em" fill="rgb(50, 49, 63)" stroke="none" stroke-width="1px">-250</text><text style="text-anchor: end; visibility: hidden; font-family: &quot;Helvetica Neue&quot;, sans-serif; font-size: 12px; font-weight: 200;" x="0" y="59.53333314259848" dx="0em" dy="0.3em" fill="rgb(50, 49, 63)" stroke="none" stroke-width="1px">-200</text><text style="text-anchor: end; visibility: inherit; font-family: &quot;Helvetica Neue&quot;, sans-serif; font-size: 12px; font-weight: 200;" x="0" y="44.64999985694885" dx="0em" dy="0.3em" fill="rgb(50, 49, 63)" stroke="none" stroke-width="1px">-150</text><text style="text-anchor: end; visibility: hidden; font-family: &quot;Helvetica Neue&quot;, sans-serif; font-size: 12px; font-weight: 200;" x="0" y="29.766666571299226" dx="0em" dy="0.3em" fill="rgb(50, 49, 63)" stroke="none" stroke-width="1px">-100</text><text style="text-anchor: end; visibility: inherit; font-family: &quot;Helvetica Neue&quot;, sans-serif; font-size: 12px; font-weight: 200;" x="0" y="14.883333285649627" dx="0em" dy="0.3em" fill="rgb(50, 49, 63)" stroke="none" stroke-width="1px">-50</text><text style="text-anchor: end; visibility: hidden; font-family: &quot;Helvetica Neue&quot;, sans-serif; font-size: 12px; font-weight: 200;" x="0" y="0" dx="0em" dy="0.3em" fill="rgb(50, 49, 63)" stroke="none" stroke-width="1px">0</text></g><line x1="49.98400115966797" y1="0" x2="49.98400115966797" y2="178.5999994277954" fill="rgb(0, 0, 0)" stroke="rgb(204, 204, 204)" stroke-width="1px"></line></g></g><g transform="translate(49, 0)" clip-path="url(#clip_0)"><clipPath id="clip_0"><rect width="280" height="178"></rect></clipPath><g><g><g><line x1="0" y1="0" x2="0" y2="178.5999994277954" fill="rgb(0, 0, 0)" stroke="rgb(60, 60, 60)" stroke-width="1px" opacity="0.25"></line><line x1="23.334666570027668" y1="0" x2="23.334666570027668" y2="178.5999994277954" fill="rgb(0, 0, 0)" stroke="rgb(60, 60, 60)" stroke-width="1px" opacity="0.25"></line><line x1="46.669333140055336" y1="0" x2="46.669333140055336" y2="178.5999994277954" fill="rgb(0, 0, 0)" stroke="rgb(60, 60, 60)" stroke-width="1px" opacity="0.25"></line><line x1="70.00399971008301" y1="0" x2="70.00399971008301" y2="178.5999994277954" fill="rgb(0, 0, 0)" stroke="rgb(60, 60, 60)" stroke-width="1px" opacity="0.25"></line><line x1="93.33866628011067" y1="0" x2="93.33866628011067" y2="178.5999994277954" fill="rgb(0, 0, 0)" stroke="rgb(60, 60, 60)" stroke-width="1px" opacity="0.25"></line><line x1="116.67333285013835" y1="0" x2="116.67333285013835" y2="178.5999994277954" fill="rgb(0, 0, 0)" stroke="rgb(60, 60, 60)" stroke-width="1px" opacity="0.25"></line><line x1="140.00799942016602" y1="0" x2="140.00799942016602" y2="178.5999994277954" fill="rgb(0, 0, 0)" stroke="rgb(60, 60, 60)" stroke-width="1px" opacity="0.25"></line><line x1="163.3426659901937" y1="0" x2="163.3426659901937" y2="178.5999994277954" fill="rgb(0, 0, 0)" stroke="rgb(60, 60, 60)" stroke-width="1px" opacity="0.25"></line><line x1="186.67733256022134" y1="0" x2="186.67733256022134" y2="178.5999994277954" fill="rgb(0, 0, 0)" stroke="rgb(60, 60, 60)" stroke-width="1px" opacity="0.25"></line><line x1="210.01199913024902" y1="0" x2="210.01199913024902" y2="178.5999994277954" fill="rgb(0, 0, 0)" stroke="rgb(60, 60, 60)" stroke-width="1px" opacity="0.25"></line><line x1="233.3466657002767" y1="0" x2="233.3466657002767" y2="178.5999994277954" fill="rgb(0, 0, 0)" stroke="rgb(60, 60, 60)" stroke-width="1px" opacity="0.25"></line><line x1="256.6813322703043" y1="0" x2="256.6813322703043" y2="178.5999994277954" fill="rgb(0, 0, 0)" stroke="rgb(60, 60, 60)" stroke-width="1px" opacity="0.25"></line><line x1="280.01599884033203" y1="0" x2="280.01599884033203" y2="178.5999994277954" fill="rgb(0, 0, 0)" stroke="rgb(60, 60, 60)" stroke-width="1px" opacity="0.25"></line></g><g><line x1="0" y1="178.5999994277954" x2="280.01599884033203" y2="178.5999994277954" fill="rgb(0, 0, 0)" stroke="rgb(60, 60, 60)" stroke-width="1px" opacity="0.25"></line><line x1="0" y1="163.71666614214578" x2="280.01599884033203" y2="163.71666614214578" fill="rgb(0, 0, 0)" stroke="rgb(60, 60, 60)" stroke-width="1px" opacity="0.25"></line><line x1="0" y1="148.83333285649618" x2="280.01599884033203" y2="148.83333285649618" fill="rgb(0, 0, 0)" stroke="rgb(60, 60, 60)" stroke-width="1px" opacity="0.25"></line><line x1="0" y1="133.94999957084656" x2="280.01599884033203" y2="133.94999957084656" fill="rgb(0, 0, 0)" stroke="rgb(60, 60, 60)" stroke-width="1px" opacity="0.25"></line><line x1="0" y1="119.06666628519694" x2="280.01599884033203" y2="119.06666628519694" fill="rgb(0, 0, 0)" stroke="rgb(60, 60, 60)" stroke-width="1px" opacity="0.25"></line><line x1="0" y1="104.18333299954732" x2="280.01599884033203" y2="104.18333299954732" fill="rgb(0, 0, 0)" stroke="rgb(60, 60, 60)" stroke-width="1px" opacity="0.25"></line><line x1="0" y1="89.2999997138977" x2="280.01599884033203" y2="89.2999997138977" fill="rgb(0, 0, 0)" stroke="rgb(60, 60, 60)" stroke-width="1px" opacity="0.25"></line><line x1="0" y1="74.41666642824808" x2="280.01599884033203" y2="74.41666642824808" fill="rgb(0, 0, 0)" stroke="rgb(60, 60, 60)" stroke-width="1px" opacity="0.25"></line><line x1="0" y1="59.53333314259848" x2="280.01599884033203" y2="59.53333314259848" fill="rgb(0, 0, 0)" stroke="rgb(60, 60, 60)" stroke-width="1px" opacity="0.25"></line><line x1="0" y1="44.64999985694885" x2="280.01599884033203" y2="44.64999985694885" fill="rgb(0, 0, 0)" stroke="rgb(60, 60, 60)" stroke-width="1px" opacity="0.25"></line><line x1="0" y1="29.766666571299226" x2="280.01599884033203" y2="29.766666571299226" fill="rgb(0, 0, 0)" stroke="rgb(60, 60, 60)" stroke-width="1px" opacity="0.25"></line><line x1="0" y1="14.883333285649627" x2="280.01599884033203" y2="14.883333285649627" fill="rgb(0, 0, 0)" stroke="rgb(60, 60, 60)" stroke-width="1px" opacity="0.25"></line><line x1="0" y1="0" x2="280.01599884033203" y2="0" fill="rgb(0, 0, 0)" stroke="rgb(60, 60, 60)" stroke-width="1px" opacity="0.25"></line></g></g></g><g><g><line x1="0" y1="0" x2="280.01599884033203" y2="0" fill="rgb(0, 0, 0)" stroke="rgb(153, 153, 153)" stroke-width="1.5px"></line></g></g><g><g><line x1="23.334666570027668" y1="0" x2="23.334666570027668" y2="178.5999994277954" fill="rgb(0, 0, 0)" stroke="rgb(153, 153, 153)" stroke-width="1.5px"></line></g></g><g><g><g><g><g><path style="fill: none;" stroke="rgb(255, 112, 67)" stroke-width="2px" d="M23.680019635264077,158.9539994907379L24.0347065671285,169.18629112462202L24.375392699050902,169.12933959419223L24.748747364171344,175.94398105395192L25.084766562779745,148.95087090839814L25.444120427958172,157.26943316960438L25.8081412264506,136.28091560014553L26.16749509162903,129.88309030833884L26.512848156865438,123.94885057333401L26.867535088729856,124.61949866893177L27.21755508728027,110.4402572163651L27.572242019144692,95.88005985440694L27.936262817637125,120.42729610538939L28.28161588287354,144.5487466714521L28.608301214853924,128.9905993268469L28.953654280090333,123.35250221303147L29.28033961207072,117.58892560721704L29.630359610621134,134.85110830486332L29.985046542485556,142.34952170920388L30.349067340977985,137.67980879262086L30.6990873395284,120.2325690824584L31.021105738194784,117.74204185596179L31.366458803431193,99.6973491827734L31.71647880198161,95.3002552275448L32.066498800532024,88.97093504023488L32.40718493245443,89.10256113423006L32.75253799769084,97.63527860550025L33.088557196299234,80.2512897517989L33.419909461593626,82.32290783823208L33.77459639345805,74.6358762559988L34.12461639200846,73.23845881040182L34.44663479067484,67.63734143122132L34.78265398928325,59.156804394261215L35.095338521321615,54.18754910095761L35.41268998667399,50.84879601109937L35.711373718770346,48.964610861430856L36.02872518412273,45.571833110648555L36.332075849533084,44.48869980743564L36.640093448257446,37.29015316780615L36.92010944709778,50.235691828724725L37.24212784576416,54.431015022779874L37.55481237780253,45.041542302809916L37.876830776468914,47.62345864977053L38.198849175135294,54.29247510862021L38.52086757380168,53.53121833128766L38.83821903915405,52.12193093459777L39.14623663787842,45.44209184844715L39.44958730328878,40.83885506547739L39.75760490201314,37.12437966546727L40.09362410062154,56.9230276884327L40.406308632659915,50.34688322781449L40.7329939646403,55.21212985659423L41.03167769673665,50.51101119158707L41.31636062889099,47.33313999373209L41.657046760813394,59.59535056296856L41.96039742622376,45.282543640591484L42.25908115832011,38.00459281630617L42.59976729024252,41.25808896398968L42.903117955652874,34.5183200137794L43.22046942100525,37.261258621910116L43.53782088635763,53.07595507472735L43.82717075182597,44.70477300363754L44.15385608380636,42.896863750684105L44.447872882588705,33.715584891518574L44.746556614685055,30.588150901723253L45.040573413467406,27.04475717985335L45.33925714556376,27.89538760386131L45.633273944346115,27.453232527984483L45.91795687650045,25.640072820750845L46.20263980865479,25.980976991833074L46.48265580749512,21.780052841930086L46.762671806335455,30.57083164908201L47.04268780517578,31.20169894825048L47.33670460395813,32.056485992892334L47.62138753611247,29.473624896262322L47.906070468266805,23.99470825087286L48.190753400421144,21.421758261350305L48.47076939926148,32.1418548950121L48.750785398101804,24.762179586126337L49.02613446362813,19.500907736798467L49.320151262410484,21.106811278609655L49.618834994506834,22.189420069981537L49.89418406003316,20.100452020245143L50.16953312555949,16.70387119726979L50.44488219108582,14.665922703484569L50.74823285649617,24.15915357288111L51.02824885533651,19.972558792847764L51.303597920862835,16.627135260831324L51.57428005307516,15.92961447075865L51.849629118601484,14.201368667577867L52.12964511744182,15.664821177658524L52.404994182968146,14.042492691717797L52.68034324849447,13.06909560015336L52.95569231402079,12.485057345214699L53.231041379547115,12.134634392251485L53.50639044507344,11.924380620473585L53.786406443913776,12.631695021403203L54.061755509440104,12.222616997964593L54.33710457496643,11.97717018390145L54.61245364049276,11.829902095463552L54.88780270601909,11.741541242400814L55.163151771545415,11.68852473056316L55.43850083707174,11.65671482346059L55.71384990259806,11.637628879199042L55.989198968124384,11.626177312642085L56.26454803365071,11.619306372707939L56.53989709917704,11.615183808747446L56.81524616470337,11.612710270371139L57.0952621635437,13.159092809052936L57.38461202901204,18.84958898366989L57.66929496116638,19.287220031310113L57.94931096000671,17.04939866790511L58.22932695884705,17.373639177854898L58.51400989100138,17.44911681753956L58.79402588984171,20.828270057335857L59.06937495536804,17.140562019524197L59.35405788752238,17.547403855111526L59.634073886362714,16.719908959897168L59.90942295188904,14.675545361060955L60.18477201741536,16.306527192603966L60.46012108294169,14.427516300685056L60.73547014846802,13.300109765533733L61.010819213994345,12.623665844442911L61.286168279520666,12.21779949178844L61.566184278361,12.807746344192111L61.84153334388733,12.32824779163795L62.116882409413655,12.04054866010543L62.39223147493998,11.867929181185929L62.68158134040832,17.003290810382907L62.95693040593465,14.84557447135245L63.23227947146098,13.550944667934118L63.507628536987305,12.774166785883182L63.78297760251363,12.308100056652592L64.06299360135397,12.861926683110596L64.3383426668803,12.360755994989034L64.61369173240662,15.632053570672014L64.88904079793295,14.022832127525874L65.16438986345926,13.057299261638207L65.43973892898559,12.47797954210563L65.71508799451192,12.130387710386032L65.99043706003825,11.921832611354318L66.26111919225058,13.106432881072436L66.5364682577769,12.507459713766139L66.82115118993123,13.815009141375128L67.09650025545756,12.93260546994776L67.37184932098388,12.403163267091344L67.64719838651021,12.085497945377483L67.92254745203654,12.966498748915939L68.19789651756287,12.423499234472246L68.46857864977518,13.407432854943181L68.74392771530151,12.688059698088608L69.01927678082784,12.256435803975819L69.29462584635417,11.997461467508202L69.5746418451945,12.67554352962398L69.84999091072082,12.248926102897059L70.12533997624715,11.992955646860906L70.40068904177348,11.839373373239226L70.6760381072998,11.74722400906623L70.95138717282613,11.691934390562437L71.23607010498047,13.32569394745289L71.5114191705068,12.6390163535944L71.78676823603313,12.227009797279322L72.06211730155945,11.97980586349027L72.33746636708578,11.831483503216873L72.6128154326121,11.7424900870528L72.88816449813842,11.689094037354351L73.16351356366475,11.657056407535293L73.43886262919108,11.637833829643853L73.7142116947174,11.626300282909L73.98956076024373,11.619380154868082L74.26490982577006,11.615228078043543L74.54025889129639,11.612736831948808L74.81560795682272,11.611242084291973L75.09095702234904,11.61034523569785L75.36630608787537,11.60980712654137L75.6416551534017,11.609484261047498L75.92167115224203,12.44275720574754L76.19702021776835,12.109254308571224L76.47236928329468,11.909152570265405L76.74771834882101,11.789091527281926L77.02306741434734,11.71705490149185L77.29841647987367,11.673832926017752L77.5737655454,11.64789974073335L77.84911461092632,11.63233982956271L78.12446367645265,11.623003882860303L78.39981274197896,11.617402314838841L78.67516180750528,11.614041374025987L78.9505108730316,11.61202480953827L79.23052687187194,12.44428153484202L79.50587593739827,12.110168906027894L79.7812250029246,11.909701328739402L80.05657406845093,11.789420782366335L80.33192313397726,11.71725245454246L80.60260526618957,12.983684786985322L80.8779543317159,12.433810857313887L81.15330339724223,12.10388649951102L81.42865246276855,11.905931884829272L81.70400152829488,11.787159116020234L81.97935059382121,11.715895454734863L82.25469965934754,11.673137257963589L82.53004872487386,11.647482339900819L82.80539779040019,11.632089389063168L83.08074685592652,11.622853618560583L83.35609592145285,11.617312156259032L83.63144498697918,11.613987278878085L83.9067940525055,11.611992352449533L84.18214311803182,11.61079539659238L84.45749218355814,11.610077223078122L84.73284124908447,11.609646318969538L85.0081903146108,11.609387776504406L85.28353938013713,11.609232651025309L85.55888844566346,11.609139575737885L85.83423751118977,11.609083730565402L86.1095865767161,11.609050223461935L86.38493564224243,11.609030119199815L86.66028470776875,11.609018056642554L86.93563377329508,11.60901081910822L87.21098283882141,11.60900647658761L87.48633190434774,11.60900387107526L87.76168096987406,11.60900230776781L88.03703003540039,11.609001369783357L88.31237910092672,11.609000806992725L88.58772816645305,11.609000469318289L88.86307723197937,11.609000266713679L89.1384262975057,11.609000145150873L89.41377536303203,11.609000072213206L89.68912442855834,11.609000028450595L89.96447349408467,11.609000002193028L90.239822559611,11.608999986438505L90.51517162513733,11.608999976985785L90.79052069066366,11.608999971314148L91.06586975618998,11.608999967911188L91.34121882171631,11.608999965869401L91.61656788724264,11.608999964644312L91.89191695276897,11.60899996390927L92.1672660182953,11.60899996346825L92.44261508382162,11.608999963203615L92.72263108266195,12.442466627041227L93.00264708150227,12.942546625343795L93.2779961470286,12.409127960328988L93.55334521255493,12.089076761320058L93.83336121139527,13.444912703622265L94.1087102769216,12.710547607296036L94.38872627576193,13.103395213496697L94.66407534128825,12.505637113220672L94.95342520675659,22.62484888615245L95.22877427228292,18.218509316814135L95.50412333780925,15.57470557521114L95.78413933664959,14.821889994245765L96.05948840217592,13.536733981670153L96.33483746770224,12.765640374124786L96.61018653322856,12.302984209597525L96.88553559875487,12.02539051088121L97.1608846642812,11.858834291651391L97.43623372980753,11.758900560113545L97.71158279533385,11.698940321190804L97.98693186086018,11.662964177837182L98.26228092638651,11.641378491825009L98.53762999191284,11.628427080217676L98.81297905743916,11.620656233253271L99.08832812296549,11.615993725074645L99.36367718849182,11.613196220167453L99.63902625401815,11.611517717223165L99.91437531954448,11.610510615456576L100.1897243850708,11.609906354396628L100.46507345059713,11.609543797760637L100.74042251612346,11.609326263779053L101.01577158164979,11.609195743390131L101.29112064717611,11.609117431156761L101.56646971270244,11.609070443816734L101.84181877822877,11.609042251412717L102.1171678437551,11.609025335970301L102.39251690928141,11.60901518670488L102.66786597480774,11.609009097145616L102.94321504033405,11.609005443410013L103.21856410586038,11.609003251168701L103.49391317138671,11.609001935823926L103.76926223691304,11.609001146617004L104.04461130243936,11.609000673092908L104.3246273012797,12.442467052974791L104.59997636680603,12.109080216907557L104.87532543233236,11.90904811526724L105.15067449785869,11.789028854283032L105.42602356338502,11.717017297692479L105.70137262891134,11.67381036373817L105.97672169443767,11.647886203365601L106.25207075996398,11.632331707142043L106.52741982549031,11.622999009407891L106.80276889101664,11.617399390767389L107.07811795654297,11.614039619583139L107.3534670220693,11.61202375687256L107.62881608759562,11.610814239246224L107.90416515312195,11.610088528670417L108.18418115196229,12.443119766321303L108.45486328417459,13.419205174052621L108.73021234970092,12.695123089554272L109.01022834854125,13.094140502851616L109.28557741406757,12.50008428683364L109.5609264795939,12.143650557222855L109.83627554512023,11.92979031945643L110.11162461064656,11.801474176796518L110.38697367617289,11.72448449120057L110.66232274169921,11.67829067984303L110.93767180722554,11.650574393028506L111.21768780606588,14.134344612928913L111.49303687159221,13.124206752880013L111.76838593711854,12.518124036850708L112.04373500264487,12.154474407233096L112.31908406817118,11.936284629462534L112.5944331336975,11.805370762800209L112.86978219922383,11.726822442802813L113.14513126475016,11.679693450804365L113.42048033027649,11.651416055605324L113.69582939580282,11.63444961848586L113.97117846132915,11.624269756214204L114.24652752685546,11.618161838851194L114.52187659238179,11.614497088433382L114.79722565790811,11.612298238182717L115.07257472343444,11.610978928032324L115.34792378896077,11.610187341942066L115.6232728544871,11.60971239028791L115.89862192001343,11.609427419295457L116.17397098553975,11.609256436699923L116.44932005106608,11.609153847142636L116.72466911659241,11.609092293408281L116.99535124880472,12.918788690304808L117.27536724764506,14.895273191294706L117.55071631317139,13.580763899899495L117.82606537869772,12.792058325062385L118.10141444422405,12.31883498016012L118.37676350975038,12.034900973218754L118.6521125752767,11.86454056905393L118.92746164080303,11.762324326555017L119.20281070632936,11.700994581055681L119.47815977185567,11.664196733756086L119.75350883738199,11.642118025376334L120.02885790290831,11.628870800348494L120.30420696843464,11.620922465331802L120.57955603396097,11.61615346432174L120.8549050994873,11.613292063715733L121.13025416501362,11.611575223352105L121.40560323053995,11.610545119133945L121.68095229606628,11.609927056603055L121.95630136159261,11.609556219084482L122.23165042711894,11.609333716573389L122.51166642595926,12.442666879063125L122.78701549148559,12.1092001125605L123.06236455701192,11.909120052659006L123.33771362253825,11.789072016718052L123.61306268806457,11.717043195153508L123.8884117535909,11.673825902214787L124.16376081911723,11.647895526451578L124.43910988464356,11.632337300993612L124.71445895016988,11.623002365718861L124.98980801569621,11.617401404554016L125.27449094785055,14.352574152414604L125.54984001337688,13.255144476571445L125.82518907890321,12.596686671065527L126.10053814442952,12.201611987761993L126.37588720995585,11.964567177779884L126.65123627548218,11.822340291790624L126.9265853410085,11.737004160197017L127.20193440653483,11.685802481240927L127.47728347206116,11.655081473867227L127.74796560427347,12.946382198580181L128.0279816031138,13.244895968267173L128.30333066864014,12.590537566082986L128.57867973416646,18.74658917045832L128.8540287996928,15.891553487397658L129.1293778652191,14.178532077561272L129.40472693074545,13.150719231659451L129.68007599627177,12.534031524118348L129.9554250617981,12.164018899593685L130.23544106063844,12.77547798887528L130.51079012616475,12.308886778447857L130.7861391916911,12.02893205219138L131.0614882572174,11.860959216437521L131.33683732274375,11.760175514985207L131.61218638827006,11.699705294113784L131.88753545379637,11.663423161590941L132.16288451932272,11.641653882077264L132.43356665153502,12.938325643506204L132.70891571706136,12.406595371226388L132.98426478258767,12.087557207858538L133.25961384811401,11.896134309837805L133.53496291364033,11.781280571025349L133.81031197916667,11.712368327737892L134.08566104469298,11.671020981765423L134.36567704353334,13.19407923588949L134.64102610905965,12.560047526656376L134.91637517458597,15.275361824531615L135.1917242401123,13.808817079841646L135.46707330563862,12.928890233027658L135.74242237116496,12.400934124939283L136.01777143669128,12.084160460086252L136.29312050221762,11.894096261174411L136.56846956774393,11.780057741827335L136.84381863327027,11.711634630219066L137.1191676987966,11.67058076325415L137.39918369763694,13.193815104782715L137.67453276316323,12.5598890479923L137.94988182868957,12.179533413918051L138.22523089421588,11.951320033473507L138.50057995974223,11.814392005206798L138.77592902526854,11.732235188246761L139.05127809079488,11.682941098070728L139.3266271563212,11.65336464396512L139.60197622184754,11.635618771501754L139.87732528737385,11.62497124802374L140.1526743529002,11.618582733936933L140.4280234184265,11.61474962548482L140.70337248395282,11.612449760413568L140.97872154947916,11.611069841370863L141.25407061500547,11.610241889945172L141.52941968053182,11.60974511908978L141.80476874605813,11.609447056576556L142.08011781158447,11.60926821906861L142.35546687711079,11.609160916563837L142.63081594263713,11.609096535060985L142.91083194147745,14.109457898148435L143.18618100700377,13.109274724011755L143.4615300725301,12.509164819529701L143.73687913805642,12.149098876840497L144.01222820358277,11.933059311226998L144.28757726910908,11.803435571858898L144.56292633463542,11.725661328238004L144.83360846684772,12.988730111202642L145.10895753237406,12.436838051844262L145.38430659790038,12.10570281622924L145.65965566342672,11.907021674860232L145.93500472895303,11.787812990038844L146.21035379447937,11.716287779145972L146.4857028600057,11.673372652610283L146.76105192553203,11.64762357668883L147.03640099105834,11.632174131135969L147.31175005658469,11.622904463804275L147.587099122111,11.617342663405253L147.86244818763734,11.614005583165834L148.13779725316365,11.612003335022195L148.41314631869,11.610801986135982L148.6884953842163,15.18208116536016L148.96384444974265,13.752848684338801L149.24386044858298,15.395709187715113L149.5192095141093,13.88102549775175L149.79455857963563,12.972215283773721L150.06990764516195,12.426929155386915L150.3452567106883,12.099757478354832L150.62527270952862,12.736921136131969L150.90062177505496,12.28575266680187L151.17597084058127,12.015051585203793L151.45131990610759,11.852630936244935L151.72666897163393,11.755178546869672L152.0020180371602,11.696707113244457L152.27736710268655,11.661624253069363L152.55271616821287,11.640574536964323L152.8280652337392,11.627944707301253L153.10808123257954,12.453833473499799L153.38343029810585,12.11590006922259L153.6587793636322,11.913140026656208L153.92946149584452,13.101217330253576L154.20481056137083,12.504330383274834L154.48015962689718,12.146198215087566L154.7555086924235,11.931318914175222L155.03085775794983,11.80239133362781L155.31554069010417,17.559301433274015L155.58622282231647,16.48891417422425L155.86623882115683,15.370415153653624L156.13692095336913,15.175582406452008L156.41227001889547,13.74894942899391L156.6829521511078,14.20270297165618L156.9583012166341,13.165221768116396L157.23365028216045,12.542733045992492L157.50899934768677,12.169239812718189L157.78434841321308,11.94514387275359L158.0550305454254,13.120419637911994L158.33037961095175,12.51585176786989L158.60572867647807,12.15311104584461L158.8810777420044,11.935466612629426L159.15642680753072,11.804879952700361L159.43177587305706,11.726527956742899L159.70712493858338,11.679516759168422L159.98247400410972,11.651310040623741L160.25782306963603,11.634386009496922L160.53317213516237,11.624231590820841L160.8131881340027,12.45160560361154L161.08853719952901,12.114563347289618L161.36388626505536,11.912337993496436L161.63923533058167,11.791002781220556L161.914584396108,11.718201653855004L162.18993346163433,11.67452097743569L162.46528252716067,11.648312571584114L162.74063159268698,11.632587528073117L163.01598065821332,11.623152501966558L163.2866627904256,12.927224815439786L163.56201185595194,12.39993487438656L163.83736092147825,12.083560909754624L164.11737692031858,12.72720319497185L164.39739291915893,13.113388566102145L164.67274198468525,12.51163312478397L164.9480910502116,12.150579859993059L165.2234401157379,11.933947901118529L165.49878918126424,11.803968725793823L165.77413824679056,11.725981220598953L166.05415424563088,13.227055379189608L166.32950331115723,12.57983321263643L166.60485237668354,12.191499912704558L166.88486837552387,12.791966596741759L167.1602174410502,12.318779943167783L167.44023343989053,12.868334615019705L167.71558250541688,12.3646007541345L167.9909315709432,12.062360437603388L168.26628063646953,11.881016247684698L168.54162970199584,11.772209733733519L168.8169787675222,11.70692582536276L169.0923278330485,11.667755480340361L169.37234383188883,14.501853264171643L169.64769289741517,13.34471194362564L169.92304196294148,12.65042715129806L170.19839102846782,12.23385627590153L170.47374009399414,11.983913750663618L170.74908915952048,11.833948235520836L171.0244382250468,11.743968926435201L171.29978729057314,11.689981340983792L171.57513635609945,11.657588789712975L171.8504854216258,11.638153258950439L172.1351683537801,17.4607585884676L172.41051741930644,15.120055138203242L172.68586648483276,13.71563306804461L172.9612155503591,12.872979825949471L173.24123154919943,13.200854544688752L173.51658061472577,12.564112711935934L173.79192968025208,12.182067612284243L174.06727874577842,11.9528405524932L174.33796087799072,13.125037645755782L174.61330994351707,12.518622572576135L174.88865900904338,12.154773528668386L175.16400807456972,11.936464102323725L175.43935714009604,11.805478446516872L175.71470620562235,11.72688705303284L175.99005527114866,11.67973221694237L176.265404336675,11.651439315288087L176.54075340220132,11.634463574295552L176.81610246772766,11.624278129700002L177.09145153325397,11.618166862942672L177.3714675320943,12.44796676688469L177.64681659762064,12.112380045253502L177.93149952977498,15.95929466597147L178.2068485953013,14.219176784705581L178.48219766082764,13.175106055946031L178.75287979303994,13.858396947827458L179.02822885856628,12.958638153819152L179.3082448574066,13.252249541410578L179.58359392293295,12.594949709969029L179.85894298845926,12.200569811104089L180.1342920539856,11.963941871785153L180.40964111951192,11.821965108193751L180.68499018503826,11.736779050038933L180.96033925056457,11.685667415146042L181.2356883160909,11.65500043421028L181.51570431493124,13.184466907356438L181.79105338045756,12.554280129536522L182.0664024459839,12.176168062844596L182.3417515115102,11.949300822829429L182.62176751035054,12.646647142816732L182.89711657587688,12.231588270812722L183.1724656414032,11.982552947610287L183.45714857355753,17.66739840166352L183.73249763908387,15.244039026120788L184.0125136379242,16.290423392784277L184.28786270345051,14.417854020793243L184.56321176897686,13.294312397598645L184.84322776781718,13.453654087678245L185.11857683334352,12.715792437729618L185.39392589886984,12.273075447760448L185.66927496439618,12.007445253778968L185.9446240299225,11.848067137390046L186.2199730954488,11.752440267556722L186.49532216097515,11.695064145656744L186.7893389597575,21.06690510904724L187.06468802528383,17.28374305055104L187.34003709081014,15.013845815453294L187.61538615633648,13.651907474394648L187.90006908849082,17.240211122311763L188.17541815401714,14.987726658509757L188.45076721954348,13.63623598022852L188.7261162850698,12.825341573259777L189.00146535059613,12.338804929078577L189.27681441612245,12.046882942569795L189.5521634816488,11.871729750664542L189.8368464138031,15.100504491506939L190.11219547932944,13.703902680026857L190.38287761154174,14.17567492227596L190.65822667706806,13.149004938488275L190.93824267590838,13.366469612212029L191.21359174143473,12.663481752449883L191.48894080696104,12.241689036592618L191.76428987248738,11.988613407078248L192.0396389380137,14.813434686499562L192.31498800354004,13.531660797022397L192.59033706906635,12.762596463336138L192.87035306790668,13.134624527120735L193.14570213343302,14.667574694528696L193.42571813227335,14.277611465836259L193.7010671977997,13.210166864624455L193.98108319664001,19.35650008215353L194.25643226216633,16.257500034414818L194.53178132769267,14.398100005771568L194.811797326533,14.830326650293188L195.0871463920593,13.541795975298584L195.36249545758565,12.768677570301833L195.63317758979798,13.614539856440956L195.9085266553243,12.812323898987245L196.18387572085064,12.330994324515046L196.45922478637695,12.042196579831682L196.7345738519033,11.868917933021692L197.0099229174296,11.764950744935703L197.28527198295595,11.702570432084116L197.56528798179627,13.213008906080717L197.8406370473226,12.571405328771107L198.12998691279094,22.42617648291227L198.40533597831725,21.909439195996356L198.6806850438436,17.7892635027205L198.9560341093699,15.317158086755L199.23605010821026,15.381761498883208L199.5160661070506,14.706123548448971L199.78674823926292,14.777007443329268L200.07609810473124,17.08180443967612L200.3514471702576,14.892682648928371L200.6267962357839,13.579209574479677L200.90214530131024,12.791125729810517L201.18216130015057,13.151742087005346L201.45751036567688,12.53464523732589L201.74686023114523,17.52238711035207L202.02220929667155,15.15703225133393L202.2975583621979,16.833552659338153L202.56824049441022,16.053464909862754L202.84358955993653,14.275678931040318L203.11427169214886,14.518740672884036L203.3849538243612,14.664577717990284L203.66030288988748,13.442346615916847L203.9403188887278,13.54247461866916L204.21566795425414,12.769084756324162L204.49568395309447,13.138517502913572L204.77103301862078,12.526710486870826L205.04638208414713,12.159626277245167L205.32173114967344,11.939375751469782L205.6110810151418,24.428292062235414L205.8864300806681,22.396308545879066L206.17111301282245,22.48685176520243L206.4464620783488,18.13571104424412L206.7218111438751,15.525026611669176L207.00182714271546,14.792082616120553L207.27717620824177,13.518849554795025L207.5571922070821,13.588376381996056L207.83720820592242,13.630092478316698L208.11255727144876,12.821655472112695L208.3925732702891,14.836993260379444L208.67258926912942,15.093662603057908L208.96193913459777,18.581530864650517L209.23728820012408,15.792518503912987L209.51263726565043,19.71524440287473L209.78798633117674,19.568479950262628L210.06333539670308,16.38468795528027L210.3433513955434,15.307879422287215L210.61870046106975,13.828327638495011L210.89871645991008,13.774063232216065L211.1740655254364,12.908037924452316L211.44941459096273,12.388422739794066L211.72476365648905,12.07665362899914L212.0001127220154,11.889592162522149L212.2754617875417,11.777355282635995L212.57414551963805,39.571613065440374L212.8494945851644,28.3865678243869L213.12017671737672,22.98527400889199L213.39552578290304,18.43476439045787L213.67087484842935,15.7044586193974L213.9462239139557,14.066275156761122L214.221572979482,13.083365079179345L214.50158897832236,13.327085696626654L214.77693804384867,15.497451393943408L215.047620176061,15.251804150625901L215.32763617490133,21.295882451465616L215.60298524042767,17.421129456002063L215.87833430595398,15.09627765872392L216.1583503047943,15.249233242064605L216.43369937032065,13.793139930361434L216.71371536916098,14.46735060504713L216.9890644346873,13.32401034815095L217.26441350021364,16.44813951513953L217.54442949905396,15.34595035820277L217.8197785645803,13.85117020004435L218.09512763010662,12.95430210514931L218.37514362894694,23.25124788016518L218.65515962778727,19.42781537721814L218.9305086933136,16.30028921145356L219.20585775883993,14.423773511994824L219.48120682436627,13.297864092319571L219.7612228232066,14.170185102222007L220.04590575536093,14.81264437444861L220.32125482088728,13.531186609791888L220.6059377530416,23.478311916665547L220.88595375188194,21.23098712711112L221.16130281740823,17.38219226138935L221.43665188293457,15.072915341956332L221.71200094846088,13.687349190296459L221.9920169473012,14.4038761610081L222.26736601282755,13.285925681727548L222.54271507835387,12.615155394159217L222.8180641438802,15.308426545033342L223.09341320940652,13.828655912142665L223.36409534161885,14.250526861545438L223.6487782737732,28.910716051695942L223.9241273392995,21.990029616140248L224.19947640482584,17.837617754806814L224.47482547035216,15.346170638006782L224.7501745358785,16.947035691341853L225.03485746803284,16.478754727920546L225.31020653355915,14.530852821875015L225.5855555990855,13.362111678247686L225.86557159792582,13.494333656067653L226.14092066345214,12.740200178763303L226.41160279566446,17.050386743788522L226.6869518611908,14.873832031395807L226.96230092671712,13.567899203960167L227.23764999224346,12.7843395074988L227.50833212445576,13.623937018759108L227.7836811899821,12.817962196378147L228.06369718882243,13.167843966945952L228.34371318766276,13.37777302928663L228.6190622531891,12.670263802694677L228.8944113187154,12.245758266739472L229.17442731755574,13.538921606873942L229.45911024971008,18.60121959722167L229.73445931523642,19.376331732011607L230.00980838076273,16.26939902432963L230.28982437960306,15.238706063716847L230.5651734451294,13.786823623352774L230.84052251065572,12.915694159134347L231.11587157618206,12.393016480603308L231.39588757502239,12.912876537480997L231.67123664054873,12.391325907611304L231.94658570607504,14.221595522823009L232.22193477160138,13.176557298816476L232.4972838371277,12.549534364412551L232.772632902654,12.173320603770236L233.04331503486634,13.257325676521958L233.31399716707867,13.907728720173054L233.58934623260498,12.988237217226498L233.86469529813132,12.436542315458581L234.1400443636576,12.105525374397843L234.42006036249796,12.74038187375777L234.7000763613383,14.788229101366454L234.9754254268646,13.51653744594256L235.25077449239095,12.753522452688202L235.53079049123127,13.843580118443185L235.80613955675759,16.759881377314912L236.08148862228393,14.699528811511584L236.35683768781024,13.463317272029656L236.63218675333658,12.721590348340442L236.9215366188049,20.611220834090744L237.19688568433125,17.010332485577123L237.47223474985756,14.849799476468945L237.7569176820119,15.220412998996835L238.03226674753824,13.775847784520778L238.30761581306456,12.909108655835126L238.5829648785909,12.389065178623753L238.8583139441172,12.077039092296928L239.13366300964356,11.889823440500834L239.40434514185588,13.087227378560328L239.6843611406962,13.32940307625526L239.95971020622252,12.641241830875856L240.23505927174887,12.228345083648179L240.50574140396117,13.290340364448781L240.7904243361155,14.999137529495897L241.06577340164185,13.643082502820192L241.34112246716816,12.82944948681481L241.6164715326945,12.341269677211557L241.89648753153483,12.881828455445998L242.17183659706117,12.372697058390287L242.4471856625875,12.067218220156832L242.7272016614278,13.431797578924346L243.00255072695415,12.702678532477307L243.27789979248047,15.360940428024179L243.5579157913208,14.69363090593356L243.83326485684714,13.45977852868279L244.11328085568746,13.552933766328778L244.3979637878418,17.18082689747223L244.67797978668213,15.785562787602402L244.96266271883647,25.902537619918604L245.2380117843628,20.185122557073868L245.51336084988912,16.754673519367003L245.78870991541547,14.696404096742867L246.06405898094178,13.461442443168409L246.3440749797821,14.268332112731287L246.62409097862243,15.704999244750582L246.9041069774628,14.90006619596943L247.1934568429311,19.536973016964197L247.47347284177144,17.19925045929756L247.74415497398377,16.272883589838386L248.0288379061381,16.788663464729666L248.30418697166445,14.716798063960482L248.57953603719076,13.473678823498972L248.8548851027171,16.299807267777965L249.13956803487144,18.828950998341753L249.41491710039776,15.940970584127712L249.69493309923809,15.041648999595708L249.9749490980784,20.693522695706747L250.25029816360475,17.059713602546708L250.52564722913107,14.879428146650724L250.8009962946574,13.571256873113128L251.0763453601837,12.786354108990565L251.35169442571004,12.315412450516988L251.62704349123635,12.032847455432886L251.9023925567627,11.863308458382392L252.177741622289,11.761585060152129L252.45775762112933,12.534017685210358L252.72843975334166,13.473743925386032L253.003788818868,12.727846340354347L253.27913788439432,12.28030778933524L253.55448694992066,12.011784658723826L253.82983601544697,11.850670780356978L254.1145189476013,13.420935781329632L254.39453494644164,31.03242806184076L254.688551745224,28.740123471346237L254.96390081075032,21.88767406793039L255.23924987627663,17.776204425880906L255.52393280843097,16.976255968643983L255.80394880727133,15.66282023030547L256.07929787279767,14.041292123305936L256.354646938324,13.068375259106261L256.6253290705363,13.79435846972359L256.9006781360626,12.920215066956843L257.17602720158897,12.395729025296788L257.4513762671153,12.081037400300772" fill="none"></path></g></g></g></g><g opacity="0.2"><g><g><g><path style="fill: none;" stroke="rgb(255, 112, 67)" stroke-width="2px" d="M23.680019635264077,158.9539994907379L24.0347065671285,175.3256661049525L24.375392699050902,169.07466612497964L24.748747364171344,183.95799941062927L25.084766562779745,113.70866630236307L25.444120427958172,168.77699945926668L25.8081412264506,106.26699965953827L26.16749509162903,120.55499961376191L26.512848156865438,115.19699963092805L26.867535088729856,125.61533293088277L27.21755508728027,89.2999997138977L27.572242019144692,74.1189997625351L27.936262817637125,157.16799949645997L28.28161588287354,180.68366608778635L28.608301214853924,105.67166632811228L28.953654280090333,114.89933296521505L29.28033961207072,108.9459996509552L29.630359610621134,160.73999948501586L29.985046542485556,153.59599950790405L30.349067340977985,130.67566624800364L30.6990873395284,94.06266636530559L31.021105738194784,114.00633296807607L31.366458803431193,72.63066643397012L31.71647880198161,88.70466638247173L32.066498800532024,79.47699974536894L32.40718493245443,89.2999997138977L32.75253799769084,110.43433297952016L33.088557196299234,54.175333159764605L33.419909461593626,85.43033305962881L33.77459639345805,63.10533313115438L34.12461639200846,71.14233310540517L34.44663479067484,59.235666476885484L34.78265398928325,46.435999851226796L35.095338521321615,46.73366651693982L35.41268998667399,45.840666519800834L35.711373718770346,46.1383331855138L36.02872518412273,40.482666536966974L36.332075849533084,42.86399986267091L36.640093448257446,26.492333248456305L36.92010944709778,69.65399977684021L37.24212784576416,60.72399980545043L37.55481237780253,30.957333234151207L37.876830776468914,51.496333168347675L38.198849175135294,64.29599979400635L38.52086757380168,52.38933316548665L38.83821903915405,50.00799983978271L39.14623663787842,35.42233321984608L39.44958730328878,33.93399989128113L39.75760490201314,31.552666565577198L40.09362410062154,86.62099972248078L40.406308632659915,40.482666536966974L40.7329939646403,62.50999979972839L41.03167769673665,43.45933319409687L41.31636062889099,42.566333196957885L41.657046760813394,77.988666416804L41.96039742622376,23.813333257039375L42.25908115832011,27.087666579882296L42.59976729024252,46.1383331855138L42.903117955652874,24.408666588465394L43.22046942100525,41.37566653410593L43.53782088635763,76.79799975395204L43.82717075182597,32.14799989700319L44.15385608380636,40.18499987125395L44.447872882588705,19.94366660277049L44.746556614685055,25.896999917030342L45.040573413467406,21.729666597048436L45.33925714556376,29.171333239873263L45.633273944346115,26.78999991416933L45.91795687650045,22.920333259900417L46.20263980865479,26.492333248456305L46.48265580749512,15.47866661707559L46.762671806335455,43.756999859809866L47.04268780517578,32.14799989700319L47.33670460395813,33.33866655985514L47.62138753611247,25.599333251317347L47.906070468266805,15.776333282788613L48.190753400421144,17.562333277066557L48.47076939926148,48.22199984550477L48.750785398101804,13.692666622797645L49.02613446362813,11.608999962806706L49.320151262410484,23.515666591326408L49.618834994506834,23.813333257039375L49.89418406003316,16.966999945640566L50.16953312555949,11.608999962806706L50.44488219108582,11.608999962806706L50.74823285649617,38.398999876976006L51.02824885533651,13.692666622797645L51.303597920862835,11.608999962806706L51.57428005307516,14.883333285649627L51.849629118601484,11.608999962806706L52.12964511744182,17.859999942779524L52.404994182968146,11.608999962806706L52.68034324849447,11.608999962806706L52.95569231402079,11.608999962806706L53.231041379547115,11.608999962806706L53.50639044507344,11.608999962806706L53.786406443913776,13.692666622797645L54.061755509440104,11.608999962806706L54.33710457496643,11.608999962806706L54.61245364049276,11.608999962806706L54.88780270601909,11.608999962806706L55.163151771545415,11.608999962806706L55.43850083707174,11.608999962806706L55.71384990259806,11.608999962806706L55.989198968124384,11.608999962806706L56.26454803365071,11.608999962806706L56.53989709917704,11.608999962806706L56.81524616470337,11.608999962806706L57.0952621635437,15.47866661707559L57.38461202901204,27.38533324559529L57.66929496116638,19.94366660277049L57.94931096000671,13.692666622797645L58.22932695884705,17.859999942779524L58.51400989100138,17.562333277066557L58.79402588984171,25.896999917030342L59.06937495536804,11.608999962806706L59.35405788752238,18.157666608492548L59.634073886362714,15.47866661707559L59.90942295188904,11.608999962806706L60.18477201741536,18.75299993991851L60.46012108294169,11.608999962806706L60.73547014846802,11.608999962806706L61.010819213994345,11.608999962806706L61.286168279520666,11.608999962806706L61.566184278361,13.692666622797645L61.84153334388733,11.608999962806706L62.116882409413655,11.608999962806706L62.39223147493998,11.608999962806706L62.68158134040832,24.70633325417836L62.95693040593465,11.608999962806706L63.23227947146098,11.608999962806706L63.507628536987305,11.608999962806706L63.78297760251363,11.608999962806706L64.06299360135397,13.692666622797645L64.3383426668803,11.608999962806706L64.61369173240662,20.538999934196482L64.88904079793295,11.608999962806706L65.16438986345926,11.608999962806706L65.43973892898559,11.608999962806706L65.71508799451192,11.608999962806706L65.99043706003825,11.608999962806706L66.26111919225058,14.883333285649627L66.5364682577769,11.608999962806706L66.82115118993123,15.776333282788613L67.09650025545756,11.608999962806706L67.37184932098388,11.608999962806706L67.64719838651021,11.608999962806706L67.92254745203654,14.287999954223636L68.19789651756287,11.608999962806706L68.46857864977518,14.883333285649627L68.74392771530151,11.608999962806706L69.01927678082784,11.608999962806706L69.29462584635417,11.608999962806706L69.5746418451945,13.692666622797645L69.84999091072082,11.608999962806706L70.12533997624715,11.608999962806706L70.40068904177348,11.608999962806706L70.6760381072998,11.608999962806706L70.95138717282613,11.608999962806706L71.23607010498047,15.776333282788613L71.5114191705068,11.608999962806706L71.78676823603313,11.608999962806706L72.06211730155945,11.608999962806706L72.33746636708578,11.608999962806706L72.6128154326121,11.608999962806706L72.88816449813842,11.608999962806706L73.16351356366475,11.608999962806706L73.43886262919108,11.608999962806706L73.7142116947174,11.608999962806706L73.98956076024373,11.608999962806706L74.26490982577006,11.608999962806706L74.54025889129639,11.608999962806706L74.81560795682272,11.608999962806706L75.09095702234904,11.608999962806706L75.36630608787537,11.608999962806706L75.6416551534017,11.608999962806706L75.92167115224203,13.692666622797645L76.19702021776835,11.608999962806706L76.47236928329468,11.608999962806706L76.74771834882101,11.608999962806706L77.02306741434734,11.608999962806706L77.29841647987367,11.608999962806706L77.5737655454,11.608999962806706L77.84911461092632,11.608999962806706L78.12446367645265,11.608999962806706L78.39981274197896,11.608999962806706L78.67516180750528,11.608999962806706L78.9505108730316,11.608999962806706L79.23052687187194,13.692666622797645L79.50587593739827,11.608999962806706L79.7812250029246,11.608999962806706L80.05657406845093,11.608999962806706L80.33192313397726,11.608999962806706L80.60260526618957,14.883333285649627L80.8779543317159,11.608999962806706L81.15330339724223,11.608999962806706L81.42865246276855,11.608999962806706L81.70400152829488,11.608999962806706L81.97935059382121,11.608999962806706L82.25469965934754,11.608999962806706L82.53004872487386,11.608999962806706L82.80539779040019,11.608999962806706L83.08074685592652,11.608999962806706L83.35609592145285,11.608999962806706L83.63144498697918,11.608999962806706L83.9067940525055,11.608999962806706L84.18214311803182,11.608999962806706L84.45749218355814,11.608999962806706L84.73284124908447,11.608999962806706L85.0081903146108,11.608999962806706L85.28353938013713,11.608999962806706L85.55888844566346,11.608999962806706L85.83423751118977,11.608999962806706L86.1095865767161,11.608999962806706L86.38493564224243,11.608999962806706L86.66028470776875,11.608999962806706L86.93563377329508,11.608999962806706L87.21098283882141,11.608999962806706L87.48633190434774,11.608999962806706L87.76168096987406,11.608999962806706L88.03703003540039,11.608999962806706L88.31237910092672,11.608999962806706L88.58772816645305,11.608999962806706L88.86307723197937,11.608999962806706L89.1384262975057,11.608999962806706L89.41377536303203,11.608999962806706L89.68912442855834,11.608999962806706L89.96447349408467,11.608999962806706L90.239822559611,11.608999962806706L90.51517162513733,11.608999962806706L90.79052069066366,11.608999962806706L91.06586975618998,11.608999962806706L91.34121882171631,11.608999962806706L91.61656788724264,11.608999962806706L91.89191695276897,11.608999962806706L92.1672660182953,11.608999962806706L92.44261508382162,11.608999962806706L92.72263108266195,13.692666622797645L93.00264708150227,13.692666622797645L93.2779961470286,11.608999962806706L93.55334521255493,11.608999962806706L93.83336121139527,15.47866661707559L94.1087102769216,11.608999962806706L94.38872627576193,13.692666622797645L94.66407534128825,11.608999962806706L94.95342520675659,37.803666545550016L95.22877427228292,11.608999962806706L95.50412333780925,11.608999962806706L95.78413933664959,13.692666622797645L96.05948840217592,11.608999962806706L96.33483746770224,11.608999962806706L96.61018653322856,11.608999962806706L96.88553559875487,11.608999962806706L97.1608846642812,11.608999962806706L97.43623372980753,11.608999962806706L97.71158279533385,11.608999962806706L97.98693186086018,11.608999962806706L98.26228092638651,11.608999962806706L98.53762999191284,11.608999962806706L98.81297905743916,11.608999962806706L99.08832812296549,11.608999962806706L99.36367718849182,11.608999962806706L99.63902625401815,11.608999962806706L99.91437531954448,11.608999962806706L100.1897243850708,11.608999962806706L100.46507345059713,11.608999962806706L100.74042251612346,11.608999962806706L101.01577158164979,11.608999962806706L101.29112064717611,11.608999962806706L101.56646971270244,11.608999962806706L101.84181877822877,11.608999962806706L102.1171678437551,11.608999962806706L102.39251690928141,11.608999962806706L102.66786597480774,11.608999962806706L102.94321504033405,11.608999962806706L103.21856410586038,11.608999962806706L103.49391317138671,11.608999962806706L103.76926223691304,11.608999962806706L104.04461130243936,11.608999962806706L104.3246273012797,13.692666622797645L104.59997636680603,11.608999962806706L104.87532543233236,11.608999962806706L105.15067449785869,11.608999962806706L105.42602356338502,11.608999962806706L105.70137262891134,11.608999962806706L105.97672169443767,11.608999962806706L106.25207075996398,11.608999962806706L106.52741982549031,11.608999962806706L106.80276889101664,11.608999962806706L107.07811795654297,11.608999962806706L107.3534670220693,11.608999962806706L107.62881608759562,11.608999962806706L107.90416515312195,11.608999962806706L108.18418115196229,13.692666622797645L108.45486328417459,14.883333285649627L108.73021234970092,11.608999962806706L109.01022834854125,13.692666622797645L109.28557741406757,11.608999962806706L109.5609264795939,11.608999962806706L109.83627554512023,11.608999962806706L110.11162461064656,11.608999962806706L110.38697367617289,11.608999962806706L110.66232274169921,11.608999962806706L110.93767180722554,11.608999962806706L111.21768780606588,17.859999942779524L111.49303687159221,11.608999962806706L111.76838593711854,11.608999962806706L112.04373500264487,11.608999962806706L112.31908406817118,11.608999962806706L112.5944331336975,11.608999962806706L112.86978219922383,11.608999962806706L113.14513126475016,11.608999962806706L113.42048033027649,11.608999962806706L113.69582939580282,11.608999962806706L113.97117846132915,11.608999962806706L114.24652752685546,11.608999962806706L114.52187659238179,11.608999962806706L114.79722565790811,11.608999962806706L115.07257472343444,11.608999962806706L115.34792378896077,11.608999962806706L115.6232728544871,11.608999962806706L115.89862192001343,11.608999962806706L116.17397098553975,11.608999962806706L116.44932005106608,11.608999962806706L116.72466911659241,11.608999962806706L116.99535124880472,14.883333285649627L117.27536724764506,17.859999942779524L117.55071631317139,11.608999962806706L117.82606537869772,11.608999962806706L118.10141444422405,11.608999962806706L118.37676350975038,11.608999962806706L118.6521125752767,11.608999962806706L118.92746164080303,11.608999962806706L119.20281070632936,11.608999962806706L119.47815977185567,11.608999962806706L119.75350883738199,11.608999962806706L120.02885790290831,11.608999962806706L120.30420696843464,11.608999962806706L120.57955603396097,11.608999962806706L120.8549050994873,11.608999962806706L121.13025416501362,11.608999962806706L121.40560323053995,11.608999962806706L121.68095229606628,11.608999962806706L121.95630136159261,11.608999962806706L122.23165042711894,11.608999962806706L122.51166642595926,13.692666622797645L122.78701549148559,11.608999962806706L123.06236455701192,11.608999962806706L123.33771362253825,11.608999962806706L123.61306268806457,11.608999962806706L123.8884117535909,11.608999962806706L124.16376081911723,11.608999962806706L124.43910988464356,11.608999962806706L124.71445895016988,11.608999962806706L124.98980801569621,11.608999962806706L125.27449094785055,18.455333274205543L125.54984001337688,11.608999962806706L125.82518907890321,11.608999962806706L126.10053814442952,11.608999962806706L126.37588720995585,11.608999962806706L126.65123627548218,11.608999962806706L126.9265853410085,11.608999962806706L127.20193440653483,11.608999962806706L127.47728347206116,11.608999962806706L127.74796560427347,14.883333285649627L128.0279816031138,13.692666622797645L128.30333066864014,11.608999962806706L128.57867973416646,27.98066657702128L128.8540287996928,11.608999962806706L129.1293778652191,11.608999962806706L129.40472693074545,11.608999962806706L129.68007599627177,11.608999962806706L129.9554250617981,11.608999962806706L130.23544106063844,13.692666622797645L130.51079012616475,11.608999962806706L130.7861391916911,11.608999962806706L131.0614882572174,11.608999962806706L131.33683732274375,11.608999962806706L131.61218638827006,11.608999962806706L131.88753545379637,11.608999962806706L132.16288451932272,11.608999962806706L132.43356665153502,14.883333285649627L132.70891571706136,11.608999962806706L132.98426478258767,11.608999962806706L133.25961384811401,11.608999962806706L133.53496291364033,11.608999962806706L133.81031197916667,11.608999962806706L134.08566104469298,11.608999962806706L134.36567704353334,15.47866661707559L134.64102610905965,11.608999962806706L134.91637517458597,19.3483332713445L135.1917242401123,11.608999962806706L135.46707330563862,11.608999962806706L135.74242237116496,11.608999962806706L136.01777143669128,11.608999962806706L136.29312050221762,11.608999962806706L136.56846956774393,11.608999962806706L136.84381863327027,11.608999962806706L137.1191676987966,11.608999962806706L137.39918369763694,15.47866661707559L137.67453276316323,11.608999962806706L137.94988182868957,11.608999962806706L138.22523089421588,11.608999962806706L138.50057995974223,11.608999962806706L138.77592902526854,11.608999962806706L139.05127809079488,11.608999962806706L139.3266271563212,11.608999962806706L139.60197622184754,11.608999962806706L139.87732528737385,11.608999962806706L140.1526743529002,11.608999962806706L140.4280234184265,11.608999962806706L140.70337248395282,11.608999962806706L140.97872154947916,11.608999962806706L141.25407061500547,11.608999962806706L141.52941968053182,11.608999962806706L141.80476874605813,11.608999962806706L142.08011781158447,11.608999962806706L142.35546687711079,11.608999962806706L142.63081594263713,11.608999962806706L142.91083194147745,17.859999942779524L143.18618100700377,11.608999962806706L143.4615300725301,11.608999962806706L143.73687913805642,11.608999962806706L144.01222820358277,11.608999962806706L144.28757726910908,11.608999962806706L144.56292633463542,11.608999962806706L144.83360846684772,14.883333285649627L145.10895753237406,11.608999962806706L145.38430659790038,11.608999962806706L145.65965566342672,11.608999962806706L145.93500472895303,11.608999962806706L146.21035379447937,11.608999962806706L146.4857028600057,11.608999962806706L146.76105192553203,11.608999962806706L147.03640099105834,11.608999962806706L147.31175005658469,11.608999962806706L147.587099122111,11.608999962806706L147.86244818763734,11.608999962806706L148.13779725316365,11.608999962806706L148.41314631869,11.608999962806706L148.6884953842163,20.538999934196482L148.96384444974265,11.608999962806706L149.24386044858298,17.859999942779524L149.5192095141093,11.608999962806706L149.79455857963563,11.608999962806706L150.06990764516195,11.608999962806706L150.3452567106883,11.608999962806706L150.62527270952862,13.692666622797645L150.90062177505496,11.608999962806706L151.17597084058127,11.608999962806706L151.45131990610759,11.608999962806706L151.72666897163393,11.608999962806706L152.0020180371602,11.608999962806706L152.27736710268655,11.608999962806706L152.55271616821287,11.608999962806706L152.8280652337392,11.608999962806706L153.10808123257954,13.692666622797645L153.38343029810585,11.608999962806706L153.6587793636322,11.608999962806706L153.92946149584452,14.883333285649627L154.20481056137083,11.608999962806706L154.48015962689718,11.608999962806706L154.7555086924235,11.608999962806706L155.03085775794983,11.608999962806706L155.31554069010417,26.19466658274331L155.58622282231647,14.883333285649627L155.86623882115683,13.692666622797645L156.13692095336913,14.883333285649627L156.41227001889547,11.608999962806706L156.6829521511078,14.883333285649627L156.9583012166341,11.608999962806706L157.23365028216045,11.608999962806706L157.50899934768677,11.608999962806706L157.78434841321308,11.608999962806706L158.0550305454254,14.883333285649627L158.33037961095175,11.608999962806706L158.60572867647807,11.608999962806706L158.8810777420044,11.608999962806706L159.15642680753072,11.608999962806706L159.43177587305706,11.608999962806706L159.70712493858338,11.608999962806706L159.98247400410972,11.608999962806706L160.25782306963603,11.608999962806706L160.53317213516237,11.608999962806706L160.8131881340027,13.692666622797645L161.08853719952901,11.608999962806706L161.36388626505536,11.608999962806706L161.63923533058167,11.608999962806706L161.914584396108,11.608999962806706L162.18993346163433,11.608999962806706L162.46528252716067,11.608999962806706L162.74063159268698,11.608999962806706L163.01598065821332,11.608999962806706L163.2866627904256,14.883333285649627L163.56201185595194,11.608999962806706L163.83736092147825,11.608999962806706L164.11737692031858,13.692666622797645L164.39739291915893,13.692666622797645L164.67274198468525,11.608999962806706L164.9480910502116,11.608999962806706L165.2234401157379,11.608999962806706L165.49878918126424,11.608999962806706L165.77413824679056,11.608999962806706L166.05415424563088,15.47866661707559L166.32950331115723,11.608999962806706L166.60485237668354,11.608999962806706L166.88486837552387,13.692666622797645L167.1602174410502,11.608999962806706L167.44023343989053,13.692666622797645L167.71558250541688,11.608999962806706L167.9909315709432,11.608999962806706L168.26628063646953,11.608999962806706L168.54162970199584,11.608999962806706L168.8169787675222,11.608999962806706L169.0923278330485,11.608999962806706L169.37234383188883,18.75299993991851L169.64769289741517,11.608999962806706L169.92304196294148,11.608999962806706L170.19839102846782,11.608999962806706L170.47374009399414,11.608999962806706L170.74908915952048,11.608999962806706L171.0244382250468,11.608999962806706L171.29978729057314,11.608999962806706L171.57513635609945,11.608999962806706L171.8504854216258,11.608999962806706L172.1351683537801,26.19466658274331L172.41051741930644,11.608999962806706L172.68586648483276,11.608999962806706L172.9612155503591,11.608999962806706L173.24123154919943,13.692666622797645L173.51658061472577,11.608999962806706L173.79192968025208,11.608999962806706L174.06727874577842,11.608999962806706L174.33796087799072,14.883333285649627L174.61330994351707,11.608999962806706L174.88865900904338,11.608999962806706L175.16400807456972,11.608999962806706L175.43935714009604,11.608999962806706L175.71470620562235,11.608999962806706L175.99005527114866,11.608999962806706L176.265404336675,11.608999962806706L176.54075340220132,11.608999962806706L176.81610246772766,11.608999962806706L177.09145153325397,11.608999962806706L177.3714675320943,13.692666622797645L177.64681659762064,11.608999962806706L177.93149952977498,21.729666597048436L178.2068485953013,11.608999962806706L178.48219766082764,11.608999962806706L178.75287979303994,14.883333285649627L179.02822885856628,11.608999962806706L179.3082448574066,13.692666622797645L179.58359392293295,11.608999962806706L179.85894298845926,11.608999962806706L180.1342920539856,11.608999962806706L180.40964111951192,11.608999962806706L180.68499018503826,11.608999962806706L180.96033925056457,11.608999962806706L181.2356883160909,11.608999962806706L181.51570431493124,15.47866661707559L181.79105338045756,11.608999962806706L182.0664024459839,11.608999962806706L182.3417515115102,11.608999962806706L182.62176751035054,13.692666622797645L182.89711657587688,11.608999962806706L183.1724656414032,11.608999962806706L183.45714857355753,26.19466658274331L183.73249763908387,11.608999962806706L184.0125136379242,17.859999942779524L184.28786270345051,11.608999962806706L184.56321176897686,11.608999962806706L184.84322776781718,13.692666622797645L185.11857683334352,11.608999962806706L185.39392589886984,11.608999962806706L185.66927496439618,11.608999962806706L185.9446240299225,11.608999962806706L186.2199730954488,11.608999962806706L186.49532216097515,11.608999962806706L186.7893389597575,35.124666554133086L187.06468802528383,11.608999962806706L187.34003709081014,11.608999962806706L187.61538615633648,11.608999962806706L187.90006908849082,22.62266659418742L188.17541815401714,11.608999962806706L188.45076721954348,11.608999962806706L188.7261162850698,11.608999962806706L189.00146535059613,11.608999962806706L189.27681441612245,11.608999962806706L189.5521634816488,11.608999962806706L189.8368464138031,19.94366660277049L190.11219547932944,11.608999962806706L190.38287761154174,14.883333285649627L190.65822667706806,11.608999962806706L190.93824267590838,13.692666622797645L191.21359174143473,11.608999962806706L191.48894080696104,11.608999962806706L191.76428987248738,11.608999962806706L192.0396389380137,19.050666605631505L192.31498800354004,11.608999962806706L192.59033706906635,11.608999962806706L192.87035306790668,13.692666622797645L193.14570213343302,16.966999945640566L193.42571813227335,13.692666622797645L193.7010671977997,11.608999962806706L193.98108319664001,28.575999908447272L194.25643226216633,11.608999962806706L194.53178132769267,11.608999962806706L194.811797326533,15.47866661707559L195.0871463920593,11.608999962806706L195.36249545758565,11.608999962806706L195.63317758979798,14.883333285649627L195.9085266553243,11.608999962806706L196.18387572085064,11.608999962806706L196.45922478637695,11.608999962806706L196.7345738519033,11.608999962806706L197.0099229174296,11.608999962806706L197.28527198295595,11.608999962806706L197.56528798179627,15.47866661707559L197.8406370473226,11.608999962806706L198.12998691279094,37.20833321412405L198.40533597831725,21.134333265622445L198.6806850438436,11.608999962806706L198.9560341093699,11.608999962806706L199.23605010821026,15.47866661707559L199.5160661070506,13.692666622797645L199.78674823926292,14.883333285649627L200.07609810473124,20.538999934196482L200.3514471702576,11.608999962806706L200.6267962357839,11.608999962806706L200.90214530131024,11.608999962806706L201.18216130015057,13.692666622797645L201.45751036567688,11.608999962806706L201.74686023114523,25.003999919891356L202.02220929667155,11.608999962806706L202.2975583621979,19.3483332713445L202.56824049441022,14.883333285649627L202.84358955993653,11.608999962806706L203.11427169214886,14.883333285649627L203.3849538243612,14.883333285649627L203.66030288988748,11.608999962806706L203.9403188887278,13.692666622797645L204.21566795425414,11.608999962806706L204.49568395309447,13.692666622797645L204.77103301862078,11.608999962806706L205.04638208414713,11.608999962806706L205.32173114967344,11.608999962806706L205.6110810151418,43.161666528383904L205.8864300806681,19.3483332713445L206.17111301282245,22.62266659418742L206.4464620783488,11.608999962806706L206.7218111438751,11.608999962806706L207.00182714271546,13.692666622797645L207.27717620824177,11.608999962806706L207.5571922070821,13.692666622797645L207.83720820592242,13.692666622797645L208.11255727144876,11.608999962806706L208.3925732702891,17.859999942779524L208.67258926912942,15.47866661707559L208.96193913459777,23.813333257039375L209.23728820012408,11.608999962806706L209.51263726565043,25.599333251317347L209.78798633117674,19.3483332713445L210.06333539670308,11.608999962806706L210.3433513955434,13.692666622797645L210.61870046106975,11.608999962806706L210.89871645991008,13.692666622797645L211.1740655254364,11.608999962806706L211.44941459096273,11.608999962806706L211.72476365648905,11.608999962806706L212.0001127220154,11.608999962806706L212.2754617875417,11.608999962806706L212.57414551963805,81.2629997396469L212.8494945851644,11.608999962806706L213.12017671737672,14.883333285649627L213.39552578290304,11.608999962806706L213.67087484842935,11.608999962806706L213.9462239139557,11.608999962806706L214.221572979482,11.608999962806706L214.50158897832236,13.692666622797645L214.77693804384867,18.75299993991851L215.047620176061,14.883333285649627L215.32763617490133,30.361999902725216L215.60298524042767,11.608999962806706L215.87833430595398,11.608999962806706L216.1583503047943,15.47866661707559L216.43369937032065,11.608999962806706L216.71371536916098,15.47866661707559L216.9890644346873,11.608999962806706L217.26441350021364,21.134333265622445L217.54442949905396,13.692666622797645L217.8197785645803,11.608999962806706L218.09512763010662,11.608999962806706L218.37514362894694,38.696666542689L218.65515962778727,13.692666622797645L218.9305086933136,11.608999962806706L219.20585775883993,11.608999962806706L219.48120682436627,11.608999962806706L219.7612228232066,15.47866661707559L220.04590575536093,15.776333282788613L220.32125482088728,11.608999962806706L220.6059377530416,38.398999876976006L220.88595375188194,17.859999942779524L221.16130281740823,11.608999962806706L221.43665188293457,11.608999962806706L221.71200094846088,11.608999962806706L221.9920169473012,15.47866661707559L222.26736601282755,11.608999962806706L222.54271507835387,11.608999962806706L222.8180641438802,19.3483332713445L223.09341320940652,11.608999962806706L223.36409534161885,14.883333285649627L223.6487782737732,50.9009998369217L223.9241273392995,11.608999962806706L224.19947640482584,11.608999962806706L224.47482547035216,11.608999962806706L224.7501745358785,19.3483332713445L225.03485746803284,15.776333282788613L225.31020653355915,11.608999962806706L225.5855555990855,11.608999962806706L225.86557159792582,13.692666622797645L226.14092066345214,11.608999962806706L226.41160279566446,23.515666591326408L226.6869518611908,11.608999962806706L226.96230092671712,11.608999962806706L227.23764999224346,11.608999962806706L227.50833212445576,14.883333285649627L227.7836811899821,11.608999962806706L228.06369718882243,13.692666622797645L228.34371318766276,13.692666622797645L228.6190622531891,11.608999962806706L228.8944113187154,11.608999962806706L229.17442731755574,15.47866661707559L229.45911024971008,26.19466658274331L229.73445931523642,20.538999934196482L230.00980838076273,11.608999962806706L230.28982437960306,13.692666622797645L230.5651734451294,11.608999962806706L230.84052251065572,11.608999962806706L231.11587157618206,11.608999962806706L231.39588757502239,13.692666622797645L231.67123664054873,11.608999962806706L231.94658570607504,16.966999945640566L232.22193477160138,11.608999962806706L232.4972838371277,11.608999962806706L232.772632902654,11.608999962806706L233.04331503486634,14.883333285649627L233.31399716707867,14.883333285649627L233.58934623260498,11.608999962806706L233.86469529813132,11.608999962806706L234.1400443636576,11.608999962806706L234.42006036249796,13.692666622797645L234.7000763613383,17.859999942779524L234.9754254268646,11.608999962806706L235.25077449239095,11.608999962806706L235.53079049123127,15.47866661707559L235.80613955675759,21.134333265622445L236.08148862228393,11.608999962806706L236.35683768781024,11.608999962806706L236.63218675333658,11.608999962806706L236.9215366188049,32.445666562716156L237.19688568433125,11.608999962806706L237.47223474985756,11.608999962806706L237.7569176820119,15.776333282788613L238.03226674753824,11.608999962806706L238.30761581306456,11.608999962806706L238.5829648785909,11.608999962806706L238.8583139441172,11.608999962806706L239.13366300964356,11.608999962806706L239.40434514185588,14.883333285649627L239.6843611406962,13.692666622797645L239.95971020622252,11.608999962806706L240.23505927174887,11.608999962806706L240.50574140396117,14.883333285649627L240.7904243361155,17.562333277066557L241.06577340164185,11.608999962806706L241.34112246716816,11.608999962806706L241.6164715326945,11.608999962806706L241.89648753153483,13.692666622797645L242.17183659706117,11.608999962806706L242.4471856625875,11.608999962806706L242.7272016614278,15.47866661707559L243.00255072695415,11.608999962806706L243.27789979248047,19.3483332713445L243.5579157913208,13.692666622797645L243.83326485684714,11.608999962806706L244.11328085568746,13.692666622797645L244.3979637878418,22.62266659418742L244.67797978668213,13.692666622797645L244.96266271883647,41.077999868392936L245.2380117843628,11.608999962806706L245.51336084988912,11.608999962806706L245.78870991541547,11.608999962806706L246.06405898094178,11.608999962806706L246.3440749797821,15.47866661707559L246.62409097862243,17.859999942779524L246.9041069774628,13.692666622797645L247.1934568429311,26.492333248456305L247.47347284177144,13.692666622797645L247.74415497398377,14.883333285649627L248.0288379061381,17.562333277066557L248.30418697166445,11.608999962806706L248.57953603719076,11.608999962806706L248.8548851027171,20.538999934196482L249.13956803487144,22.62266659418742L249.41491710039776,11.608999962806706L249.69493309923809,13.692666622797645L249.9749490980784,29.171333239873263L250.25029816360475,11.608999962806706L250.52564722913107,11.608999962806706L250.8009962946574,11.608999962806706L251.0763453601837,11.608999962806706L251.35169442571004,11.608999962806706L251.62704349123635,11.608999962806706L251.9023925567627,11.608999962806706L252.177741622289,11.608999962806706L252.45775762112933,13.692666622797645L252.72843975334166,14.883333285649627L253.003788818868,11.608999962806706L253.27913788439432,11.608999962806706L253.55448694992066,11.608999962806706L253.82983601544697,11.608999962806706L254.1145189476013,15.776333282788613L254.39453494644164,57.449666482607526L254.688551745224,25.30166658560435L254.96390081075032,11.608999962806706L255.23924987627663,11.608999962806706L255.52393280843097,15.776333282788613L255.80394880727133,13.692666622797645L256.07929787279767,11.608999962806706L256.354646938324,11.608999962806706L256.6253290705363,14.883333285649627L256.9006781360626,11.608999962806706L257.17602720158897,11.608999962806706L257.4513762671153,11.608999962806706" fill="none"></path></g></g></g></g></g></g><g transform="translate(49, 178)" clip-path="url(#clip_1)"><clipPath id="clip_1"><rect width="280" height="21"></rect></clipPath><g><g><line x1="0" y1="0" x2="0" y2="5" style="visibility: inherit;" fill="rgb(0, 0, 0)" stroke="rgb(204, 204, 204)" stroke-width="1px"></line><line x1="23.334666570027668" y1="0" x2="23.334666570027668" y2="5" style="visibility: inherit;" fill="rgb(0, 0, 0)" stroke="rgb(204, 204, 204)" stroke-width="1px"></line><line x1="46.669333140055336" y1="0" x2="46.669333140055336" y2="5" style="visibility: inherit;" fill="rgb(0, 0, 0)" stroke="rgb(204, 204, 204)" stroke-width="1px"></line><line x1="70.00399971008301" y1="0" x2="70.00399971008301" y2="5" style="visibility: inherit;" fill="rgb(0, 0, 0)" stroke="rgb(204, 204, 204)" stroke-width="1px"></line><line x1="93.33866628011067" y1="0" x2="93.33866628011067" y2="5" style="visibility: inherit;" fill="rgb(0, 0, 0)" stroke="rgb(204, 204, 204)" stroke-width="1px"></line><line x1="116.67333285013835" y1="0" x2="116.67333285013835" y2="5" style="visibility: inherit;" fill="rgb(0, 0, 0)" stroke="rgb(204, 204, 204)" stroke-width="1px"></line><line x1="140.00799942016602" y1="0" x2="140.00799942016602" y2="5" style="visibility: inherit;" fill="rgb(0, 0, 0)" stroke="rgb(204, 204, 204)" stroke-width="1px"></line><line x1="163.3426659901937" y1="0" x2="163.3426659901937" y2="5" style="visibility: inherit;" fill="rgb(0, 0, 0)" stroke="rgb(204, 204, 204)" stroke-width="1px"></line><line x1="186.67733256022134" y1="0" x2="186.67733256022134" y2="5" style="visibility: inherit;" fill="rgb(0, 0, 0)" stroke="rgb(204, 204, 204)" stroke-width="1px"></line><line x1="210.01199913024902" y1="0" x2="210.01199913024902" y2="5" style="visibility: inherit;" fill="rgb(0, 0, 0)" stroke="rgb(204, 204, 204)" stroke-width="1px"></line><line x1="233.3466657002767" y1="0" x2="233.3466657002767" y2="5" style="visibility: inherit;" fill="rgb(0, 0, 0)" stroke="rgb(204, 204, 204)" stroke-width="1px"></line><line x1="256.6813322703043" y1="0" x2="256.6813322703043" y2="5" style="visibility: inherit;" fill="rgb(0, 0, 0)" stroke="rgb(204, 204, 204)" stroke-width="1px"></line><line x1="280.01599884033203" y1="0" x2="280.01599884033203" y2="5" style="visibility: inherit;" fill="rgb(0, 0, 0)" stroke="rgb(204, 204, 204)" stroke-width="1px"></line></g><g transform="translate(0, 8)"><text style="text-anchor: middle; visibility: hidden; font-family: &quot;Helvetica Neue&quot;, sans-serif; font-size: 12px; font-weight: 200;" x="0" y="0" dx="0em" dy="0.95em" fill="rgb(50, 49, 63)" stroke="none" stroke-width="1px">-5k</text><text style="text-anchor: middle; visibility: hidden; font-family: &quot;Helvetica Neue&quot;, sans-serif; font-size: 12px; font-weight: 200;" x="23.334666570027668" y="0" dx="0em" dy="0.95em" fill="rgb(50, 49, 63)" stroke="none" stroke-width="1px">0</text><text style="text-anchor: middle; visibility: hidden; font-family: &quot;Helvetica Neue&quot;, sans-serif; font-size: 12px; font-weight: 200;" x="46.669333140055336" y="0" dx="0em" dy="0.95em" fill="rgb(50, 49, 63)" stroke="none" stroke-width="1px">5k</text><text style="text-anchor: middle; visibility: hidden; font-family: &quot;Helvetica Neue&quot;, sans-serif; font-size: 12px; font-weight: 200;" x="70.00399971008301" y="0" dx="0em" dy="0.95em" fill="rgb(50, 49, 63)" stroke="none" stroke-width="1px">10k</text><text style="text-anchor: middle; visibility: hidden; font-family: &quot;Helvetica Neue&quot;, sans-serif; font-size: 12px; font-weight: 200;" x="93.33866628011067" y="0" dx="0em" dy="0.95em" fill="rgb(50, 49, 63)" stroke="none" stroke-width="1px">15k</text><text style="text-anchor: middle; visibility: hidden; font-family: &quot;Helvetica Neue&quot;, sans-serif; font-size: 12px; font-weight: 200;" x="116.67333285013835" y="0" dx="0em" dy="0.95em" fill="rgb(50, 49, 63)" stroke="none" stroke-width="1px">20k</text><text style="text-anchor: middle; visibility: hidden; font-family: &quot;Helvetica Neue&quot;, sans-serif; font-size: 12px; font-weight: 200;" x="140.00799942016602" y="0" dx="0em" dy="0.95em" fill="rgb(50, 49, 63)" stroke="none" stroke-width="1px">25k</text><text style="text-anchor: middle; visibility: hidden; font-family: &quot;Helvetica Neue&quot;, sans-serif; font-size: 12px; font-weight: 200;" x="163.3426659901937" y="0" dx="0em" dy="0.95em" fill="rgb(50, 49, 63)" stroke="none" stroke-width="1px">30k</text><text style="text-anchor: middle; visibility: hidden; font-family: &quot;Helvetica Neue&quot;, sans-serif; font-size: 12px; font-weight: 200;" x="186.67733256022134" y="0" dx="0em" dy="0.95em" fill="rgb(50, 49, 63)" stroke="none" stroke-width="1px">35k</text><text style="text-anchor: middle; visibility: hidden; font-family: &quot;Helvetica Neue&quot;, sans-serif; font-size: 12px; font-weight: 200;" x="210.01199913024902" y="0" dx="0em" dy="0.95em" fill="rgb(50, 49, 63)" stroke="none" stroke-width="1px">40k</text><text style="text-anchor: middle; visibility: hidden; font-family: &quot;Helvetica Neue&quot;, sans-serif; font-size: 12px; font-weight: 200;" x="233.3466657002767" y="0" dx="0em" dy="0.95em" fill="rgb(50, 49, 63)" stroke="none" stroke-width="1px">45k</text><text style="text-anchor: middle; visibility: hidden; font-family: &quot;Helvetica Neue&quot;, sans-serif; font-size: 12px; font-weight: 200;" x="256.6813322703043" y="0" dx="0em" dy="0.95em" fill="rgb(50, 49, 63)" stroke="none" stroke-width="1px">50k</text><text style="text-anchor: middle; visibility: hidden; font-family: &quot;Helvetica Neue&quot;, sans-serif; font-size: 12px; font-weight: 200;" x="280.01599884033203" y="0" dx="0em" dy="0.95em" fill="rgb(50, 49, 63)" stroke="none" stroke-width="1px">55k</text></g><line x1="0" y1="0" x2="280.01599884033203" y2="0" fill="rgb(0, 0, 0)" stroke="rgb(204, 204, 204)" stroke-width="1px"></line></g></g></g></g></svg>