<svg viewBox="0 0 330 200" xmlns="http://www.w3.org/2000/svg"><g><g><g><g><g><line x1="80" y1="178" x2="75" y2="178" style="visibility: inherit;" fill="rgb(0, 0, 0)" stroke="rgb(204, 204, 204)" stroke-width="1px"></line><line x1="80" y1="165.28571428571428" x2="75" y2="165.28571428571428" style="visibility: inherit;" fill="rgb(0, 0, 0)" stroke="rgb(204, 204, 204)" stroke-width="1px"></line><line x1="80" y1="152.57142857142858" x2="75" y2="152.57142857142858" style="visibility: inherit;" fill="rgb(0, 0, 0)" stroke="rgb(204, 204, 204)" stroke-width="1px"></line><line x1="80" y1="139.85714285714286" x2="75" y2="139.85714285714286" style="visibility: inherit;" fill="rgb(0, 0, 0)" stroke="rgb(204, 204, 204)" stroke-width="1px"></line><line x1="80" y1="127.14285714285714" x2="75" y2="127.14285714285714" style="visibility: inherit;" fill="rgb(0, 0, 0)" stroke="rgb(204, 204, 204)" stroke-width="1px"></line><line x1="80" y1="114.42857142857143" x2="75" y2="114.42857142857143" style="visibility: inherit;" fill="rgb(0, 0, 0)" stroke="rgb(204, 204, 204)" stroke-width="1px"></line><line x1="80" y1="101.71428571428572" x2="75" y2="101.71428571428572" style="visibility: inherit;" fill="rgb(0, 0, 0)" stroke="rgb(204, 204, 204)" stroke-width="1px"></line><line x1="80" y1="89" x2="75" y2="89" style="visibility: inherit;" fill="rgb(0, 0, 0)" stroke="rgb(204, 204, 204)" stroke-width="1px"></line><line x1="80" y1="76.28571428571429" x2="75" y2="76.28571428571429" style="visibility: inherit;" fill="rgb(0, 0, 0)" stroke="rgb(204, 204, 204)" stroke-width="1px"></line><line x1="80" y1="63.57142857142857" x2="75" y2="63.57142857142857" style="visibility: inherit;" fill="rgb(0, 0, 0)" stroke="rgb(204, 204, 204)" stroke-width="1px"></line><line x1="80" y1="50.85714285714286" x2="75" y2="50.85714285714286" style="visibility: inherit;" fill="rgb(0, 0, 0)" stroke="rgb(204, 204, 204)" stroke-width="1px"></line><line x1="80" y1="38.14285714285714" x2="75" y2="38.14285714285714" style="visibility: inherit;" fill="rgb(0, 0, 0)" stroke="rgb(204, 204, 204)" stroke-width="1px"></line><line x1="80" y1="25.428571428571445" x2="75" y2="25.428571428571445" style="visibility: inherit;" fill="rgb(0, 0, 0)" stroke="rgb(204, 204, 204)" stroke-width="1px"></line><line x1="80" y1="12.714285714285722" x2="75" y2="12.714285714285722" style="visibility: inherit;" fill="rgb(0, 0, 0)" stroke="rgb(204, 204, 204)" stroke-width="1px"></line><line x1="80" y1="0" x2="75" y2="0" style="visibility: inherit;" fill="rgb(0, 0, 0)" stroke="rgb(204, 204, 204)" stroke-width="1px"></line></g><g transform="translate(70, 0)"><text x="0" y="178" dx="0em" dy="0.3em" style="text-anchor: end; visibility: hidden; font-family: &quot;Helvetica Neue&quot;, sans-serif; font-size: 12px; font-weight: 200;" fill="rgb(50, 49, 63)" stroke="none" stroke-width="1px">-6.5e+3</text><text x="0" y="165.28571428571428" dx="0em" dy="0.3em" style="text-anchor: end; visibility: inherit; font-family: &quot;Helvetica Neue&quot;, sans-serif; font-size: 12px; font-weight: 200;" fill="rgb(50, 49, 63)" stroke="none" stroke-width="1px">-6e+3</text><text x="0" y="152.57142857142858" dx="0em" dy="0.3em" style="text-anchor: end; visibility: hidden; font-family: &quot;Helvetica Neue&quot;, sans-serif; font-size: 12px; font-weight: 200;" fill="rgb(50, 49, 63)" stroke="none" stroke-width="1px">-5.5e+3</text><text x="0" y="139.85714285714286" dx="0em" dy="0.3em" style="text-anchor: end; visibility: inherit; font-family: &quot;Helvetica Neue&quot;, sans-serif; font-size: 12px; font-weight: 200;" fill="rgb(50, 49, 63)" stroke="none" stroke-width="1px">-5e+3</text><text x="0" y="127.14285714285714" dx="0em" dy="0.3em" style="text-anchor: end; visibility: hidden; font-family: &quot;Helvetica Neue&quot;, sans-serif; font-size: 12px; font-weight: 200;" fill="rgb(50, 49, 63)" stroke="none" stroke-width="1px">-4.5e+3</text><text x="0" y="114.42857142857143" dx="0em" dy="0.3em" style="text-anchor: end; visibility: inherit; font-family: &quot;Helvetica Neue&quot;, sans-serif; font-size: 12px; font-weight: 200;" fill="rgb(50, 49, 63)" stroke="none" stroke-width="1px">-4e+3</text><text x="0" y="101.71428571428572" dx="0em" dy="0.3em" style="text-anchor: end; visibility: hidden; font-family: &quot;Helvetica Neue&quot;, sans-serif; font-size: 12px; font-weight: 200;" fill="rgb(50, 49, 63)" stroke="none" stroke-width="1px">-3.5e+3</text><text x="0" y="89" dx="0em" dy="0.3em" style="text-anchor: end; visibility: inherit; font-family: &quot;Helvetica Neue&quot;, sans-serif; font-size: 12px; font-weight: 200;" fill="rgb(50, 49, 63)" stroke="none" stroke-width="1px">-3e+3</text><text x="0" y="76.28571428571429" dx="0em" dy="0.3em" style="text-anchor: end; visibility: hidden; font-family: &quot;Helvetica Neue&quot;, sans-serif; font-size: 12px; font-weight: 200;" fill="rgb(50, 49, 63)" stroke="none" stroke-width="1px">-2.5e+3</text><text x="0" y="63.57142857142857" dx="0em" dy="0.3em" style="text-anchor: end; visibility: inherit; font-family: &quot;Helvetica Neue&quot;, sans-serif; font-size: 12px; font-weight: 200;" fill="rgb(50, 49, 63)" stroke="none" stroke-width="1px">-2e+3</text><text x="0" y="50.85714285714286" dx="0em" dy="0.3em" style="text-anchor: end; visibility: hidden; font-family: &quot;Helvetica Neue&quot;, sans-serif; font-size: 12px; font-weight: 200;" fill="rgb(50, 49, 63)" stroke="none" stroke-width="1px">-1.5e+3</text><text x="0" y="38.14285714285714" dx="0em" dy="0.3em" style="text-anchor: end; visibility: inherit; font-family: &quot;Helvetica Neue&quot;, sans-serif; font-size: 12px; font-weight: 200;" fill="rgb(50, 49, 63)" stroke="none" stroke-width="1px">-1e+3</text><text x="0" y="25.428571428571445" dx="0em" dy="0.3em" style="text-anchor: end; visibility: hidden; font-family: &quot;Helvetica Neue&quot;, sans-serif; font-size: 12px; font-weight: 200;" fill="rgb(50, 49, 63)" stroke="none" stroke-width="1px">-500</text><text x="0" y="12.714285714285722" dx="0em" dy="0.3em" style="text-anchor: end; visibility: inherit; font-family: &quot;Helvetica Neue&quot;, sans-serif; font-size: 12px; font-weight: 200;" fill="rgb(50, 49, 63)" stroke="none" stroke-width="1px">0</text><text x="0" y="0" dx="0em" dy="0.3em" style="text-anchor: end; visibility: hidden; font-family: &quot;Helvetica Neue&quot;, sans-serif; font-size: 12px; font-weight: 200;" fill="rgb(50, 49, 63)" stroke="none" stroke-width="1px">500</text></g><line x1="80" y1="0" x2="80" y2="178" fill="rgb(0, 0, 0)" stroke="rgb(204, 204, 204)" stroke-width="1px"></line></g></g><g transform="translate(80, 0)" clip-path="url(#clip_0)"><clipPath id="clip_0"><rect width="250" height="178"></rect></clipPath><g><g><g><line x1="0" y1="0" x2="0" y2="178" fill="rgb(0, 0, 0)" stroke="rgb(60, 60, 60)" stroke-width="1px" opacity="0.25"></line><line x1="20.833333333333332" y1="0" x2="20.833333333333332" y2="178" fill="rgb(0, 0, 0)" stroke="rgb(60, 60, 60)" stroke-width="1px" opacity="0.25"></line><line x1="41.666666666666664" y1="0" x2="41.666666666666664" y2="178" fill="rgb(0, 0, 0)" stroke="rgb(60, 60, 60)" stroke-width="1px" opacity="0.25"></line><line x1="62.5" y1="0" x2="62.5" y2="178" fill="rgb(0, 0, 0)" stroke="rgb(60, 60, 60)" stroke-width="1px" opacity="0.25"></line><line x1="83.33333333333333" y1="0" x2="83.33333333333333" y2="178" fill="rgb(0, 0, 0)" stroke="rgb(60, 60, 60)" stroke-width="1px" opacity="0.25"></line><line x1="104.16666666666667" y1="0" x2="104.16666666666667" y2="178" fill="rgb(0, 0, 0)" stroke="rgb(60, 60, 60)" stroke-width="1px" opacity="0.25"></line><line x1="125" y1="0" x2="125" y2="178" fill="rgb(0, 0, 0)" stroke="rgb(60, 60, 60)" stroke-width="1px" opacity="0.25"></line><line x1="145.83333333333334" y1="0" x2="145.83333333333334" y2="178" fill="rgb(0, 0, 0)" stroke="rgb(60, 60, 60)" stroke-width="1px" opacity="0.25"></line><line x1="166.66666666666666" y1="0" x2="166.66666666666666" y2="178" fill="rgb(0, 0, 0)" stroke="rgb(60, 60, 60)" stroke-width="1px" opacity="0.25"></line><line x1="187.5" y1="0" x2="187.5" y2="178" fill="rgb(0, 0, 0)" stroke="rgb(60, 60, 60)" stroke-width="1px" opacity="0.25"></line><line x1="208.33333333333334" y1="0" x2="208.33333333333334" y2="178" fill="rgb(0, 0, 0)" stroke="rgb(60, 60, 60)" stroke-width="1px" opacity="0.25"></line><line x1="229.16666666666666" y1="0" x2="229.16666666666666" y2="178" fill="rgb(0, 0, 0)" stroke="rgb(60, 60, 60)" stroke-width="1px" opacity="0.25"></line><line x1="250" y1="0" x2="250" y2="178" fill="rgb(0, 0, 0)" stroke="rgb(60, 60, 60)" stroke-width="1px" opacity="0.25"></line></g><g><line x1="0" y1="178" x2="250" y2="178" fill="rgb(0, 0, 0)" stroke="rgb(60, 60, 60)" stroke-width="1px" opacity="0.25"></line><line x1="0" y1="165.28571428571428" x2="250" y2="165.28571428571428" fill="rgb(0, 0, 0)" stroke="rgb(60, 60, 60)" stroke-width="1px" opacity="0.25"></line><line x1="0" y1="152.57142857142858" x2="250" y2="152.57142857142858" fill="rgb(0, 0, 0)" stroke="rgb(60, 60, 60)" stroke-width="1px" opacity="0.25"></line><line x1="0" y1="139.85714285714286" x2="250" y2="139.85714285714286" fill="rgb(0, 0, 0)" stroke="rgb(60, 60, 60)" stroke-width="1px" opacity="0.25"></line><line x1="0" y1="127.14285714285714" x2="250" y2="127.14285714285714" fill="rgb(0, 0, 0)" stroke="rgb(60, 60, 60)" stroke-width="1px" opacity="0.25"></line><line x1="0" y1="114.42857142857143" x2="250" y2="114.42857142857143" fill="rgb(0, 0, 0)" stroke="rgb(60, 60, 60)" stroke-width="1px" opacity="0.25"></line><line x1="0" y1="101.71428571428572" x2="250" y2="101.71428571428572" fill="rgb(0, 0, 0)" stroke="rgb(60, 60, 60)" stroke-width="1px" opacity="0.25"></line><line x1="0" y1="89" x2="250" y2="89" fill="rgb(0, 0, 0)" stroke="rgb(60, 60, 60)" stroke-width="1px" opacity="0.25"></line><line x1="0" y1="76.28571428571429" x2="250" y2="76.28571428571429" fill="rgb(0, 0, 0)" stroke="rgb(60, 60, 60)" stroke-width="1px" opacity="0.25"></line><line x1="0" y1="63.57142857142857" x2="250" y2="63.57142857142857" fill="rgb(0, 0, 0)" stroke="rgb(60, 60, 60)" stroke-width="1px" opacity="0.25"></line><line x1="0" y1="50.85714285714286" x2="250" y2="50.85714285714286" fill="rgb(0, 0, 0)" stroke="rgb(60, 60, 60)" stroke-width="1px" opacity="0.25"></line><line x1="0" y1="38.14285714285714" x2="250" y2="38.14285714285714" fill="rgb(0, 0, 0)" stroke="rgb(60, 60, 60)" stroke-width="1px" opacity="0.25"></line><line x1="0" y1="25.428571428571445" x2="250" y2="25.428571428571445" fill="rgb(0, 0, 0)" stroke="rgb(60, 60, 60)" stroke-width="1px" opacity="0.25"></line><line x1="0" y1="12.714285714285722" x2="250" y2="12.714285714285722" fill="rgb(0, 0, 0)" stroke="rgb(60, 60, 60)" stroke-width="1px" opacity="0.25"></line><line x1="0" y1="0" x2="250" y2="0" fill="rgb(0, 0, 0)" stroke="rgb(60, 60, 60)" stroke-width="1px" opacity="0.25"></line></g></g></g><g><g><line x1="0" y1="12.714285714285722" x2="250" y2="12.714285714285722" fill="rgb(0, 0, 0)" stroke="rgb(153, 153, 153)" stroke-width="1.5px"></line></g></g><g><g><line x1="20.833333333333332" y1="0" x2="20.833333333333332" y2="178" fill="rgb(0, 0, 0)" stroke="rgb(153, 153, 153)" stroke-width="1.5px"></line></g></g><g><g><g><g><g><path stroke="rgb(255, 112, 67)" stroke-width="2px" d="M25,208.5397142857143L27.083333333333336,117.23038483965016L29.166666666666668,76.94685714285714L31.25,85.47231069693665L33.333333333333336,90.14253767070738L35.416666666666664,101.14130336402252L37.5,107.54014367843455L39.58333333333333,111.30996301459113L41.666666666666664,113.54739240295888L43.75,114.88116002573032L45.83333333333333,115.67831696687242L47.91666666666667,116.15549912742806L50,116.44140924181374" style="fill: none;" fill="none"></path></g><g><path stroke="rgb(238, 51, 119)" stroke-width="2px" d="M22.916666666666664,116.86971428571428L25,116.86971428571428L27.083333333333336,151.27612827988338L29.166666666666668,166.4554285714286L31.25,144.94878635867948L33.333333333333336,133.16748933558387L35.416666666666664,126.46063018326981L37.5,122.55872683124241L39.58333333333333,120.2599554943242L41.666666666666664,118.89560933135874L43.75,118.08230065316025L45.83333333333333,117.59620798825526L47.91666666666667,117.30523047040626L50,117.13088737401932L52.083333333333336,117.02636899572519L54.16666666666667,116.9636894291262L56.25,80.59777240826193L58.333333333333336,58.78216213823771L60.416666666666664,46.45711767292494L62.5,39.062571676008844L64.58333333333334,35.24648786379166L66.66666666666667,32.95689115364155L68.75,31.583152414783484L70.83333333333333,30.758916114752736L72.91666666666667,28.555571976109377L75,27.23356950199954L77.08333333333334,26.033511901523752L79.16666666666666,25.313478127317097L81.25,25.28831543854747L83.33333333333333,25.27321783121937L85.41666666666667,25.264159268958622L87.5,25.258724132371185L89.58333333333333,23.53649154003986L91.66666666666666,22.503152037274646" style="fill: none;" fill="none"></path></g><g><path stroke="rgb(51, 187, 238)" stroke-width="2px" d="M22.916666666666664,167.80314285714283L25,167.80314285714283L27.083333333333336,145.47530029154518L29.166666666666668,135.624781512605L31.25,85.86658590264696L33.333333333333336,58.60914255025317L35.416666666666664,43.092019685231946L37.5,34.064498405027734L39.58333333333333,67.52377719735064L41.666666666666664,87.38222849381403L43.75,99.2201705157206L45.83333333333333,106.2953892348492L47.91666666666667,110.53065080073422L50,113.06826477470493L52.083333333333336,106.96757612691088L54.16666666666667,103.30899926568921L56.25,70.27969451576725L58.333333333333336,50.46569011431764" style="fill: none;" fill="none"></path></g><g><path stroke="rgb(204, 51, 17)" stroke-width="2px" d="M25,196.91885714285718L27.083333333333336,106.95879883381924L29.166666666666668,67.27053781512605L31.25,48.57111252106671L33.333333333333336,38.32760349854229L35.416666666666664,35.19598246689969L37.5,33.374074130502066" style="fill: none;" fill="none"></path></g><g><path stroke="rgb(238, 51, 119)" stroke-width="2px" d="M22.916666666666664,124.75257142857143L25,124.75257142857143L27.083333333333336,81.06991836734694L29.166666666666668,61.79815966386553L31.25,77.4234002181025L33.333333333333336,85.98287678379624L35.416666666666664,98.69342580977715L37.5,106.08814407122624L39.58333333333333,110.44467596102112L41.666666666666664,113.0303257262764L43.75,114.5716731129933L45.83333333333333,115.4928948813546L47.91666666666667,116.04434287244621L50,116.37475035881823L52.083333333333336,116.57282906320923L54.16666666666667,116.69161666349886L56.25,116.76286777281766L58.333333333333336,116.80561071894806L60.416666666666664,94.00517706473646L62.5,80.32580609936579L64.58333333333334,68.62962708111766L66.66666666666667,61.61208388257134L68.75,56.893041633268496L70.83333333333333,54.06164013512965L72.91666666666667,44.5612999284798L75,38.86111309075352L77.08333333333334,37.35323773972763L79.16666666666666,36.44851351682209L81.25,35.9056793386539L83.33333333333333,35.5799789597599L85.41666666666667,32.06867262438672L87.5,29.961889121245974L89.58333333333333,27.212790484329872L91.66666666666666,25.563331386196126L93.75,23.719255942873843L95.83333333333334,22.612810697169095L97.91666666666667,22.589743561015865L100,22.575903279415257L102.08333333333333,24.266227685700756L104.16666666666667,25.2804223270619L106.25,61.91613913990652L108.33333333333334,83.89756920880775L110.41666666666666,97.0864272433785L112.5,104.99974206168373L114.58333333333333,109.74773095178948L116.66666666666667,112.59652428553707L118.75,114.30580028567192L120.83333333333333,115.3313658857119L122.91666666666666,115.94670524572113L125,116.3159088617214L127.08333333333333,116.53743103131961L129.16666666666669,116.67034433307788L131.25,116.75009231413259L133.33333333333334,116.7979411027653L135.41666666666666,116.82665037594492L137.5,116.84387593985267L139.58333333333334,116.85421127819733L141.66666666666666,116.86041248120412L143.75,116.8641332030082L145.83333333333334,116.86636563609063L147.91666666666666,116.8677050959401L150,116.86850877184975L152.08333333333331,116.86899097739555L154.16666666666669,116.86928030072306L156.25,116.86945389471956L158.33333333333331,116.86955805111745L160.41666666666669,116.86962054495618L162.5,116.86965804125941L164.58333333333334,116.86968053904135L166.66666666666666,116.86969403771053L168.75,116.86970213691204L170.83333333333334,116.86970699643294L172.91666666666666,116.86970991214548L175,116.86971166157299L177.08333333333334,116.86971271122951L179.16666666666666,129.5839990553091L181.25,137.2125708617569L183.33333333333331,129.07542823133986L185.41666666666669,124.19314265308962L187.5,121.26377130613949L189.58333333333331,119.50614849796939L191.66666666666669,118.45157481306735L193.75,117.81883060212614L195.83333333333334,117.4391840755614L197.91666666666666,117.21139615962255L200,117.07472341005925L202.08333333333334,116.99271976032126L204.16666666666666,116.94351757047848L206.25,116.9139962565728L208.33333333333334,116.8962834682294L210.41666666666666,116.88565579522334L212.5,116.87927919141973L214.58333333333331,84.87613894342326L216.66666666666669,65.67425479462537L218.75,51.52889573391809L220.83333333333331,43.04168029749371L222.91666666666669,39.861579607067654L225,37.953519192812024L227.08333333333334,34.89645437283005L229.16666666666666,33.062215480840905" style="fill: none;" fill="none"></path></g></g></g></g><g opacity="0.2"><g><g><g><path stroke="rgb(255, 112, 67)" stroke-width="2px" d="M25,208.5397142857143L27.083333333333336,29.573428571428565L29.166666666666668,29.573428571428565L31.25,96.60314285714286L33.333333333333336,96.60314285714286L35.416666666666664,116.86971428571428L37.5,116.86971428571428L39.58333333333333,116.86971428571428L41.666666666666664,116.86971428571428L43.75,116.86971428571428L45.83333333333333,116.86971428571428L47.91666666666667,116.86971428571428L50,116.86971428571428" style="fill: none;" fill="none"></path></g><g><path stroke="rgb(238, 51, 119)" stroke-width="2px" d="M22.916666666666664,116.86971428571428L25,116.86971428571428L27.083333333333336,184.3062857142857L29.166666666666668,184.3062857142857L31.25,116.86971428571428L33.333333333333336,116.86971428571428L35.416666666666664,116.86971428571428L37.5,116.86971428571428L39.58333333333333,116.86971428571428L41.666666666666664,116.86971428571428L43.75,116.86971428571428L45.83333333333333,116.86971428571428L47.91666666666667,116.86971428571428L50,116.86971428571428L52.083333333333336,116.86971428571428L54.16666666666667,116.86971428571428L56.25,26.064285714285717L58.333333333333336,26.064285714285717L60.416666666666664,27.97142857142856L62.5,27.97142857142856L64.58333333333334,29.52257142857141L66.66666666666667,29.52257142857141L68.75,29.52257142857141L70.83333333333333,29.52257142857141L72.91666666666667,25.250571428571448L75,25.250571428571448L77.08333333333334,24.23342857142856L79.16666666666666,24.23342857142856L81.25,25.250571428571448L83.33333333333333,25.250571428571448L85.41666666666667,25.250571428571448L87.5,25.250571428571448L89.58333333333333,20.953142857142836L91.66666666666666,20.953142857142836" style="fill: none;" fill="none"></path></g><g><path stroke="rgb(51, 187, 238)" stroke-width="2px" d="M22.916666666666664,167.80314285714286L25,167.80314285714286L27.083333333333336,124.04057142857143L29.166666666666668,124.04057142857143L31.25,20.90228571428571L33.333333333333336,20.90228571428571L35.416666666666664,20.90228571428571L37.5,20.90228571428571L39.58333333333333,116.86971428571428L41.666666666666664,116.86971428571428L43.75,116.86971428571428L45.83333333333333,116.86971428571428L47.91666666666667,116.86971428571428L50,116.86971428571428L52.083333333333336,97.82371428571427L54.16666666666667,97.82371428571427L56.25,20.749714285714276L58.333333333333336,20.749714285714276" style="fill: none;" fill="none"></path></g><g><path stroke="rgb(204, 51, 17)" stroke-width="2px" d="M25,196.91885714285715L27.083333333333336,20.59714285714287L29.166666666666668,20.59714285714287L31.25,24.157142857142844L33.333333333333336,24.157142857142844L35.416666666666664,30.717714285714294L37.5,30.717714285714294" style="fill: none;" fill="none"></path></g><g><path stroke="rgb(238, 51, 119)" stroke-width="2px" d="M22.916666666666664,124.75257142857143L25,124.75257142857143L27.083333333333336,39.134571428571434L29.166666666666668,39.134571428571434L31.25,97.82371428571427L33.333333333333336,97.82371428571427L35.416666666666664,116.86971428571428L37.5,116.86971428571428L39.58333333333333,116.86971428571428L41.666666666666664,116.86971428571428L43.75,116.86971428571428L45.83333333333333,116.86971428571428L47.91666666666667,116.86971428571428L50,116.86971428571428L52.083333333333336,116.86971428571428L54.16666666666667,116.86971428571428L56.25,116.86971428571428L58.333333333333336,116.86971428571428L60.416666666666664,59.80799999999999L62.5,59.80799999999999L64.58333333333334,51.08600000000001L66.66666666666667,51.08600000000001L68.75,49.81457142857141L70.83333333333333,49.81457142857141L72.91666666666667,30.310857142857145L75,30.310857142857145L77.08333333333334,35.091428571428565L79.16666666666666,35.091428571428565L81.25,35.091428571428565L83.33333333333333,35.091428571428565L85.41666666666667,26.801714285714297L87.5,26.801714285714297L89.58333333333333,23.08914285714286L91.66666666666666,23.08914285714286L93.75,20.953142857142836L95.83333333333334,20.953142857142836L97.91666666666667,22.55514285714284L100,22.55514285714284L102.08333333333333,26.801714285714297L104.16666666666667,26.801714285714297L106.25,116.86971428571428L108.33333333333334,116.86971428571428L110.41666666666666,116.86971428571428L112.5,116.86971428571428L114.58333333333333,116.86971428571428L116.66666666666667,116.86971428571428L118.75,116.86971428571428L120.83333333333333,116.86971428571428L122.91666666666666,116.86971428571428L125,116.86971428571428L127.08333333333333,116.86971428571428L129.16666666666669,116.86971428571428L131.25,116.86971428571428L133.33333333333334,116.86971428571428L135.41666666666666,116.86971428571428L137.5,116.86971428571428L139.58333333333334,116.86971428571428L141.66666666666666,116.86971428571428L143.75,116.86971428571428L145.83333333333334,116.86971428571428L147.91666666666666,116.86971428571428L150,116.86971428571428L152.08333333333331,116.86971428571428L154.16666666666669,116.86971428571428L156.25,116.86971428571428L158.33333333333331,116.86971428571428L160.41666666666669,116.86971428571428L162.5,116.86971428571428L164.58333333333334,116.86971428571428L166.66666666666666,116.86971428571428L168.75,116.86971428571428L170.83333333333334,116.86971428571428L172.91666666666666,116.86971428571428L175,116.86971428571428L177.08333333333334,116.86971428571428L179.16666666666666,148.65542857142856L181.25,148.65542857142856L183.33333333333331,116.86971428571428L185.41666666666669,116.86971428571428L187.5,116.86971428571428L189.58333333333331,116.86971428571428L191.66666666666669,116.86971428571428L193.75,116.86971428571428L195.83333333333334,116.86971428571428L197.91666666666666,116.86971428571428L200,116.86971428571428L202.08333333333334,116.86971428571428L204.16666666666666,116.86971428571428L206.25,116.86971428571428L208.33333333333334,116.86971428571428L210.41666666666666,116.86971428571428L212.5,116.86971428571428L214.58333333333331,36.87142857142857L216.66666666666669,36.87142857142857L218.75,30.310857142857145L220.83333333333331,30.310857142857145L222.91666666666669,35.091428571428565L225,35.091428571428565L227.08333333333334,30.310857142857145L229.16666666666666,30.310857142857145" style="fill: none;" fill="none"></path></g></g></g></g></g></g><g transform="translate(80, 178)" clip-path="url(#clip_1)"><clipPath id="clip_1"><rect width="250" height="22"></rect></clipPath><g><g><line x1="0" y1="0" x2="0" y2="5" style="visibility: inherit;" fill="rgb(0, 0, 0)" stroke="rgb(204, 204, 204)" stroke-width="1px"></line><line x1="20.833333333333332" y1="0" x2="20.833333333333332" y2="5" style="visibility: inherit;" fill="rgb(0, 0, 0)" stroke="rgb(204, 204, 204)" stroke-width="1px"></line><line x1="41.666666666666664" y1="0" x2="41.666666666666664" y2="5" style="visibility: inherit;" fill="rgb(0, 0, 0)" stroke="rgb(204, 204, 204)" stroke-width="1px"></line><line x1="62.5" y1="0" x2="62.5" y2="5" style="visibility: inherit;" fill="rgb(0, 0, 0)" stroke="rgb(204, 204, 204)" stroke-width="1px"></line><line x1="83.33333333333333" y1="0" x2="83.33333333333333" y2="5" style="visibility: inherit;" fill="rgb(0, 0, 0)" stroke="rgb(204, 204, 204)" stroke-width="1px"></line><line x1="104.16666666666667" y1="0" x2="104.16666666666667" y2="5" style="visibility: inherit;" fill="rgb(0, 0, 0)" stroke="rgb(204, 204, 204)" stroke-width="1px"></line><line x1="125" y1="0" x2="125" y2="5" style="visibility: inherit;" fill="rgb(0, 0, 0)" stroke="rgb(204, 204, 204)" stroke-width="1px"></line><line x1="145.83333333333334" y1="0" x2="145.83333333333334" y2="5" style="visibility: inherit;" fill="rgb(0, 0, 0)" stroke="rgb(204, 204, 204)" stroke-width="1px"></line><line x1="166.66666666666666" y1="0" x2="166.66666666666666" y2="5" style="visibility: inherit;" fill="rgb(0, 0, 0)" stroke="rgb(204, 204, 204)" stroke-width="1px"></line><line x1="187.5" y1="0" x2="187.5" y2="5" style="visibility: inherit;" fill="rgb(0, 0, 0)" stroke="rgb(204, 204, 204)" stroke-width="1px"></line><line x1="208.33333333333334" y1="0" x2="208.33333333333334" y2="5" style="visibility: inherit;" fill="rgb(0, 0, 0)" stroke="rgb(204, 204, 204)" stroke-width="1px"></line><line x1="229.16666666666666" y1="0" x2="229.16666666666666" y2="5" style="visibility: inherit;" fill="rgb(0, 0, 0)" stroke="rgb(204, 204, 204)" stroke-width="1px"></line><line x1="250" y1="0" x2="250" y2="5" style="visibility: inherit;" fill="rgb(0, 0, 0)" stroke="rgb(204, 204, 204)" stroke-width="1px"></line></g><g transform="translate(0, 8)"><text x="0" y="0" dx="0em" dy="0.95em" style="text-anchor: middle; visibility: hidden; font-family: &quot;Helvetica Neue&quot;, sans-serif; font-size: 12px; font-weight: 200;" fill="rgb(50, 49, 63)" stroke="none" stroke-width="1px">-10</text><text x="20.833333333333332" y="0" dx="0em" dy="0.95em" style="text-anchor: middle; visibility: inherit; font-family: &quot;Helvetica Neue&quot;, sans-serif; font-size: 12px; font-weight: 200;" fill="rgb(50, 49, 63)" stroke="none" stroke-width="1px">0</text><text x="41.666666666666664" y="0" dx="0em" dy="0.95em" style="text-anchor: middle; visibility: hidden; font-family: &quot;Helvetica Neue&quot;, sans-serif; font-size: 12px; font-weight: 200;" fill="rgb(50, 49, 63)" stroke="none" stroke-width="1px">10</text><text x="62.5" y="0" dx="0em" dy="0.95em" style="text-anchor: middle; visibility: inherit; font-family: &quot;Helvetica Neue&quot;, sans-serif; font-size: 12px; font-weight: 200;" fill="rgb(50, 49, 63)" stroke="none" stroke-width="1px">20</text><text x="83.33333333333333" y="0" dx="0em" dy="0.95em" style="text-anchor: middle; visibility: hidden; font-family: &quot;Helvetica Neue&quot;, sans-serif; font-size: 12px; font-weight: 200;" fill="rgb(50, 49, 63)" stroke="none" stroke-width="1px">30</text><text x="104.16666666666667" y="0" dx="0em" dy="0.95em" style="text-anchor: middle; visibility: inherit; font-family: &quot;Helvetica Neue&quot;, sans-serif; font-size: 12px; font-weight: 200;" fill="rgb(50, 49, 63)" stroke="none" stroke-width="1px">40</text><text x="125" y="0" dx="0em" dy="0.95em" style="text-anchor: middle; visibility: hidden; font-family: &quot;Helvetica Neue&quot;, sans-serif; font-size: 12px; font-weight: 200;" fill="rgb(50, 49, 63)" stroke="none" stroke-width="1px">50</text><text x="145.83333333333334" y="0" dx="0em" dy="0.95em" style="text-anchor: middle; visibility: inherit; font-family: &quot;Helvetica Neue&quot;, sans-serif; font-size: 12px; font-weight: 200;" fill="rgb(50, 49, 63)" stroke="none" stroke-width="1px">60</text><text x="166.66666666666666" y="0" dx="0em" dy="0.95em" style="text-anchor: middle; visibility: hidden; font-family: &quot;Helvetica Neue&quot;, sans-serif; font-size: 12px; font-weight: 200;" fill="rgb(50, 49, 63)" stroke="none" stroke-width="1px">70</text><text x="187.5" y="0" dx="0em" dy="0.95em" style="text-anchor: middle; visibility: inherit; font-family: &quot;Helvetica Neue&quot;, sans-serif; font-size: 12px; font-weight: 200;" fill="rgb(50, 49, 63)" stroke="none" stroke-width="1px">80</text><text x="208.33333333333334" y="0" dx="0em" dy="0.95em" style="text-anchor: middle; visibility: hidden; font-family: &quot;Helvetica Neue&quot;, sans-serif; font-size: 12px; font-weight: 200;" fill="rgb(50, 49, 63)" stroke="none" stroke-width="1px">90</text><text x="229.16666666666666" y="0" dx="0em" dy="0.95em" style="text-anchor: middle; visibility: inherit; font-family: &quot;Helvetica Neue&quot;, sans-serif; font-size: 12px; font-weight: 200;" fill="rgb(50, 49, 63)" stroke="none" stroke-width="1px">100</text><text x="250" y="0" dx="0em" dy="0.95em" style="text-anchor: middle; visibility: hidden; font-family: &quot;Helvetica Neue&quot;, sans-serif; font-size: 12px; font-weight: 200;" fill="rgb(50, 49, 63)" stroke="none" stroke-width="1px">110</text></g><line x1="0" y1="0" x2="250" y2="0" fill="rgb(0, 0, 0)" stroke="rgb(204, 204, 204)" stroke-width="1px"></line></g></g></g></g></svg>