<svg viewBox="0 0 330 200" xmlns="http://www.w3.org/2000/svg"><g><g><g><g><g><line x1="30" y1="178" x2="25" y2="178" style="visibility: inherit;" fill="rgb(0, 0, 0)" stroke="rgb(204, 204, 204)" stroke-width="1px"></line><line x1="30" y1="160.2" x2="25" y2="160.2" style="visibility: inherit;" fill="rgb(0, 0, 0)" stroke="rgb(204, 204, 204)" stroke-width="1px"></line><line x1="30" y1="142.4" x2="25" y2="142.4" style="visibility: inherit;" fill="rgb(0, 0, 0)" stroke="rgb(204, 204, 204)" stroke-width="1px"></line><line x1="30" y1="124.6" x2="25" y2="124.6" style="visibility: inherit;" fill="rgb(0, 0, 0)" stroke="rgb(204, 204, 204)" stroke-width="1px"></line><line x1="30" y1="106.8" x2="25" y2="106.8" style="visibility: inherit;" fill="rgb(0, 0, 0)" stroke="rgb(204, 204, 204)" stroke-width="1px"></line><line x1="30" y1="89" x2="25" y2="89" style="visibility: inherit;" fill="rgb(0, 0, 0)" stroke="rgb(204, 204, 204)" stroke-width="1px"></line><line x1="30" y1="71.2" x2="25" y2="71.2" style="visibility: inherit;" fill="rgb(0, 0, 0)" stroke="rgb(204, 204, 204)" stroke-width="1px"></line><line x1="30" y1="53.400000000000006" x2="25" y2="53.400000000000006" style="visibility: inherit;" fill="rgb(0, 0, 0)" stroke="rgb(204, 204, 204)" stroke-width="1px"></line><line x1="30" y1="35.599999999999994" x2="25" y2="35.599999999999994" style="visibility: inherit;" fill="rgb(0, 0, 0)" stroke="rgb(204, 204, 204)" stroke-width="1px"></line><line x1="30" y1="17.799999999999983" x2="25" y2="17.799999999999983" style="visibility: inherit;" fill="rgb(0, 0, 0)" stroke="rgb(204, 204, 204)" stroke-width="1px"></line><line x1="30" y1="0" x2="25" y2="0" style="visibility: inherit;" fill="rgb(0, 0, 0)" stroke="rgb(204, 204, 204)" stroke-width="1px"></line></g><g transform="translate(20, 0)"><text x="0" y="178" dx="0em" dy="0.3em" style="text-anchor: end; visibility: hidden; font-family: &quot;Helvetica Neue&quot;, sans-serif; font-size: 12px; font-weight: 200;" fill="rgb(50, 49, 63)" stroke="none" stroke-width="1px">32</text><text x="0" y="160.2" dx="0em" dy="0.3em" style="text-anchor: end; visibility: inherit; font-family: &quot;Helvetica Neue&quot;, sans-serif; font-size: 12px; font-weight: 200;" fill="rgb(50, 49, 63)" stroke="none" stroke-width="1px">34</text><text x="0" y="142.4" dx="0em" dy="0.3em" style="text-anchor: end; visibility: hidden; font-family: &quot;Helvetica Neue&quot;, sans-serif; font-size: 12px; font-weight: 200;" fill="rgb(50, 49, 63)" stroke="none" stroke-width="1px">36</text><text x="0" y="124.6" dx="0em" dy="0.3em" style="text-anchor: end; visibility: inherit; font-family: &quot;Helvetica Neue&quot;, sans-serif; font-size: 12px; font-weight: 200;" fill="rgb(50, 49, 63)" stroke="none" stroke-width="1px">38</text><text x="0" y="106.8" dx="0em" dy="0.3em" style="text-anchor: end; visibility: hidden; font-family: &quot;Helvetica Neue&quot;, sans-serif; font-size: 12px; font-weight: 200;" fill="rgb(50, 49, 63)" stroke="none" stroke-width="1px">40</text><text x="0" y="89" dx="0em" dy="0.3em" style="text-anchor: end; visibility: inherit; font-family: &quot;Helvetica Neue&quot;, sans-serif; font-size: 12px; font-weight: 200;" fill="rgb(50, 49, 63)" stroke="none" stroke-width="1px">42</text><text x="0" y="71.2" dx="0em" dy="0.3em" style="text-anchor: end; visibility: hidden; font-family: &quot;Helvetica Neue&quot;, sans-serif; font-size: 12px; font-weight: 200;" fill="rgb(50, 49, 63)" stroke="none" stroke-width="1px">44</text><text x="0" y="53.400000000000006" dx="0em" dy="0.3em" style="text-anchor: end; visibility: inherit; font-family: &quot;Helvetica Neue&quot;, sans-serif; font-size: 12px; font-weight: 200;" fill="rgb(50, 49, 63)" stroke="none" stroke-width="1px">46</text><text x="0" y="35.599999999999994" dx="0em" dy="0.3em" style="text-anchor: end; visibility: hidden; font-family: &quot;Helvetica Neue&quot;, sans-serif; font-size: 12px; font-weight: 200;" fill="rgb(50, 49, 63)" stroke="none" stroke-width="1px">48</text><text x="0" y="17.799999999999983" dx="0em" dy="0.3em" style="text-anchor: end; visibility: inherit; font-family: &quot;Helvetica Neue&quot;, sans-serif; font-size: 12px; font-weight: 200;" fill="rgb(50, 49, 63)" stroke="none" stroke-width="1px">50</text><text x="0" y="0" dx="0em" dy="0.3em" style="text-anchor: end; visibility: hidden; font-family: &quot;Helvetica Neue&quot;, sans-serif; font-size: 12px; font-weight: 200;" fill="rgb(50, 49, 63)" stroke="none" stroke-width="1px">52</text></g><line x1="30" y1="0" x2="30" y2="178" fill="rgb(0, 0, 0)" stroke="rgb(204, 204, 204)" stroke-width="1px"></line></g></g><g transform="translate(30, 0)" clip-path="url(#clip_0)"><clipPath id="clip_0"><rect width="300" height="178"></rect></clipPath><g><g><g><line x1="0" y1="0" x2="0" y2="178" fill="rgb(0, 0, 0)" stroke="rgb(60, 60, 60)" stroke-width="1px" opacity="0.25"></line><line x1="25" y1="0" x2="25" y2="178" fill="rgb(0, 0, 0)" stroke="rgb(60, 60, 60)" stroke-width="1px" opacity="0.25"></line><line x1="50" y1="0" x2="50" y2="178" fill="rgb(0, 0, 0)" stroke="rgb(60, 60, 60)" stroke-width="1px" opacity="0.25"></line><line x1="75" y1="0" x2="75" y2="178" fill="rgb(0, 0, 0)" stroke="rgb(60, 60, 60)" stroke-width="1px" opacity="0.25"></line><line x1="100" y1="0" x2="100" y2="178" fill="rgb(0, 0, 0)" stroke="rgb(60, 60, 60)" stroke-width="1px" opacity="0.25"></line><line x1="125" y1="0" x2="125" y2="178" fill="rgb(0, 0, 0)" stroke="rgb(60, 60, 60)" stroke-width="1px" opacity="0.25"></line><line x1="150" y1="0" x2="150" y2="178" fill="rgb(0, 0, 0)" stroke="rgb(60, 60, 60)" stroke-width="1px" opacity="0.25"></line><line x1="175" y1="0" x2="175" y2="178" fill="rgb(0, 0, 0)" stroke="rgb(60, 60, 60)" stroke-width="1px" opacity="0.25"></line><line x1="200" y1="0" x2="200" y2="178" fill="rgb(0, 0, 0)" stroke="rgb(60, 60, 60)" stroke-width="1px" opacity="0.25"></line><line x1="225" y1="0" x2="225" y2="178" fill="rgb(0, 0, 0)" stroke="rgb(60, 60, 60)" stroke-width="1px" opacity="0.25"></line><line x1="250" y1="0" x2="250" y2="178" fill="rgb(0, 0, 0)" stroke="rgb(60, 60, 60)" stroke-width="1px" opacity="0.25"></line><line x1="275" y1="0" x2="275" y2="178" fill="rgb(0, 0, 0)" stroke="rgb(60, 60, 60)" stroke-width="1px" opacity="0.25"></line><line x1="300" y1="0" x2="300" y2="178" fill="rgb(0, 0, 0)" stroke="rgb(60, 60, 60)" stroke-width="1px" opacity="0.25"></line></g><g><line x1="0" y1="178" x2="300" y2="178" fill="rgb(0, 0, 0)" stroke="rgb(60, 60, 60)" stroke-width="1px" opacity="0.25"></line><line x1="0" y1="160.2" x2="300" y2="160.2" fill="rgb(0, 0, 0)" stroke="rgb(60, 60, 60)" stroke-width="1px" opacity="0.25"></line><line x1="0" y1="142.4" x2="300" y2="142.4" fill="rgb(0, 0, 0)" stroke="rgb(60, 60, 60)" stroke-width="1px" opacity="0.25"></line><line x1="0" y1="124.6" x2="300" y2="124.6" fill="rgb(0, 0, 0)" stroke="rgb(60, 60, 60)" stroke-width="1px" opacity="0.25"></line><line x1="0" y1="106.8" x2="300" y2="106.8" fill="rgb(0, 0, 0)" stroke="rgb(60, 60, 60)" stroke-width="1px" opacity="0.25"></line><line x1="0" y1="89" x2="300" y2="89" fill="rgb(0, 0, 0)" stroke="rgb(60, 60, 60)" stroke-width="1px" opacity="0.25"></line><line x1="0" y1="71.2" x2="300" y2="71.2" fill="rgb(0, 0, 0)" stroke="rgb(60, 60, 60)" stroke-width="1px" opacity="0.25"></line><line x1="0" y1="53.400000000000006" x2="300" y2="53.400000000000006" fill="rgb(0, 0, 0)" stroke="rgb(60, 60, 60)" stroke-width="1px" opacity="0.25"></line><line x1="0" y1="35.599999999999994" x2="300" y2="35.599999999999994" fill="rgb(0, 0, 0)" stroke="rgb(60, 60, 60)" stroke-width="1px" opacity="0.25"></line><line x1="0" y1="17.799999999999983" x2="300" y2="17.799999999999983" fill="rgb(0, 0, 0)" stroke="rgb(60, 60, 60)" stroke-width="1px" opacity="0.25"></line><line x1="0" y1="0" x2="300" y2="0" fill="rgb(0, 0, 0)" stroke="rgb(60, 60, 60)" stroke-width="1px" opacity="0.25"></line></g></g></g><g><g><line x1="0" y1="462.8" x2="300" y2="462.8" fill="rgb(0, 0, 0)" stroke="rgb(153, 153, 153)" stroke-width="1.5px"></line></g></g><g><g><line x1="25" y1="0" x2="25" y2="178" fill="rgb(0, 0, 0)" stroke="rgb(153, 153, 153)" stroke-width="1.5px"></line></g></g><g><g><g><g><g><path stroke="rgb(255, 112, 67)" stroke-width="2px" d="M30,-8.900000000000006L32.5,45.58979591836737L35,69.6294117647059L37.5,58.73011797362946L40,52.75950590762618L42.5,53.023081987937545L45,53.176424762539554L47.5,53.26676528181342L50,53.32038337720729L52.5,53.352345985727084L54.99999999999999,53.37144917492104L57.50000000000001,53.382884440202616L60,53.38973603331526" style="fill: none;" fill="none"></path></g><g><path stroke="rgb(238, 51, 119)" stroke-width="2px" d="M27.499999999999996,53.400000000000006L30,53.399999999999935L32.5,-14.712244897959266L37.5,-2.1863983344899225L40,21.13630504833506L42.5,34.413458347599374L45,42.13781453091153L47.5,46.68854964358894L50,49.38946116529655L52.5,50.99951793774832L54.99999999999999,51.961805453114565L57.50000000000001,52.537835607227365L60,52.88297182745039L62.5,53.08988038176571L65,53.2139632341959L67.5,92.45502014058255L70,115.99540284459695L72.5,130.11810228720427L75,138.5911711611453L77.50000000000001,136.554658021799L80,135.33277873049596L82.5,134.59966144864885L85,134.1597947849333L87.5,141.0158963630542L90,145.12954483496515L92.5,151.15773307077166L95,154.77464206358593L97.5,153.3847847260496L100,152.55087065127307L102.5,152.0505223243955L105,151.75031337074472L107.5,151.57018801384547L109.99999999999999,151.4621128052108" style="fill: none;" fill="none"></path></g><g><path stroke="rgb(51, 187, 238)" stroke-width="2px" d="M27.499999999999996,26.700000000000017L30,26.700000000000017L32.5,-5.0857142857142605L35,-19.10882352941178L37.5,54.8020124913255L40,95.29022556390974L42.5,118.33936369143247L45,131.74884602566243L47.5,100.09026203009967L50,81.30054297210465L52.5,70.09968941631551L54.99999999999999,63.40524129336602L57.50000000000001,59.39791092444261L60,56.99686499509346L62.5,59.119116848010776L65,60.391829154936275L67.5,96.76125362158325L70,118.57896797907478" style="fill: none;" fill="none"></path></g><g><path stroke="rgb(204, 51, 17)" stroke-width="2px" d="M27.499999999999996,26.700000000000017L30,26.700000000000017L32.5,94.81224489795926L35,124.86176470588236L37.5,136.32873004857743L40,142.61031149301826L42.5,138.86123679844087L45,136.68010748208633" style="fill: none;" fill="none"></path></g><g><path stroke="rgb(238, 51, 119)" stroke-width="2px" d="M27.499999999999996,53.400000000000006L30,53.399999999999935L32.5,85.18571428571425L35,99.2088235294117L37.5,83.20048577376818L40,74.43114930182595L42.5,65.77641233637968L45,60.741276453924314L47.5,57.774871343438264L50,56.0142771663251L52.5,54.96475867761586L54.99999999999999,54.337489778710435L57.50000000000001,53.96200345602951L60,53.737025771736015L62.5,53.60215204744166L65,53.52126841030196L67.5,53.47275283411476L70,53.4436487446588L72.5,67.66705596396777L75,76.20054557628136L77.50000000000001,84.8805177578901L80,90.08837920149374L82.5,93.21305219738325L85,95.08784020189046L87.5,106.89273768279777L90,113.97565469184092L92.5,114.66539352104562L95,115.07923636676583L97.5,115.32754191154928L100,115.47652517986596L102.5,122.68591606420452L105,127.01154998278525L107.5,136.72693045359964L109.99999999999999,142.55615843917406L112.5,149.61369518482854L115.00000000000001,153.84821715457375L117.5,152.82893028643628L120,152.2173581695908L122.5,144.7304148850742L125,140.23824892503964L127.5,105.50294932716436L130,84.66176958626924L132.5,72.15706174815095L135,64.65423704759077L137.5,60.1525422280865L140,57.45152533668342L142.5,55.83091520194942L145,54.85854912114783L147.5,54.275129472680774L150,53.92507768360558L152.5,53.7150466101624L155.00000000000003,53.58902796609702L157.5,53.513416779658016L160,53.46805006779478L162.5,53.440830040676815L165,53.42449802440608L167.5,53.41469881464357L170,53.40881928878616L172.5,53.405291573271654L175,53.40317494396304L177.5,53.4019049663778L180,53.40114297982666L182.49999999999997,53.40068578789601L185,53.400411472737574L187.5,53.40024688364254L190,53.40014813018547L192.50000000000003,53.40008887811129L195,53.4000533268668L197.5,53.40003199612008L200,53.40001919767201L202.5,53.40001151860321L205,53.40000691116185L207.5,53.40000414669706L210,53.40000248801827L212.5,53.400001492810986L215,49.840000895686615L217.5,47.704000537411986L219.99999999999997,49.98240032244718L222.5,51.34944019346834L225,52.16966411608102L227.5,52.6617984696486L230.00000000000003,52.95707908178916L232.5,53.134247449073484L235,53.24054846944409L237.5,53.30432908166645L240,53.34259744899987L242.5,53.365558469399915L245,53.37933508163991L247.5,53.387601048983896L250,53.39256062939033L252.5,53.395536377634144L255,53.397321826580466L257.5,78.31839309594827L260,93.27103585756898L262.5,105.80262151454139L265,113.32157290872483L267.5,114.27294374523484L270,114.84376624714093L272.5,118.74625974828459L275,121.08775584897073" style="fill: none;" fill="none"></path></g></g></g></g><g opacity="0.2"><g><g><g><path stroke="rgb(255, 112, 67)" stroke-width="2px" d="M30,-8.900000000000006L32.5,97.89999999999999L35,97.89999999999999L37.5,44.5L40,44.5L42.5,53.400000000000006L45,53.400000000000006L47.5,53.400000000000006L50,53.400000000000006L52.5,53.400000000000006L54.99999999999999,53.400000000000006L57.50000000000001,53.400000000000006L60,53.400000000000006" style="fill: none;" fill="none"></path></g><g><path stroke="rgb(238, 51, 119)" stroke-width="2px" d="M27.499999999999996,53.400000000000006L30,53.400000000000006L32.5,-80.09999999999997L35,-80.09999999999997L37.5,53.400000000000006L40,53.400000000000006L42.5,53.400000000000006L45,53.400000000000006L47.5,53.400000000000006L50,53.400000000000006L52.5,53.400000000000006L54.99999999999999,53.400000000000006L57.50000000000001,53.400000000000006L60,53.400000000000006L62.5,53.400000000000006L65,53.400000000000006L67.5,151.3L70,151.3L72.5,151.3L75,151.3L77.50000000000001,133.5L80,133.5L82.5,133.5L85,133.5L87.5,151.3L90,151.3L92.5,160.2L95,160.2L97.5,151.3L100,151.3L102.5,151.3L105,151.3L107.5,151.3L109.99999999999999,151.3" style="fill: none;" fill="none"></path></g><g><path stroke="rgb(51, 187, 238)" stroke-width="2px" d="M27.499999999999996,26.700000000000017L30,26.700000000000017L32.5,-35.599999999999994L35,-35.599999999999994L37.5,151.3L40,151.3L42.5,151.3L45,151.3L47.5,53.400000000000006L50,53.400000000000006L52.5,53.400000000000006L54.99999999999999,53.400000000000006L57.50000000000001,53.400000000000006L60,53.400000000000006L62.5,62.3L65,62.3L67.5,151.3L70,151.3" style="fill: none;" fill="none"></path></g><g><path stroke="rgb(204, 51, 17)" stroke-width="2px" d="M27.499999999999996,26.700000000000017L30,26.700000000000017L32.5,160.2L35,160.2L37.5,151.3L40,151.3L42.5,133.5L45,133.5" style="fill: none;" fill="none"></path></g><g><path stroke="rgb(238, 51, 119)" stroke-width="2px" d="M27.499999999999996,53.400000000000006L30,53.400000000000006L32.5,115.7L35,115.7L37.5,62.3L40,62.3L42.5,53.400000000000006L45,53.400000000000006L47.5,53.400000000000006L50,53.400000000000006L52.5,53.400000000000006L54.99999999999999,53.400000000000006L57.50000000000001,53.400000000000006L60,53.400000000000006L62.5,53.400000000000006L65,53.400000000000006L67.5,53.400000000000006L70,53.400000000000006L72.5,89L75,89L77.50000000000001,97.89999999999999L80,97.89999999999999L82.5,97.89999999999999L85,97.89999999999999L87.5,124.6L90,124.6L92.5,115.7L95,115.7L97.5,115.7L100,115.7L102.5,133.5L105,133.5L107.5,151.3L109.99999999999999,151.3L112.5,160.2L115.00000000000001,160.2L117.5,151.3L120,151.3L122.5,133.5L125,133.5L127.5,53.400000000000006L130,53.400000000000006L132.5,53.400000000000006L135,53.400000000000006L137.5,53.400000000000006L140,53.400000000000006L142.5,53.400000000000006L145,53.400000000000006L147.5,53.400000000000006L150,53.400000000000006L152.5,53.400000000000006L155.00000000000003,53.400000000000006L157.5,53.400000000000006L160,53.400000000000006L162.5,53.400000000000006L165,53.400000000000006L167.5,53.400000000000006L170,53.400000000000006L172.5,53.400000000000006L175,53.400000000000006L177.5,53.400000000000006L180,53.400000000000006L182.49999999999997,53.400000000000006L185,53.400000000000006L187.5,53.400000000000006L190,53.400000000000006L192.50000000000003,53.400000000000006L195,53.400000000000006L197.5,53.400000000000006L200,53.400000000000006L202.5,53.400000000000006L205,53.400000000000006L207.5,53.400000000000006L210,53.400000000000006L212.5,53.400000000000006L215,44.5L217.5,44.5L219.99999999999997,53.400000000000006L222.5,53.400000000000006L225,53.400000000000006L227.5,53.400000000000006L230.00000000000003,53.400000000000006L232.5,53.400000000000006L235,53.400000000000006L237.5,53.400000000000006L240,53.400000000000006L242.5,53.400000000000006L245,53.400000000000006L247.5,53.400000000000006L250,53.400000000000006L252.5,53.400000000000006L255,53.400000000000006L257.5,115.7L260,115.7L262.5,124.6L265,124.6L267.5,115.7L270,115.7L272.5,124.6L275,124.6" style="fill: none;" fill="none"></path></g></g></g></g></g></g><g transform="translate(30, 178)" clip-path="url(#clip_1)"><clipPath id="clip_1"><rect width="300" height="22"></rect></clipPath><g><g><line x1="0" y1="0" x2="0" y2="5" style="visibility: inherit;" fill="rgb(0, 0, 0)" stroke="rgb(204, 204, 204)" stroke-width="1px"></line><line x1="25" y1="0" x2="25" y2="5" style="visibility: inherit;" fill="rgb(0, 0, 0)" stroke="rgb(204, 204, 204)" stroke-width="1px"></line><line x1="50" y1="0" x2="50" y2="5" style="visibility: inherit;" fill="rgb(0, 0, 0)" stroke="rgb(204, 204, 204)" stroke-width="1px"></line><line x1="75" y1="0" x2="75" y2="5" style="visibility: inherit;" fill="rgb(0, 0, 0)" stroke="rgb(204, 204, 204)" stroke-width="1px"></line><line x1="100" y1="0" x2="100" y2="5" style="visibility: inherit;" fill="rgb(0, 0, 0)" stroke="rgb(204, 204, 204)" stroke-width="1px"></line><line x1="125" y1="0" x2="125" y2="5" style="visibility: inherit;" fill="rgb(0, 0, 0)" stroke="rgb(204, 204, 204)" stroke-width="1px"></line><line x1="150" y1="0" x2="150" y2="5" style="visibility: inherit;" fill="rgb(0, 0, 0)" stroke="rgb(204, 204, 204)" stroke-width="1px"></line><line x1="175" y1="0" x2="175" y2="5" style="visibility: inherit;" fill="rgb(0, 0, 0)" stroke="rgb(204, 204, 204)" stroke-width="1px"></line><line x1="200" y1="0" x2="200" y2="5" style="visibility: inherit;" fill="rgb(0, 0, 0)" stroke="rgb(204, 204, 204)" stroke-width="1px"></line><line x1="225" y1="0" x2="225" y2="5" style="visibility: inherit;" fill="rgb(0, 0, 0)" stroke="rgb(204, 204, 204)" stroke-width="1px"></line><line x1="250" y1="0" x2="250" y2="5" style="visibility: inherit;" fill="rgb(0, 0, 0)" stroke="rgb(204, 204, 204)" stroke-width="1px"></line><line x1="275" y1="0" x2="275" y2="5" style="visibility: inherit;" fill="rgb(0, 0, 0)" stroke="rgb(204, 204, 204)" stroke-width="1px"></line><line x1="300" y1="0" x2="300" y2="5" style="visibility: inherit;" fill="rgb(0, 0, 0)" stroke="rgb(204, 204, 204)" stroke-width="1px"></line></g><g transform="translate(0, 8)"><text x="0" y="0" dx="0em" dy="0.95em" style="text-anchor: middle; visibility: hidden; font-family: &quot;Helvetica Neue&quot;, sans-serif; font-size: 12px; font-weight: 200;" fill="rgb(50, 49, 63)" stroke="none" stroke-width="1px">-10</text><text x="25" y="0" dx="0em" dy="0.95em" style="text-anchor: middle; visibility: inherit; font-family: &quot;Helvetica Neue&quot;, sans-serif; font-size: 12px; font-weight: 200;" fill="rgb(50, 49, 63)" stroke="none" stroke-width="1px">0</text><text x="50" y="0" dx="0em" dy="0.95em" style="text-anchor: middle; visibility: inherit; font-family: &quot;Helvetica Neue&quot;, sans-serif; font-size: 12px; font-weight: 200;" fill="rgb(50, 49, 63)" stroke="none" stroke-width="1px">10</text><text x="75" y="0" dx="0em" dy="0.95em" style="text-anchor: middle; visibility: inherit; font-family: &quot;Helvetica Neue&quot;, sans-serif; font-size: 12px; font-weight: 200;" fill="rgb(50, 49, 63)" stroke="none" stroke-width="1px">20</text><text x="100" y="0" dx="0em" dy="0.95em" style="text-anchor: middle; visibility: inherit; font-family: &quot;Helvetica Neue&quot;, sans-serif; font-size: 12px; font-weight: 200;" fill="rgb(50, 49, 63)" stroke="none" stroke-width="1px">30</text><text x="125" y="0" dx="0em" dy="0.95em" style="text-anchor: middle; visibility: inherit; font-family: &quot;Helvetica Neue&quot;, sans-serif; font-size: 12px; font-weight: 200;" fill="rgb(50, 49, 63)" stroke="none" stroke-width="1px">40</text><text x="150" y="0" dx="0em" dy="0.95em" style="text-anchor: middle; visibility: inherit; font-family: &quot;Helvetica Neue&quot;, sans-serif; font-size: 12px; font-weight: 200;" fill="rgb(50, 49, 63)" stroke="none" stroke-width="1px">50</text><text x="175" y="0" dx="0em" dy="0.95em" style="text-anchor: middle; visibility: inherit; font-family: &quot;Helvetica Neue&quot;, sans-serif; font-size: 12px; font-weight: 200;" fill="rgb(50, 49, 63)" stroke="none" stroke-width="1px">60</text><text x="200" y="0" dx="0em" dy="0.95em" style="text-anchor: middle; visibility: inherit; font-family: &quot;Helvetica Neue&quot;, sans-serif; font-size: 12px; font-weight: 200;" fill="rgb(50, 49, 63)" stroke="none" stroke-width="1px">70</text><text x="225" y="0" dx="0em" dy="0.95em" style="text-anchor: middle; visibility: inherit; font-family: &quot;Helvetica Neue&quot;, sans-serif; font-size: 12px; font-weight: 200;" fill="rgb(50, 49, 63)" stroke="none" stroke-width="1px">80</text><text x="250" y="0" dx="0em" dy="0.95em" style="text-anchor: middle; visibility: inherit; font-family: &quot;Helvetica Neue&quot;, sans-serif; font-size: 12px; font-weight: 200;" fill="rgb(50, 49, 63)" stroke="none" stroke-width="1px">90</text><text x="275" y="0" dx="0em" dy="0.95em" style="text-anchor: middle; visibility: inherit; font-family: &quot;Helvetica Neue&quot;, sans-serif; font-size: 12px; font-weight: 200;" fill="rgb(50, 49, 63)" stroke="none" stroke-width="1px">100</text><text x="300" y="0" dx="0em" dy="0.95em" style="text-anchor: middle; visibility: hidden; font-family: &quot;Helvetica Neue&quot;, sans-serif; font-size: 12px; font-weight: 200;" fill="rgb(50, 49, 63)" stroke="none" stroke-width="1px">110</text></g><line x1="0" y1="0" x2="300" y2="0" fill="rgb(0, 0, 0)" stroke="rgb(204, 204, 204)" stroke-width="1px"></line></g></g></g></g></svg>