<?xml version="1.0" standalone="no"?>
<!DOCTYPE svg PUBLIC "-//W3C//DTD SVG 20010904//EN"
 "http://www.w3.org/TR/2001/REC-SVG-20010904/DTD/svg10.dtd">
<svg version="1.0" xmlns="http://www.w3.org/2000/svg"
 width="434.000000pt" height="291.000000pt" viewBox="0 0 434.000000 291.000000"
 preserveAspectRatio="xMidYMid meet">
<metadata>
Created by potrace 1.16, written by Peter Selinger 2001-2019
</metadata>
<g transform="translate(0.000000,291.000000) scale(0.100000,-0.100000)"
fill="#000000" stroke="none">
<path d="M80 1465 l0 -1365 2095 0 2095 0 0 1365 0 1365 -2095 0 -2095 0 0
-1365z m4180 0 l0 -1355 -2085 0 -2085 0 0 1355 0 1355 2085 0 2085 0 0 -1355z"/>
<path d="M1851 2781 c-28 -27 -36 -49 -33 -92 1 -12 -38 -34 -136 -79 -75 -35
-141 -66 -147 -70 -5 -4 -82 -40 -170 -80 -88 -40 -196 -89 -240 -110 -44 -21
-129 -61 -188 -89 -60 -28 -110 -51 -112 -51 -2 0 -55 -24 -117 -54 -339 -161
-337 -160 -357 -142 -45 41 -112 41 -156 0 -20 -19 -25 -33 -25 -72 0 -59 30
-96 85 -106 27 -5 36 -13 41 -34 3 -15 12 -49 19 -77 8 -27 28 -113 45 -190
18 -77 39 -167 47 -200 8 -33 21 -90 28 -126 8 -36 19 -86 26 -110 6 -24 22
-91 34 -149 l22 -104 -27 -26 c-79 -74 -15 -205 90 -184 17 4 45 20 62 37 27
28 32 29 61 19 18 -6 70 -21 117 -33 93 -24 204 -54 350 -94 190 -53 305 -84
525 -144 39 -11 122 -33 185 -51 106 -29 180 -50 348 -96 35 -9 65 -22 67 -28
2 -6 6 -24 10 -40 18 -82 114 -113 174 -57 27 25 31 36 31 79 l0 49 108 48
c59 26 132 59 162 72 30 13 69 30 85 38 17 8 122 55 235 105 113 50 219 97
235 105 17 8 138 62 270 120 132 59 263 117 290 129 69 32 95 40 95 27 0 -16
61 -51 88 -51 39 0 83 29 98 67 30 70 -14 143 -84 143 l-40 0 -25 83 c-13 45
-37 125 -52 177 -14 52 -35 124 -45 160 -11 36 -27 93 -35 128 -9 34 -20 73
-25 85 -5 12 -25 83 -45 157 -20 74 -40 145 -45 157 -7 18 -2 28 31 61 51 52
54 101 8 150 -25 27 -37 32 -75 32 -37 0 -51 -6 -76 -30 l-30 -30 -51 14 c-54
15 -157 45 -312 90 -49 15 -119 35 -155 45 -36 10 -121 35 -190 56 -69 21
-154 46 -190 56 -176 50 -334 96 -498 144 -48 14 -115 33 -148 42 -61 16 -62
17 -68 56 -15 90 -111 127 -175 68z m-16 -141 c4 -13 0 -30 -9 -43 -31 -44
-144 -207 -266 -385 -108 -157 -129 -182 -155 -186 -16 -3 -104 -10 -195 -15
l-165 -9 183 5 c114 4 182 2 182 -4 0 -5 -26 -46 -57 -91 -32 -45 -75 -106
-96 -137 -41 -59 -51 -63 -122 -44 -22 6 -83 22 -135 35 -52 13 -140 35 -195
49 -55 15 -143 37 -195 50 -205 52 -230 59 -230 67 0 16 27 19 236 32 115 7
185 14 156 15 -29 0 -130 -4 -223 -10 -94 -6 -173 -8 -175 -6 -7 7 7 37 18 37
5 0 53 21 106 46 53 25 141 66 195 90 54 24 105 48 115 54 22 12 178 84 370
171 85 39 161 74 170 79 20 11 176 84 312 145 52 24 109 50 125 59 39 20 42
20 50 -4z m305 -6 c106 -32 213 -64 355 -104 61 -17 139 -40 175 -50 36 -11
106 -31 155 -46 101 -29 209 -60 335 -98 47 -13 126 -37 175 -51 50 -14 126
-37 171 -51 44 -13 87 -24 96 -24 8 0 21 -7 28 -15 17 -21 9 -23 -170 -34
l-155 -9 169 5 c129 4 167 2 164 -7 -3 -11 -77 -46 -443 -211 -27 -12 -68 -31
-90 -42 -22 -10 -57 -25 -77 -32 l-38 -14 -152 122 -152 122 39 7 c22 4 112
12 200 17 l160 9 -150 -4 c-82 -2 -177 -7 -210 -10 l-60 -6 -96 79 c-53 43
-201 161 -328 262 -127 101 -231 190 -231 197 0 20 35 17 130 -12z m194 -274
l306 -245 -42 -6 -43 -6 51 -1 c50 -2 57 -6 207 -124 86 -68 156 -128 156
-135 1 -6 -16 -17 -36 -24 -21 -6 -49 -18 -63 -25 -14 -7 -56 -27 -95 -44 -38
-18 -88 -40 -110 -50 -296 -135 -492 -220 -501 -216 -6 2 -17 39 -24 83 -12
76 -29 129 -30 91 0 -9 4 -27 9 -40 5 -14 12 -50 16 -82 l8 -59 -29 6 c-16 3
-74 18 -129 32 -95 25 -182 47 -395 101 -336 84 -362 92 -353 107 4 7 25 38
47 71 23 32 66 95 97 140 l56 81 69 6 69 5 -57 2 c-32 1 -58 6 -58 11 0 5 54
87 119 183 66 95 153 221 193 280 73 108 73 108 108 102 19 -3 38 -9 42 -12 4
-4 14 -52 24 -107 9 -55 21 -107 26 -115 6 -11 8 -6 4 15 -3 17 -13 66 -21
110 -19 102 -20 97 13 116 20 12 31 13 43 5 9 -6 154 -121 323 -256z m1321
-259 c4 -14 -16 -52 -72 -133 -43 -62 -110 -159 -148 -216 -38 -56 -80 -116
-95 -132 l-25 -29 -150 120 c-82 66 -151 123 -152 127 -3 6 52 32 327 154 121
54 162 73 219 100 67 32 88 34 96 9z m75 -41 c29 0 37 -17 72 -145 36 -130
105 -377 148 -525 17 -58 37 -132 46 -165 8 -33 21 -77 29 -98 19 -48 19 -50
-6 -65 -24 -15 8 -38 -411 296 -148 117 -268 219 -268 225 0 7 31 57 69 112
38 55 109 158 157 229 102 149 113 161 127 147 6 -6 23 -11 37 -11z m-3260
-170 c14 -6 63 -19 110 -29 47 -11 139 -34 205 -51 136 -36 237 -61 343 -87
39 -10 72 -21 72 -24 0 -3 -10 -21 -23 -40 -66 -97 -163 -237 -178 -256 l-17
-23 -213 172 c-118 94 -251 202 -297 239 -45 38 -89 72 -98 77 -9 5 -12 15 -8
26 5 14 14 16 43 11 20 -3 47 -10 61 -15z m67 -165 c81 -66 189 -153 238 -193
102 -83 107 -87 158 -125 20 -15 37 -33 37 -38 0 -11 -82 -133 -300 -444 -53
-76 -58 -80 -94 -80 -45 -1 -48 5 -77 140 -10 50 -25 115 -33 145 -8 30 -29
118 -46 195 -18 77 -39 167 -47 200 -8 33 -21 89 -28 125 -7 36 -21 92 -30
125 -11 36 -14 60 -8 62 6 2 19 10 29 18 23 17 6 27 201 -130z m2616 -20 c140
-111 156 -127 147 -145 -10 -19 -92 -140 -215 -317 -2 -4 -280 63 -510 122
-55 15 -143 37 -195 50 -52 13 -117 30 -144 37 l-49 14 26 17 c15 9 29 17 32
17 3 0 41 16 83 35 42 20 93 43 112 51 19 9 148 67 285 130 138 62 255 113
260 114 6 0 81 -56 168 -125z m-1773 -46 c63 -17 149 -39 190 -49 244 -61 436
-111 515 -133 59 -16 72 -7 -150 -106 -88 -40 -169 -76 -180 -81 -11 -5 -51
-23 -90 -40 -73 -33 -103 -47 -218 -100 -125 -57 -97 -65 -279 81 -90 72 -164
135 -166 139 -2 5 25 50 60 100 35 50 70 101 78 114 77 112 82 118 104 111 11
-3 73 -20 136 -36z m2275 -354 c358 -286 342 -272 330 -284 -11 -10 -56 -2
-230 44 -98 26 -207 54 -395 101 -218 54 -253 63 -258 68 -3 3 22 45 55 93 33
49 82 121 109 161 31 46 55 71 64 69 8 -2 155 -115 325 -252z m-1315 109 c52
-13 140 -35 195 -49 115 -30 247 -64 390 -99 55 -13 111 -28 123 -33 l24 -9
-44 -65 c-25 -35 -74 -107 -110 -159 l-66 -95 -88 -7 c-123 -11 -138 -18 -26
-14 50 2 92 0 92 -5 0 -5 -15 -31 -33 -57 -18 -26 -64 -92 -102 -147 -38 -55
-84 -122 -103 -149 -19 -27 -57 -83 -84 -123 -48 -71 -51 -74 -85 -71 -40 3
-41 6 -77 188 -11 53 -14 60 -10 25 3 -27 12 -85 20 -128 15 -76 15 -80 -3
-97 -24 -22 -31 -18 -138 70 -44 36 -92 75 -106 85 -92 69 -408 329 -404 334
3 2 47 8 98 12 l92 7 -108 -3 -108 -4 -162 130 c-89 71 -163 133 -164 137 -2
6 180 91 547 255 120 53 175 78 203 93 16 8 32 14 37 14 12 0 36 -108 100
-450 28 -150 32 -140 -47 -142 l-68 -2 75 -5 75 -6 21 -117 c11 -65 24 -121
28 -125 5 -5 6 6 2 22 -17 81 -36 192 -36 211 0 20 7 22 178 31 l177 11 -181
-5 -182 -5 -8 23 c-7 23 -33 155 -74 384 -11 61 -25 122 -31 137 -16 38 -6 48
38 36 21 -5 81 -21 133 -34z m-1188 -184 c143 -114 179 -150 147 -150 -7 0
-127 -52 -268 -116 -141 -64 -284 -129 -317 -144 -60 -27 -62 -27 -77 -9 -18
20 -26 7 186 314 146 213 162 235 167 232 3 -1 76 -58 162 -127z m2013 -26
c33 -8 103 -26 155 -39 240 -61 302 -76 395 -101 55 -14 133 -33 174 -43 41
-9 76 -22 78 -28 6 -16 -31 -21 -212 -30 -88 -4 -142 -9 -120 -11 22 -1 105 1
185 6 220 13 218 10 -80 -120 -25 -11 -70 -31 -100 -45 -107 -48 -136 -61
-275 -122 -77 -34 -153 -68 -170 -76 -44 -20 -118 -53 -335 -149 -107 -48
-208 -93 -225 -101 -16 -7 -54 -24 -83 -36 -49 -20 -55 -21 -69 -6 -19 18 -30
0 310 495 29 41 61 80 72 87 13 8 110 19 270 28 138 9 189 14 115 11 -74 -2
-191 -7 -258 -11 l-124 -6 52 74 c28 41 76 111 106 157 31 45 61 82 67 82 7 0
39 -7 72 -16z m-1669 -251 l159 -128 -50 -6 -50 -6 59 -1 59 -2 318 -256 c176
-141 322 -260 325 -265 3 -5 -1 -12 -9 -14 -14 -6 -27 -3 -182 39 -136 38
-259 72 -370 102 -55 15 -140 38 -190 52 -49 14 -128 35 -175 48 -91 24 -216
59 -370 101 -52 14 -133 36 -180 48 -47 13 -101 28 -120 35 -19 6 -41 14 -49
16 -13 4 -13 7 0 18 10 10 82 18 259 29 135 9 184 14 110 11 -74 -2 -191 -7
-259 -11 -104 -5 -123 -4 -119 8 5 16 15 22 208 107 25 11 74 34 110 50 36 16
81 37 100 45 19 9 80 36 135 61 55 24 105 45 111 45 6 1 82 -56 170 -126z"/>
</g>
</svg>
